<svg width="753" height="545" viewBox="0 0 753 545" fill="none" xmlns="http://www.w3.org/2000/svg">
<path d="M246.289 365.695H207.812V428H163.086V365.695H32.6172V330.344L163.086 141.672H207.812V327.609H246.289V365.695ZM163.086 327.609V255.93C163.086 230.409 163.737 209.51 165.039 193.234H163.477C159.831 201.828 154.102 212.245 146.289 224.484L75.3906 327.609H163.086ZM464.648 285.227C464.648 334.836 456.641 371.685 440.625 395.773C424.74 419.862 400.391 431.906 367.578 431.906C335.807 431.906 311.719 419.471 295.312 394.602C278.906 369.732 270.703 333.273 270.703 285.227C270.703 234.836 278.646 197.727 294.531 173.898C310.547 149.94 334.896 137.961 367.578 137.961C399.479 137.961 423.633 150.461 440.039 175.461C456.445 200.461 464.648 237.049 464.648 285.227ZM317.188 285.227C317.188 324.159 321.159 351.958 329.102 368.625C337.174 385.292 350 393.625 367.578 393.625C385.156 393.625 397.982 385.161 406.055 368.234C414.258 351.307 418.359 323.638 418.359 285.227C418.359 246.945 414.258 219.276 406.055 202.219C397.982 185.031 385.156 176.438 367.578 176.438C350 176.438 337.174 184.836 329.102 201.633C321.159 218.43 317.188 246.294 317.188 285.227ZM682.422 208.078C682.422 226.177 677.148 241.281 666.602 253.391C656.055 265.37 641.211 273.443 622.07 277.609V279.172C644.987 282.036 662.174 289.198 673.633 300.656C685.091 311.984 690.82 327.089 690.82 345.969C690.82 373.443 681.12 394.667 661.719 409.641C642.318 424.484 614.714 431.906 578.906 431.906C547.266 431.906 520.573 426.763 498.828 416.477V375.656C510.938 381.646 523.763 386.268 537.305 389.523C550.846 392.779 563.867 394.406 576.367 394.406C598.503 394.406 615.039 390.305 625.977 382.102C636.914 373.898 642.383 361.203 642.383 344.016C642.383 328.781 636.328 317.583 624.219 310.422C612.109 303.26 593.099 299.68 567.188 299.68H542.383V262.375H567.578C613.151 262.375 635.938 246.62 635.938 215.109C635.938 202.87 631.966 193.43 624.023 186.789C616.081 180.148 604.362 176.828 588.867 176.828C578.06 176.828 567.643 178.391 557.617 181.516C547.591 184.51 535.742 190.435 522.07 199.289L499.609 167.258C525.781 147.987 556.185 138.352 590.82 138.352C619.596 138.352 642.057 144.536 658.203 156.906C674.349 169.276 682.422 186.333 682.422 208.078Z" fill="#CCCCCC"/>
<path d="M135.449 281.62H120.338V429.174H135.449V281.62Z" fill="#FCFCFF"/>
<path d="M127.839 262.336C123.206 262.336 119.566 266.082 119.566 270.6V281.51H136.221V270.6C136.221 266.082 132.471 262.336 127.839 262.336Z" fill="#737373"/>
<path d="M138.868 251.426C138.868 257.487 133.905 262.446 127.838 262.446C121.772 262.446 116.809 257.487 116.809 251.426C116.809 245.365 121.772 240.406 127.838 240.406C133.905 240.406 138.868 245.365 138.868 251.426Z" fill="#FF4C61"/>
<path opacity="0.5" d="M125.853 243.822C131.92 243.822 136.883 248.781 136.883 254.842C136.883 255.834 136.773 256.716 136.552 257.597C137.986 255.724 138.758 253.52 138.758 250.985C138.758 244.924 133.795 239.966 127.728 239.966C122.655 239.966 118.353 243.492 117.14 248.12C119.125 245.586 122.213 243.822 125.853 243.822Z" fill="#FCFCFF"/>
<path d="M131.919 251.426C131.919 253.63 130.155 255.503 127.838 255.503C125.632 255.503 123.757 253.74 123.757 251.426C123.757 249.222 125.522 247.349 127.838 247.349C130.155 247.349 131.919 249.112 131.919 251.426Z" fill="#FCFCFF"/>
<path d="M136.221 283.053H119.566C118.794 283.053 118.132 282.392 118.132 281.62V270.711C118.132 265.311 122.544 261.013 127.839 261.013C133.243 261.013 137.545 265.421 137.545 270.711V281.62C137.655 282.392 136.993 283.053 136.221 283.053ZM121 280.188H134.787V270.711C134.787 266.964 131.699 263.879 127.949 263.879C124.199 263.879 121.11 266.964 121.11 270.711V280.188H121Z" fill="#333333"/>
<path d="M127.839 263.768C121 263.768 115.485 258.258 115.485 251.426C115.485 244.594 121 238.974 127.839 238.974C134.677 238.974 140.302 244.594 140.302 251.426C140.302 258.258 134.787 263.768 127.839 263.768ZM127.839 241.839C122.544 241.839 118.243 246.137 118.243 251.426C118.243 256.716 122.544 261.013 127.839 261.013C133.133 261.013 137.435 256.716 137.435 251.426C137.435 246.137 133.133 241.839 127.839 241.839Z" fill="#333333"/>
<path d="M135.449 332.972H120.338V343.441H135.449V332.972Z" fill="#737373"/>
<path d="M135.449 431.158H120.339C119.567 431.158 118.905 430.497 118.905 429.726V273.245C118.905 272.474 119.567 271.813 120.339 271.813H135.449C136.221 271.813 136.883 272.474 136.883 273.245V429.726C136.883 430.607 136.221 431.158 135.449 431.158ZM121.773 428.293H134.016V274.678H121.773V428.293Z" fill="#333333"/>
<path d="M332.662 281.62H317.551V429.175H332.662V281.62Z" fill="#FCFCFF"/>
<path d="M325.161 262.336C320.528 262.336 316.889 266.083 316.889 270.601V281.51H333.544V270.601C333.433 266.083 329.683 262.336 325.161 262.336Z" fill="#737373"/>
<path d="M336.081 251.426C336.081 257.487 331.117 262.446 325.051 262.446C318.984 262.446 314.021 257.487 314.021 251.426C314.021 245.365 318.984 240.406 325.051 240.406C331.227 240.406 336.081 245.365 336.081 251.426Z" fill="#FF4C61"/>
<path opacity="0.5" d="M323.066 243.823C329.132 243.823 334.095 248.782 334.095 254.842C334.095 255.834 333.985 256.716 333.764 257.597C335.198 255.724 335.97 253.52 335.97 250.986C335.97 244.925 331.007 239.966 324.941 239.966C319.867 239.966 315.565 243.492 314.352 248.12C316.337 245.586 319.536 243.823 323.066 243.823Z" fill="#FCFCFF"/>
<path d="M329.132 251.426C329.132 253.63 327.367 255.504 325.051 255.504C322.845 255.504 320.97 253.741 320.97 251.426C320.97 249.222 322.734 247.349 325.051 247.349C327.367 247.349 329.132 249.112 329.132 251.426Z" fill="#FCFCFF"/>
<path d="M333.434 283.053H316.779C316.007 283.053 315.345 282.392 315.345 281.62V270.711C315.345 265.311 319.757 261.013 325.051 261.013C330.455 261.013 334.757 265.421 334.757 270.711V281.62C334.867 282.392 334.206 283.053 333.434 283.053ZM318.212 280.188H332V270.711C332 266.964 328.911 263.879 325.161 263.879C321.411 263.879 318.323 266.964 318.323 270.711V280.188H318.212Z" fill="#333333"/>
<path d="M325.161 263.768C318.322 263.768 312.697 258.148 312.697 251.316C312.697 244.484 318.322 238.864 325.161 238.864C331.999 238.864 337.624 244.484 337.624 251.316C337.514 258.259 331.999 263.768 325.161 263.768ZM325.161 241.839C319.867 241.839 315.565 246.137 315.565 251.426C315.565 256.716 319.867 261.013 325.161 261.013C330.455 261.013 334.757 256.716 334.757 251.426C334.646 246.137 330.345 241.839 325.161 241.839Z" fill="#333333"/>
<path d="M332.662 332.972H317.551V343.441H332.662V332.972Z" fill="#737373"/>
<path d="M332.661 431.158H317.551C316.778 431.158 316.117 430.497 316.117 429.726V273.245C316.117 272.474 316.778 271.813 317.551 271.813H332.661C333.433 271.813 334.095 272.474 334.095 273.245V429.726C334.095 430.607 333.433 431.158 332.661 431.158ZM318.984 428.293H331.227V274.678H318.984V428.293Z" fill="#333333"/>
<path d="M345.566 389.834H107.434V410.772H345.566V389.834Z" fill="#FCFCFF"/>
<path d="M342.809 273.245H110.191V331.87H342.809V273.245Z" fill="#FCFCFF"/>
<path d="M157.619 273.245L107.434 323.385V331.87H125.191L183.759 273.245H157.619Z" fill="#FF4C61"/>
<path d="M107.434 282.061V308.288L142.398 273.245H116.257L107.434 282.061Z" fill="#FF4C61"/>
<path d="M266.152 273.245H239.901L181.223 331.87H207.473L266.152 273.245Z" fill="#FF4C61"/>
<path d="M224.79 273.245H198.54L139.861 331.87H166.112L224.79 273.245Z" fill="#FF4C61"/>
<path d="M307.293 273.245H281.042L222.474 331.87H248.615L307.293 273.245Z" fill="#FF4C61"/>
<path d="M345.566 317.214V291.097L304.756 331.87H330.896L345.566 317.214Z" fill="#FF4C61"/>
<path d="M345.566 275.89V273.245H322.073L263.395 331.87H289.535L345.566 275.89Z" fill="#FF4C61"/>
<path opacity="0.5" d="M345.566 273.245H107.434V279.306H345.566V273.245Z" fill="#FCFCFF"/>
<path d="M345.566 333.303H107.434C106.662 333.303 106 332.642 106 331.87V273.245C106 272.474 106.662 271.813 107.434 271.813H345.566C346.338 271.813 347 272.474 347 273.245V331.87C347 332.642 346.338 333.303 345.566 333.303ZM108.868 330.438H344.132V274.678H108.868V330.438Z" fill="#333333"/>
<path d="M119.566 389.834L107.434 402.066V410.882H116.588L137.545 389.834H119.566Z" fill="#FF4C61"/>
<path d="M168.097 389.834H150.119L129.052 410.882H147.03L168.097 389.834Z" fill="#FF4C61"/>
<path d="M197.768 389.834H179.789L158.833 410.882H176.811L197.768 389.834Z" fill="#FF4C61"/>
<path d="M228.209 389.834H210.231L189.274 410.882H207.253L228.209 389.834Z" fill="#FF4C61"/>
<path d="M260.637 389.834H242.659L221.702 410.882H239.681L260.637 389.834Z" fill="#FF4C61"/>
<path d="M291.079 389.834H273.101L252.144 410.882H270.123L291.079 389.834Z" fill="#FF4C61"/>
<path d="M322.624 389.834H304.645L283.689 410.882H301.667L322.624 389.834Z" fill="#FF4C61"/>
<path d="M345.566 397.438V389.834H335.088L314.131 410.882H332.11L345.566 397.438Z" fill="#FF4C61"/>
<path d="M345.566 412.314H107.434C106.662 412.314 106 411.653 106 410.882V389.944C106 389.173 106.662 388.512 107.434 388.512H345.566C346.338 388.512 347 389.173 347 389.944V410.882C347 411.653 346.338 412.314 345.566 412.314ZM108.868 409.449H344.132V391.377H108.868V409.449Z" fill="#333333"/>
<path d="M446.449 281.62H431.338V429.174H446.449V281.62Z" fill="#FCFCFF"/>
<path d="M438.839 262.336C434.206 262.336 430.566 266.082 430.566 270.6V281.51H447.221V270.6C447.221 266.082 443.471 262.336 438.839 262.336Z" fill="#737373"/>
<path d="M449.868 251.426C449.868 257.487 444.905 262.446 438.838 262.446C432.772 262.446 427.809 257.487 427.809 251.426C427.809 245.365 432.772 240.406 438.838 240.406C444.905 240.406 449.868 245.365 449.868 251.426Z" fill="#FF4C61"/>
<path opacity="0.5" d="M436.853 243.822C442.92 243.822 447.883 248.781 447.883 254.842C447.883 255.834 447.773 256.716 447.552 257.597C448.986 255.724 449.758 253.52 449.758 250.985C449.758 244.924 444.795 239.966 438.728 239.966C433.655 239.966 429.353 243.492 428.14 248.12C430.125 245.586 433.213 243.822 436.853 243.822Z" fill="#FCFCFF"/>
<path d="M442.919 251.426C442.919 253.63 441.155 255.503 438.838 255.503C436.632 255.503 434.757 253.74 434.757 251.426C434.757 249.222 436.522 247.349 438.838 247.349C441.155 247.349 442.919 249.112 442.919 251.426Z" fill="#FCFCFF"/>
<path d="M447.221 283.053H430.566C429.794 283.053 429.132 282.392 429.132 281.62V270.711C429.132 265.311 433.544 261.013 438.839 261.013C444.243 261.013 448.545 265.421 448.545 270.711V281.62C448.655 282.392 447.993 283.053 447.221 283.053ZM432 280.188H445.787V270.711C445.787 266.964 442.699 263.879 438.949 263.879C435.199 263.879 432.11 266.964 432.11 270.711V280.188H432Z" fill="#333333"/>
<path d="M438.839 263.768C432 263.768 426.485 258.258 426.485 251.426C426.485 244.594 432 238.974 438.839 238.974C445.677 238.974 451.302 244.594 451.302 251.426C451.302 258.258 445.787 263.768 438.839 263.768ZM438.839 241.839C433.544 241.839 429.243 246.137 429.243 251.426C429.243 256.716 433.544 261.013 438.839 261.013C444.133 261.013 448.435 256.716 448.435 251.426C448.435 246.137 444.133 241.839 438.839 241.839Z" fill="#333333"/>
<path d="M446.449 332.972H431.338V343.441H446.449V332.972Z" fill="#737373"/>
<path d="M446.449 431.158H431.339C430.567 431.158 429.905 430.497 429.905 429.726V273.245C429.905 272.474 430.567 271.813 431.339 271.813H446.449C447.221 271.813 447.883 272.474 447.883 273.245V429.726C447.883 430.607 447.221 431.158 446.449 431.158ZM432.773 428.293H445.016V274.678H432.773V428.293Z" fill="#333333"/>
<path d="M643.662 281.62H628.551V429.175H643.662V281.62Z" fill="#FCFCFF"/>
<path d="M636.161 262.336C631.528 262.336 627.889 266.083 627.889 270.601V281.51H644.544V270.601C644.433 266.083 640.683 262.336 636.161 262.336Z" fill="#737373"/>
<path d="M647.081 251.426C647.081 257.487 642.117 262.446 636.051 262.446C629.984 262.446 625.021 257.487 625.021 251.426C625.021 245.365 629.984 240.406 636.051 240.406C642.227 240.406 647.081 245.365 647.081 251.426Z" fill="#FF4C61"/>
<path opacity="0.5" d="M634.066 243.823C640.132 243.823 645.095 248.782 645.095 254.842C645.095 255.834 644.985 256.716 644.764 257.597C646.198 255.724 646.97 253.52 646.97 250.986C646.97 244.925 642.007 239.966 635.941 239.966C630.867 239.966 626.565 243.492 625.352 248.12C627.337 245.586 630.536 243.823 634.066 243.823Z" fill="#FCFCFF"/>
<path d="M640.132 251.426C640.132 253.63 638.367 255.504 636.051 255.504C633.845 255.504 631.97 253.741 631.97 251.426C631.97 249.222 633.734 247.349 636.051 247.349C638.367 247.349 640.132 249.112 640.132 251.426Z" fill="#FCFCFF"/>
<path d="M644.434 283.053H627.779C627.007 283.053 626.345 282.392 626.345 281.62V270.711C626.345 265.311 630.757 261.013 636.051 261.013C641.455 261.013 645.757 265.421 645.757 270.711V281.62C645.867 282.392 645.206 283.053 644.434 283.053ZM629.212 280.188H643V270.711C643 266.964 639.911 263.879 636.161 263.879C632.411 263.879 629.323 266.964 629.323 270.711V280.188H629.212Z" fill="#333333"/>
<path d="M636.161 263.768C629.322 263.768 623.697 258.148 623.697 251.316C623.697 244.484 629.322 238.864 636.161 238.864C642.999 238.864 648.624 244.484 648.624 251.316C648.514 258.259 642.999 263.768 636.161 263.768ZM636.161 241.839C630.867 241.839 626.565 246.137 626.565 251.426C626.565 256.716 630.867 261.013 636.161 261.013C641.455 261.013 645.757 256.716 645.757 251.426C645.646 246.137 641.345 241.839 636.161 241.839Z" fill="#333333"/>
<path d="M643.662 332.972H628.551V343.441H643.662V332.972Z" fill="#737373"/>
<path d="M643.661 431.158H628.551C627.778 431.158 627.117 430.497 627.117 429.726V273.245C627.117 272.474 627.778 271.813 628.551 271.813H643.661C644.433 271.813 645.095 272.474 645.095 273.245V429.726C645.095 430.607 644.433 431.158 643.661 431.158ZM629.984 428.293H642.227V274.678H629.984V428.293Z" fill="#333333"/>
<path d="M656.566 389.834H418.434V410.772H656.566V389.834Z" fill="#FCFCFF"/>
<path d="M653.809 273.245H421.191V331.87H653.809V273.245Z" fill="#FCFCFF"/>
<path d="M468.619 273.245L418.434 323.385V331.87H436.191L494.759 273.245H468.619Z" fill="#FF4C61"/>
<path d="M418.434 282.061V308.288L453.398 273.245H427.257L418.434 282.061Z" fill="#FF4C61"/>
<path d="M577.152 273.245H550.901L492.223 331.87H518.473L577.152 273.245Z" fill="#FF4C61"/>
<path d="M535.79 273.245H509.54L450.861 331.87H477.112L535.79 273.245Z" fill="#FF4C61"/>
<path d="M618.293 273.245H592.042L533.474 331.87H559.615L618.293 273.245Z" fill="#FF4C61"/>
<path d="M656.566 317.214V291.097L615.756 331.87H641.896L656.566 317.214Z" fill="#FF4C61"/>
<path d="M656.566 275.89V273.245H633.073L574.395 331.87H600.535L656.566 275.89Z" fill="#FF4C61"/>
<path opacity="0.5" d="M656.566 273.245H418.434V279.306H656.566V273.245Z" fill="#FCFCFF"/>
<path d="M656.566 333.303H418.434C417.662 333.303 417 332.642 417 331.87V273.245C417 272.474 417.662 271.813 418.434 271.813H656.566C657.338 271.813 658 272.474 658 273.245V331.87C658 332.642 657.338 333.303 656.566 333.303ZM419.868 330.438H655.132V274.678H419.868V330.438Z" fill="#333333"/>
<path d="M430.566 389.834L418.434 402.066V410.882H427.588L448.545 389.834H430.566Z" fill="#FF4C61"/>
<path d="M479.097 389.834H461.119L440.052 410.882H458.03L479.097 389.834Z" fill="#FF4C61"/>
<path d="M508.768 389.834H490.789L469.833 410.882H487.811L508.768 389.834Z" fill="#FF4C61"/>
<path d="M539.209 389.834H521.231L500.274 410.882H518.253L539.209 389.834Z" fill="#FF4C61"/>
<path d="M571.637 389.834H553.659L532.702 410.882H550.681L571.637 389.834Z" fill="#FF4C61"/>
<path d="M602.079 389.834H584.101L563.144 410.882H581.123L602.079 389.834Z" fill="#FF4C61"/>
<path d="M633.624 389.834H615.645L594.689 410.882H612.667L633.624 389.834Z" fill="#FF4C61"/>
<path d="M656.566 397.438V389.834H646.088L625.131 410.882H643.11L656.566 397.438Z" fill="#FF4C61"/>
<path d="M656.566 412.314H418.434C417.662 412.314 417 411.653 417 410.882V389.944C417 389.173 417.662 388.512 418.434 388.512H656.566C657.338 388.512 658 389.173 658 389.944V410.882C658 411.653 657.338 412.314 656.566 412.314ZM419.868 409.449H655.132V391.377H419.868V409.449Z" fill="#333333"/>
<path d="M691.065 431H2.93503C1.3341 431 0 430.077 0 429C0 427.923 1.3341 427 2.93503 427H691.065C692.666 427 694 427.923 694 429C694 430.231 692.666 431 691.065 431Z" fill="#333333"/>
<rect x="711" y="427" width="42" height="4" rx="2" fill="#333333"/>
</svg>
