<svg width="753" height="545" viewBox="0 0 753 545" fill="none" xmlns="http://www.w3.org/2000/svg">
<path d="M246.289 365.695H207.812V428H163.086V365.695H32.6172V330.344L163.086 141.672H207.812V327.609H246.289V365.695ZM163.086 327.609V255.93C163.086 230.409 163.737 209.51 165.039 193.234H163.477C159.831 201.828 154.102 212.245 146.289 224.484L75.3906 327.609H163.086ZM464.648 285.227C464.648 334.836 456.641 371.685 440.625 395.773C424.74 419.862 400.391 431.906 367.578 431.906C335.807 431.906 311.719 419.471 295.312 394.602C278.906 369.732 270.703 333.273 270.703 285.227C270.703 234.836 278.646 197.727 294.531 173.898C310.547 149.94 334.896 137.961 367.578 137.961C399.479 137.961 423.633 150.461 440.039 175.461C456.445 200.461 464.648 237.049 464.648 285.227ZM317.188 285.227C317.188 324.159 321.159 351.958 329.102 368.625C337.174 385.292 350 393.625 367.578 393.625C385.156 393.625 397.982 385.161 406.055 368.234C414.258 351.307 418.359 323.638 418.359 285.227C418.359 246.945 414.258 219.276 406.055 202.219C397.982 185.031 385.156 176.438 367.578 176.438C350 176.438 337.174 184.836 329.102 201.633C321.159 218.43 317.188 246.294 317.188 285.227ZM703.32 365.695H664.844V428H620.117V365.695H489.648V330.344L620.117 141.672H664.844V327.609H703.32V365.695ZM620.117 327.609V255.93C620.117 230.409 620.768 209.51 622.07 193.234H620.508C616.862 201.828 611.133 212.245 603.32 224.484L532.422 327.609H620.117Z" fill="#CCCCCC"/>
<path d="M691.065 431H2.93503C1.3341 431 0 430.077 0 429C0 427.923 1.3341 427 2.93503 427H691.065C692.666 427 694 427.923 694 429C694 430.231 692.666 431 691.065 431Z" fill="#333333"/>
<g clip-path="url(#clip0)">
<path d="M237.241 411.544L205.277 279.386H201.052H192.969H188.744L156.596 411.544H137.307V428.614H256.53V411.544H237.241Z" fill="#FF4C61"/>
<path d="M223.28 352.073H171.108L174.782 336.838H219.239L223.28 352.073Z" fill="#E5E5E8"/>
<path d="M228.056 369.327H163.209V384.561H228.056V369.327Z" fill="#E5E5E8"/>
<path opacity="0.5" d="M227.873 411.544L197.194 279.386H204.359L237.242 411.544H227.873Z" fill="#FCFCFF"/>
<path opacity="0.5" d="M255.612 411.543H136.388V419.987H255.612V411.543Z" fill="#FCFCFF"/>
<path d="M255.612 431H136.388C135.102 431 134 429.899 134 428.614V411.544C134 410.259 135.102 409.157 136.388 409.157H153.84L185.437 278.836C185.621 277.734 186.723 277 187.825 277H204.359C205.461 277 206.379 277.734 206.747 278.836L238.344 409.157H255.796C257.081 409.157 258.184 410.259 258.184 411.544V428.614C258 429.899 256.898 431 255.612 431ZM138.776 426.228H253.224V413.93H236.323C235.221 413.93 234.302 413.195 233.935 412.094L202.338 281.772H189.479L157.881 412.094C157.698 413.195 156.596 413.93 155.493 413.93H138.776V426.228Z" fill="#333333"/>
<path d="M206.196 413.93H156.596C155.31 413.93 154.207 412.828 154.207 411.543C154.207 410.259 155.31 409.157 156.596 409.157H206.012C207.298 409.157 208.4 410.259 208.4 411.543C208.584 412.828 207.481 413.93 206.196 413.93Z" fill="#333333"/>
<path d="M248.264 413.93H219.973C218.687 413.93 217.585 412.828 217.585 411.543C217.585 410.259 218.687 409.157 219.973 409.157H248.08C249.366 409.157 250.468 410.259 250.468 411.543C250.652 412.828 249.55 413.93 248.264 413.93Z" fill="#333333"/>
</g>
<g clip-path="url(#clip1)">
<path d="M456.241 411.544L424.277 279.386H420.052H411.969H407.744L375.596 411.544H356.307V428.614H475.53V411.544H456.241Z" fill="#FF4C61"/>
<path d="M442.28 352.073H390.108L393.782 336.838H438.239L442.28 352.073Z" fill="#E5E5E8"/>
<path d="M447.056 369.327H382.209V384.561H447.056V369.327Z" fill="#E5E5E8"/>
<path opacity="0.5" d="M446.873 411.544L416.194 279.386H423.359L456.242 411.544H446.873Z" fill="#FCFCFF"/>
<path opacity="0.5" d="M474.612 411.543H355.388V419.987H474.612V411.543Z" fill="#FCFCFF"/>
<path d="M474.612 431H355.388C354.102 431 353 429.899 353 428.614V411.544C353 410.259 354.102 409.157 355.388 409.157H372.84L404.437 278.836C404.621 277.734 405.723 277 406.825 277H423.359C424.461 277 425.379 277.734 425.747 278.836L457.344 409.157H474.796C476.081 409.157 477.184 410.259 477.184 411.544V428.614C477 429.899 475.898 431 474.612 431ZM357.776 426.228H472.224V413.93H455.323C454.221 413.93 453.302 413.195 452.935 412.094L421.338 281.772H408.479L376.881 412.094C376.698 413.195 375.596 413.93 374.493 413.93H357.776V426.228Z" fill="#333333"/>
<path d="M425.196 413.93H375.596C374.31 413.93 373.207 412.828 373.207 411.543C373.207 410.259 374.31 409.157 375.596 409.157H425.012C426.298 409.157 427.4 410.259 427.4 411.543C427.584 412.828 426.481 413.93 425.196 413.93Z" fill="#333333"/>
<path d="M467.264 413.93H438.973C437.687 413.93 436.585 412.828 436.585 411.543C436.585 410.259 437.687 409.157 438.973 409.157H467.08C468.366 409.157 469.468 410.259 469.468 411.543C469.652 412.828 468.55 413.93 467.264 413.93Z" fill="#333333"/>
</g>
<path d="M483.007 394.001L614.387 429.024L616.405 425.311L620.265 418.21L622.282 414.497L521.517 323.144L530.728 306.196L515.73 298.045L458.798 402.797L473.797 410.949L483.007 394.001Z" fill="#FF4C61"/>
<path d="M541.927 410.133L566.84 364.293L578.471 374.796L557.242 413.857L541.927 410.133Z" fill="#E5E5E8"/>
<path d="M524.486 406.09L555.452 349.114L542.066 341.839L511.101 398.815L524.486 406.09Z" fill="#E5E5E8"/>
<path opacity="0.5" d="M487.481 385.769L618.247 421.922L614.826 428.217L483.007 394.001L487.481 385.769Z" fill="#FCFCFF"/>
<path opacity="0.5" d="M474.235 410.142L531.167 305.389L523.748 301.357L466.817 406.11L474.235 410.142Z" fill="#FCFCFF"/>
<path d="M457.14 400.851L514.072 296.098C514.686 294.968 516.18 294.526 517.309 295.139L532.307 303.291C533.436 303.904 533.877 305.399 533.263 306.528L524.93 321.862L624.345 411.855C625.225 412.542 625.344 413.861 624.818 414.83L616.923 429.356C616.396 430.325 615.313 430.781 614.17 430.578L484.578 396.109L476.244 411.443C475.63 412.572 474.136 413.015 473.007 412.401L458.009 404.25C456.968 403.475 456.526 401.981 457.14 400.851ZM517.124 300.475L462.474 401.031L473.279 406.904L481.35 392.055C481.876 391.086 482.96 390.63 484.103 390.833L613.694 425.302L619.835 414.003L520.419 324.011C519.54 323.323 519.421 322.004 519.947 321.036L527.93 306.348L517.124 300.475Z" fill="#333333"/>
<path d="M495.736 365.584L519.421 322.004C520.035 320.874 521.529 320.432 522.658 321.045C523.787 321.659 524.228 323.153 523.614 324.283L500.017 367.701C499.403 368.831 497.909 369.274 496.78 368.66C495.563 368.208 495.122 366.714 495.736 365.584Z" fill="#333333"/>
<path d="M475.648 402.546L489.157 377.69C489.771 376.56 491.265 376.117 492.394 376.731C493.523 377.344 493.964 378.839 493.35 379.968L479.928 404.664C479.314 405.793 477.82 406.236 476.692 405.622C475.475 405.17 475.034 403.676 475.648 402.546Z" fill="#333333"/>
<rect x="711" y="427" width="42" height="4" rx="2" fill="#333333"/>
<defs>
<clipPath id="clip0">
<rect width="124" height="154" fill="white" transform="translate(134 277)"/>
</clipPath>
<clipPath id="clip1">
<rect width="124" height="154" fill="white" transform="translate(353 277)"/>
</clipPath>
</defs>
</svg>
