<svg width="40" height="40" viewBox="0 0 40 40" fill="none" xmlns="http://www.w3.org/2000/svg">
<path d="M36.5059 29.2823V34.4804C36.5059 35.0002 36.3313 35.5201 36.1566 35.8666C35.9819 36.3864 35.6326 36.7329 35.2832 37.0795C34.9339 37.426 34.5845 37.5993 34.0605 37.7726C33.5365 37.9458 33.1871 37.9458 32.6631 37.9458C27.2483 37.426 22.1828 35.52 17.6413 32.5744C13.4492 29.9754 9.78103 26.3367 7.16094 22.1782C4.19151 17.6731 2.27011 12.6482 1.74609 7.27681C1.74609 6.757 1.74609 6.23719 1.92077 5.89064C2.09544 5.37083 2.27011 5.02429 2.61946 4.67774C2.9688 4.3312 3.31815 3.98466 3.84216 3.81139C4.19151 3.63812 4.71553 3.46484 5.23954 3.46484H10.4797C11.3531 3.46484 12.2264 3.81139 12.7505 4.3312C13.4492 4.85101 13.7985 5.5441 13.9732 6.41046C14.1478 8.14317 14.6719 9.70261 15.1959 11.2621C15.3705 11.9551 15.5452 12.475 15.3705 13.168C15.1959 13.8611 14.8465 14.5542 14.3225 14.9008L12.2264 17.1533C14.6719 21.4851 18.34 25.1238 22.7068 27.5496L24.9775 25.297C25.5016 24.7772 26.0256 24.4307 26.7243 24.4307C27.423 24.2574 28.1216 24.2574 28.6457 24.6039C30.2177 25.1238 31.7898 25.6436 33.5365 25.8168C34.4099 25.9901 35.1085 26.3367 35.6326 27.0298C36.1566 27.7228 36.5059 28.4159 36.5059 29.2823Z" stroke="#007CC3" stroke-width="2" stroke-linecap="round" stroke-linejoin="round"/>
<path d="M20.4883 6.87109V21.2912L24.0938 17.662H34.0736C35.7305 17.662 37.0736 16.3189 37.0736 14.662V6.87109C37.0736 5.21424 35.7305 3.87109 34.0736 3.87109H23.4883C21.8314 3.87109 20.4883 5.21424 20.4883 6.87109Z" stroke="#007CC3" stroke-width="2" stroke-linecap="round" stroke-linejoin="round"/>
<ellipse cx="25.3662" cy="12.5811" rx="0.97561" ry="0.967784" fill="#007CC3"/>
<ellipse cx="29.2686" cy="12.5811" rx="0.97561" ry="0.967784" fill="#007CC3"/>
<ellipse cx="33.1709" cy="12.5811" rx="0.975611" ry="0.967784" fill="#007CC3"/>
</svg>
