<svg width="40" height="40" viewBox="0 0 40 40" fill="none" xmlns="http://www.w3.org/2000/svg">
<circle cx="20" cy="20" r="19.5" fill="#FCFCFF" stroke="#737373"/>
<path d="M27.9643 25.4167H26.2976V23.75C26.2976 23.6584 26.2226 23.5834 26.1309 23.5834H25.1309C25.0393 23.5834 24.9643 23.6584 24.9643 23.75V25.4167H23.2976C23.2059 25.4167 23.1309 25.4917 23.1309 25.5834V26.5834C23.1309 26.675 23.2059 26.75 23.2976 26.75H24.9643V28.4167C24.9643 28.5084 25.0393 28.5834 25.1309 28.5834H26.1309C26.2226 28.5834 26.2976 28.5084 26.2976 28.4167V26.75H27.9643C28.0559 26.75 28.1309 26.675 28.1309 26.5834V25.5834C28.1309 25.4917 28.0559 25.4167 27.9643 25.4167ZM17.1622 19.7167C17.1434 19.5355 17.133 19.3521 17.133 19.1667C17.133 18.8355 17.1643 18.5126 17.2226 18.198C17.2372 18.123 17.1976 18.0459 17.1289 18.0146C16.8455 17.8876 16.5851 17.7126 16.3601 17.4917C16.095 17.2346 15.8864 16.9251 15.7475 16.5829C15.6087 16.2407 15.5428 15.8733 15.5539 15.5042C15.5726 14.8355 15.8414 14.2001 16.3101 13.7209C16.8247 13.1938 17.5164 12.9063 18.2518 12.9146C18.9164 12.9209 19.558 13.1771 20.0434 13.6313C20.208 13.7855 20.3497 13.9563 20.4684 14.1396C20.5101 14.2042 20.5914 14.2313 20.6622 14.2063C21.0289 14.0792 21.4164 13.9896 21.8143 13.948C21.9309 13.9355 21.9976 13.8105 21.9455 13.7063C21.2684 12.3667 19.8851 11.4417 18.2851 11.4167C15.9768 11.3813 14.0518 13.2751 14.0518 15.5834C14.0518 16.8917 14.6539 18.0584 15.5976 18.823C14.9351 19.1292 14.3247 19.5521 13.7955 20.0813C12.6539 21.2209 12.008 22.725 11.9664 24.3313C11.9658 24.3535 11.9697 24.3757 11.9778 24.3964C11.986 24.4171 11.9981 24.4359 12.0137 24.4519C12.0292 24.4678 12.0478 24.4804 12.0683 24.4891C12.0888 24.4977 12.1108 24.5021 12.133 24.5021H13.3018C13.3914 24.5021 13.4664 24.4313 13.4684 24.3417C13.508 23.1334 13.9976 22.0021 14.858 21.1438C15.4705 20.5313 16.2205 20.1063 17.0393 19.9001C17.1184 19.8771 17.1726 19.8001 17.1622 19.7167ZM26.5476 19.1667C26.5476 16.8876 24.7164 15.0355 22.4455 15.0001C20.1372 14.9646 18.2143 16.8584 18.2143 19.1667C18.2143 20.475 18.8184 21.6417 19.7601 22.4063C19.0907 22.7166 18.4814 23.1426 17.9601 23.6646C16.8184 24.8042 16.1726 26.3084 16.1309 27.9125C16.1304 27.9348 16.1343 27.9569 16.1424 27.9776C16.1505 27.9983 16.1627 28.0172 16.1783 28.0331C16.1938 28.049 16.2124 28.0617 16.2329 28.0703C16.2533 28.0789 16.2754 28.0834 16.2976 28.0834H17.4643C17.5539 28.0834 17.6289 28.0125 17.6309 27.923C17.6705 26.7146 18.1601 25.5834 19.0205 24.725C19.9184 23.8271 21.1101 23.3334 22.3809 23.3334C24.6809 23.3334 26.5476 21.4688 26.5476 19.1667ZM24.2664 21.0521C23.7622 21.5563 23.0934 21.8334 22.3809 21.8334C21.6684 21.8334 20.9997 21.5563 20.4955 21.0521C20.2439 20.8019 20.0452 20.5036 19.911 20.1751C19.7768 19.8466 19.7099 19.4945 19.7143 19.1396C19.7205 18.4563 19.9934 17.7959 20.4705 17.3063C20.9705 16.7938 21.6393 16.5084 22.3539 16.5001C23.0601 16.4938 23.7455 16.7688 24.2497 17.2626C24.7664 17.7688 25.0497 18.4459 25.0497 19.1667C25.0476 19.8792 24.7705 20.548 24.2664 21.0521Z" fill="#737373"/>
</svg>
