<svg width="80" height="80" viewBox="0 0 80 80" fill="none" xmlns="http://www.w3.org/2000/svg">
<g clip-path="url(#clip0)">
<path d="M55.3458 16.038C55.3458 21.6836 52.1239 26.6235 47.3897 29.1255C45.2199 30.2803 42.6555 30.986 40.0254 30.986C37.3953 30.986 34.831 30.3444 32.6611 29.1255C27.927 26.5593 24.7051 21.6836 24.7051 16.038C24.7051 7.76206 31.5434 1.09 40.0254 1.09C48.5075 1.09 55.3458 7.76206 55.3458 16.038Z" stroke="#CCCCCC" stroke-width="2" stroke-miterlimit="10"/>
<path d="M58.6978 35.4768C51.202 36.8241 44.5609 40.6092 39.6295 45.934C34.8295 40.8016 28.4515 37.0807 21.2188 35.6693C24.3749 32.654 28.2543 30.4086 32.6597 29.2538C34.8295 30.4086 37.3939 31.1143 40.024 31.1143C42.6541 31.1143 45.2185 30.4728 47.3883 29.2538C51.6622 30.3445 55.5416 32.5257 58.6978 35.4768Z" stroke="#CCCCCC" stroke-width="2" stroke-miterlimit="10"/>
<path d="M69.614 49.3983V55.3647C69.614 57.9308 71.7181 59.9838 74.3482 59.9838V70.056C71.3893 69.222 68.2332 68.773 65.0113 68.773C64.2881 68.773 63.499 68.773 62.7758 68.8371C57.4498 69.1579 52.4526 70.6976 48.1129 73.1355C44.9568 74.8676 42.0637 77.113 39.6308 79.7434C37.198 77.113 34.3706 74.8676 31.1487 73.1355C27.0063 70.8259 22.3379 69.3503 17.3407 68.9013C16.2886 68.8371 15.3024 68.773 14.2503 68.773C11.2914 68.773 8.39833 69.1579 5.63672 69.8636V59.9838C5.70247 59.9838 5.76822 59.9838 5.83398 59.9838C8.46408 59.9838 10.5682 57.9308 10.5682 55.3647V49.3983C10.5682 48.1152 10.0421 46.9604 9.18736 46.1264C8.33258 45.2924 7.14903 44.7792 5.83398 44.7792C5.76822 44.7792 5.70247 44.7792 5.63672 44.7792V35.99C8.39833 35.2843 11.2914 34.8994 14.2503 34.8994C16.6174 34.8994 18.9845 35.156 21.2201 35.6051C28.4529 37.0806 34.8309 40.7375 39.6308 45.8698C44.5623 40.545 51.2033 36.824 58.6991 35.4126C60.7374 35.0277 62.8415 34.8352 65.0113 34.8352C68.2332 34.8352 71.3893 35.2843 74.3482 36.1183V44.7792C71.7181 44.8433 69.614 46.8963 69.614 49.3983Z" stroke="#CCCCCC" stroke-width="2" stroke-miterlimit="10"/>
<path d="M10.5003 49.3983V55.3647C10.5003 57.9308 8.3962 59.9838 5.76609 59.9838C5.70034 59.9838 5.63459 59.9838 5.56884 59.9838C3.07024 59.8555 1.09766 57.8667 1.09766 55.3647V49.3983C1.09766 46.8963 3.07024 44.9075 5.56884 44.7792C5.63459 44.7792 5.70034 44.7792 5.76609 44.7792C7.08115 44.7792 8.26469 45.2924 9.11948 46.1264C9.97426 46.9604 10.5003 48.1152 10.5003 49.3983Z" stroke="#CCCCCC" stroke-width="2" stroke-miterlimit="10"/>
<path d="M79.0153 49.3983V55.3647C79.0153 57.9308 76.9112 59.9838 74.2811 59.9838C71.651 59.9838 69.5469 57.9308 69.5469 55.3647V49.3983C69.5469 46.8321 71.651 44.7792 74.2811 44.7792C75.5961 44.7792 76.7797 45.2924 77.6345 46.1264C78.4892 46.9604 79.0153 48.1152 79.0153 49.3983Z" stroke="#CCCCCC" stroke-width="2" stroke-miterlimit="10"/>
<path d="M39.5645 45.934V80" stroke="#CCCCCC" stroke-width="2" stroke-miterlimit="10"/>
</g>
<defs>
<clipPath id="clip0">
<rect width="80" height="80" fill="white"/>
</clipPath>
</defs>
</svg>
