<svg width="24" height="24" viewBox="0 0 24 24" fill="none" xmlns="http://www.w3.org/2000/svg">
<path d="M19 17.4774V20.191C19 20.4623 18.9096 20.7337 18.8191 20.9146C18.7286 21.1859 18.5477 21.3668 18.3668 21.5477C18.1859 21.7286 18.005 21.8191 17.7337 21.9095C17.4623 22 17.2814 22 17.0101 22C14.206 21.7286 11.5829 20.7337 9.23116 19.196C7.0603 17.8392 5.1608 15.9397 3.80402 13.7688C2.26633 11.4171 1.27136 8.79397 1 5.98995C1 5.71859 1 5.44724 1.09045 5.26633C1.1809 4.99498 1.27136 4.81407 1.45226 4.63317C1.63317 4.45226 1.81407 4.27136 2.08543 4.1809C2.26633 4.09045 2.53769 4 2.80905 4H5.52261C5.97488 4 6.42714 4.1809 6.69849 4.45226C7.0603 4.72362 7.24121 5.08543 7.33166 5.53769C7.42211 6.44221 7.69347 7.25628 7.96482 8.07035C8.05528 8.43216 8.14573 8.70352 8.05528 9.06533C7.96483 9.42714 7.78392 9.78895 7.51256 9.96985L6.42714 11.1457C7.69347 13.407 9.59297 15.3065 11.8543 16.5729L13.0302 15.397C13.3015 15.1256 13.5729 14.9447 13.9347 14.9447C14.2965 14.8543 14.6583 14.8543 14.9296 15.0352C15.7437 15.3065 16.5578 15.5779 17.4623 15.6683C17.9146 15.7588 18.2764 15.9397 18.5477 16.3015C18.8191 16.6633 19 17.0251 19 17.4774Z" stroke="#737373" stroke-linecap="round" stroke-linejoin="round"/>
<path d="M14.2 9.64706L13 12L18.4 9.64706H19.1765C20.7359 9.64706 22 8.38292 22 6.82353C22 5.26414 20.7359 4 19.1765 4H12.8235C11.2641 4 10 5.26414 10 6.82353C10 8.38292 11.2641 9.64706 12.8235 9.64706H14.2Z" stroke="#737373" stroke-linejoin="round"/>
</svg>
