<svg width="30" height="30" viewBox="0 0 39 40" fill="none" xmlns="http://www.w3.org/2000/svg">
<g clip-path="url(clip0)">
<path d="M35.926 28.7818V33.891C35.926 34.4019 35.7557 34.9128 35.5854 35.2534C35.4151 35.7643 35.0745 36.1049 34.7338 36.4456C34.3932 36.7862 34.0526 36.9565 33.5417 37.1268C33.0308 37.2971 32.6902 37.2971 32.1793 37.2971C26.8998 36.7862 21.9609 34.9128 17.533 32.0176C13.4456 29.463 9.86922 25.8866 7.31463 21.7993C4.41944 17.3713 2.54607 12.4325 2.03516 7.15297C2.03516 6.64206 2.03516 6.13114 2.20546 5.79053C2.37577 5.27961 2.54607 4.939 2.88668 4.59839C3.2273 4.25778 3.56791 3.91717 4.07882 3.74686C4.41944 3.57656 4.93035 3.40625 5.44127 3.40625H10.5504C11.402 3.40625 12.2535 3.74686 12.7644 4.25778C13.4456 4.7687 13.7862 5.44992 13.9566 6.30145C14.1269 8.0045 14.6378 9.53726 15.1487 11.07C15.319 11.7512 15.4893 12.2621 15.319 12.9434C15.1487 13.6246 14.8081 14.3058 14.2972 14.6464L12.2535 16.8604C14.6378 21.118 18.2142 24.6945 22.4718 27.0787L24.6858 24.8648C25.1967 24.3539 25.7076 24.0132 26.3889 24.0132C27.0701 23.8429 27.7513 23.8429 28.2622 24.1835C29.795 24.6945 31.3277 25.2054 33.0308 25.3757C33.8823 25.546 34.5635 25.8866 35.0745 26.5678C35.5854 27.249 35.926 27.9303 35.926 28.7818Z" stroke="#737373" stroke-width="2" stroke-linecap="round" stroke-linejoin="round"/>
</g>
<defs>
<clipPath id="clip0">
<rect width="38.6667" height="40" fill="white"/>
</clipPath>
</defs>
</svg>
