<svg width="20" height="20" viewBox="0 0 20 20" fill="none" xmlns="http://www.w3.org/2000/svg">
<path d="M11.2584 5.0622C11.9761 5.21531 12.622 5.59809 13.1244 6.13397C13.6268 6.66986 13.9856 7.35885 14.1292 8.1244M11.2584 2C12.6938 2.15311 14.0574 2.84211 15.134 3.99043C16.1388 5.0622 16.8565 6.51675 17 8.1244M16.2823 14.1722V16.4689C16.2823 16.6986 16.2105 16.9282 16.1388 17.0813C16.067 17.311 15.9234 17.4641 15.7799 17.6172C15.6364 17.7703 15.4928 17.8469 15.2775 17.9234C15.0622 18 14.9187 18 14.7033 18C12.4785 17.7703 10.3971 16.9282 8.5311 15.6268C6.80861 14.4785 5.30144 12.8708 4.22488 11.0335C3.00478 9.04306 2.21531 6.82297 2 4.44976C2 4.2201 2 3.99043 2.07177 3.83732C2.14354 3.60766 2.21531 3.45455 2.35885 3.30144C2.50239 3.14833 2.64593 2.99522 2.86124 2.91866C3.00478 2.84211 3.2201 2.76555 3.43541 2.76555H5.58852C5.94737 2.76555 6.30622 2.91866 6.52153 3.14833C6.80861 3.37799 6.95215 3.68421 7.02392 4.06699C7.09569 4.83254 7.311 5.52153 7.52632 6.21053C7.59809 6.51675 7.66986 6.74641 7.59809 7.05263C7.52632 7.35885 7.38277 7.66507 7.16746 7.81818L6.30622 8.8134C7.311 10.7273 8.81818 12.3349 10.6124 13.4067L11.5455 12.4115C11.7608 12.1818 11.9761 12.0287 12.2632 12.0287C12.5502 11.9522 12.8373 11.9522 13.0526 12.1053C13.6986 12.3349 14.3445 12.5646 15.0622 12.6411C15.4211 12.7177 15.7081 12.8708 15.9234 13.177C16.1388 13.4833 16.2823 13.7895 16.2823 14.1722Z" stroke="#737373" stroke-linecap="round" stroke-linejoin="round"/>
</svg>
