<svg width="49" height="49" viewBox="0 0 49 49" fill="none" xmlns="http://www.w3.org/2000/svg">
<path d="M46.9463 37.6234L37.4084 31.2623C36.198 30.4615 34.5755 30.725 33.6807 31.8677L30.9024 35.4402C30.5453 35.911 29.8963 36.0476 29.3797 35.7606L28.8513 35.4693C27.0993 34.5143 24.9194 33.3253 20.5274 28.9314C16.1354 24.5375 14.9441 22.3558 13.9892 20.607L13.6994 20.0784C13.4085 19.562 13.5425 18.9101 14.0135 18.5502L17.5833 15.7725C18.7255 14.8775 18.9893 13.2554 18.1895 12.0445L11.8288 2.50594C11.0092 1.27291 9.36471 0.902765 8.09579 1.66561L4.10738 4.06162C2.85419 4.79842 1.93478 5.99169 1.54193 7.39138C0.105712 12.6248 1.18617 21.6569 14.4903 34.9635C25.0734 45.5465 32.952 48.3926 38.3673 48.3926C39.6136 48.3979 40.855 48.2357 42.0581 47.9104C43.458 47.518 44.6513 46.5984 45.3876 45.3448L47.7858 41.3585C48.5497 40.0892 48.1798 38.4436 46.9463 37.6234ZM46.4327 40.5527L44.04 44.5414C43.5113 45.4462 42.653 46.1115 41.6449 46.3979C36.8139 47.7243 28.3738 46.6257 15.6014 33.8523C2.82889 21.0789 1.7304 12.639 3.05674 7.8069C3.34348 6.79751 4.00955 5.93803 4.91544 5.40849L8.90385 3.0156C9.45443 2.68429 10.1682 2.84489 10.5238 3.37995L13.9791 8.56781L16.8791 12.9177C17.2264 13.4429 17.1123 14.1469 16.6168 14.5355L13.0462 17.3132C11.9596 18.1441 11.6493 19.6476 12.3183 20.8409L12.6018 21.3561C13.6055 23.1969 14.8532 25.4869 19.4086 30.0419C23.9639 34.5967 26.253 35.8447 28.0929 36.8482L28.6088 37.1325C29.8019 37.8015 31.3054 37.4913 32.1362 36.4046L34.9137 32.8337C35.3024 32.3385 36.006 32.2244 36.5314 32.5714L46.0685 38.9326C46.6039 39.288 46.7645 40.0021 46.4327 40.5527Z" fill="#FCFCFF" stroke="#FCFCFF"/>
<path d="M27.7623 9.12626C35.1317 9.13446 41.1037 15.107 41.1119 22.4769C41.1119 22.9107 41.4635 23.2622 41.8972 23.2622C42.3309 23.2622 42.6824 22.9107 42.6824 22.4769C42.6733 14.2399 35.9987 7.56468 27.7623 7.55566C27.3286 7.55566 26.9771 7.90722 26.9771 8.34096C26.9771 8.77471 27.3286 9.12626 27.7623 9.12626Z" fill="#FCFCFF" stroke="#FCFCFF"/>
<path d="M27.7623 13.8383C32.5306 13.8439 36.3947 17.7083 36.4003 22.477C36.4003 22.9107 36.7519 23.2623 37.1855 23.2623C37.6193 23.2623 37.9708 22.9107 37.9708 22.477C37.9642 16.8412 33.3976 12.2741 27.7623 12.2677C27.3286 12.2677 26.9771 12.6193 26.9771 13.053C26.9771 13.4867 27.3286 13.8383 27.7623 13.8383Z" fill="#FCFCFF" stroke="#FCFCFF"/>
<path d="M27.7623 18.5502C29.9296 18.5528 31.686 20.3093 31.6887 22.4769C31.6887 22.9107 32.0403 23.2623 32.4739 23.2623C32.9075 23.2623 33.2592 22.9107 33.2592 22.4769C33.2557 19.4423 30.7967 16.983 27.7623 16.9796C27.3286 16.9796 26.9771 17.3312 26.9771 17.7649C26.9771 18.1987 27.3286 18.5502 27.7623 18.5502Z" fill="#FCFCFF" stroke="#FCFCFF"/>
</svg>
