<svg width="40" height="40" viewBox="0 0 40 40" fill="none" xmlns="http://www.w3.org/2000/svg">
<circle cx="20" cy="20" r="20" fill="#FF4C61"/>
<g clip-path="url(#clip0)">
<path d="M13.9475 20.72C12.4505 18.4116 11.5158 15.7842 11.2186 13.0489C11.1964 12.8031 11.2256 12.5554 11.3044 12.3215C11.3832 12.0876 11.5098 11.8726 11.6762 11.6904C11.8426 11.5081 12.0451 11.3624 12.2709 11.2627C12.4967 11.163 12.7407 11.1114 12.9875 11.1111H15.6542C16.0856 11.1069 16.5038 11.2597 16.8309 11.5409C17.158 11.8222 17.3716 12.2129 17.432 12.64C17.5445 13.4934 17.7533 14.3313 18.0542 15.1378C18.1738 15.456 18.1997 15.8017 18.1288 16.1341C18.0579 16.4666 17.8932 16.7717 17.6542 17.0134L16.5253 18.1422M18.8275 21.1645C19.7296 22.0674 20.7491 22.8447 21.8586 23.4756L22.9875 22.3467C23.2292 22.1077 23.5343 21.943 23.8667 21.8721C24.1992 21.8012 24.5449 21.8271 24.8631 21.9467C25.6696 22.2476 26.5075 22.4564 27.3609 22.5689C27.788 22.6293 28.1787 22.8429 28.4599 23.17C28.7412 23.4971 28.894 23.9153 28.8898 24.3467V27.0134C28.8908 27.2609 28.84 27.506 28.7409 27.7328C28.6417 27.9596 28.4962 28.1632 28.3138 28.3306C28.1314 28.4979 27.916 28.6253 27.6815 28.7047C27.447 28.784 27.1985 28.8134 26.952 28.7911C24.2167 28.4939 21.5893 27.5593 19.2809 26.0622C18.21 25.3823 17.2173 24.5864 16.3209 23.6889L18.8275 21.1645Z" stroke="#FCFCFF" stroke-width="2" stroke-linecap="round" stroke-linejoin="round"/>
<path d="M29.7787 10.2222L10.2231 29.7778" stroke="#FCFCFF" stroke-width="2" stroke-linecap="round" stroke-linejoin="round"/>
</g>
<defs>
<clipPath id="clip0">
<rect width="21.3333" height="21.3333" fill="white" transform="translate(9.33398 9.33334)"/>
</clipPath>
</defs>
</svg>
