<svg width="40" height="40" viewBox="0 0 40 40" fill="none" xmlns="http://www.w3.org/2000/svg">
<circle cx="20" cy="20" r="19.5" fill="#FCFCFF" stroke="#737373"/>
<g clip-path="url(#clip0)">
<path d="M27.4447 17.2222V11.8888H22.1113" stroke="#737373" stroke-width="2" stroke-linecap="round" stroke-linejoin="round"/>
<path d="M21.2222 18.111L27.4444 11.8888" stroke="#737373" stroke-width="2" stroke-linecap="round" stroke-linejoin="round"/>
<path d="M26.5558 26.04V28.7067C26.5568 28.9542 26.5061 29.1993 26.4069 29.4261C26.3077 29.6529 26.1623 29.8565 25.9798 30.0239C25.7974 30.1912 25.5821 30.3186 25.3475 30.398C25.113 30.4773 24.8645 30.5067 24.618 30.4844C21.8827 30.1872 19.2553 29.2526 16.9469 27.7555C14.7992 26.3908 12.9783 24.5699 11.6135 22.4222C10.1113 20.1033 9.17643 17.4631 8.88466 14.7155C8.86244 14.4697 8.89166 14.222 8.97043 13.9881C9.04921 13.7542 9.17583 13.5393 9.34223 13.357C9.50862 13.1747 9.71115 13.0291 9.93691 12.9293C10.1627 12.8296 10.4067 12.778 10.6535 12.7778H13.3202C13.7516 12.7735 14.1698 12.9263 14.4969 13.2076C14.824 13.4889 15.0376 13.8795 15.098 14.3067C15.2105 15.16 15.4193 15.998 15.7202 16.8044C15.8398 17.1226 15.8657 17.4684 15.7948 17.8008C15.7239 18.1332 15.5592 18.4383 15.3202 18.68L14.1913 19.8089C15.4567 22.0343 17.2993 23.8768 19.5247 25.1422L20.6535 24.0133C20.8952 23.7743 21.2003 23.6096 21.5328 23.5387C21.8652 23.4678 22.2109 23.4937 22.5291 23.6133C23.3356 23.9143 24.1735 24.123 25.0269 24.2355C25.4587 24.2965 25.853 24.5139 26.1349 24.8467C26.4168 25.1794 26.5666 25.6041 26.5558 26.04Z" stroke="#737373" stroke-width="2" stroke-linecap="round" stroke-linejoin="round"/>
</g>
<defs>
<clipPath id="clip0">
<rect width="21.3333" height="21.3333" fill="white" transform="translate(7 11)"/>
</clipPath>
</defs>
</svg>
