<svg width="40" height="40" viewBox="0 0 40 40" fill="none" xmlns="http://www.w3.org/2000/svg">
<path d="M38.0007 12.3211V2H27.6602" stroke="#007CC3" stroke-width="2" stroke-linecap="round" stroke-linejoin="round"/>
<path d="M24.0762 15.342L36.1401 3.30078" stroke="#007CC3" stroke-width="2" stroke-linecap="round" stroke-linejoin="round"/>
<path d="M36.2756 29.3859V34.5464C36.2776 35.0255 36.1792 35.4997 35.987 35.9386C35.7947 36.3776 35.5127 36.7716 35.159 37.0955C34.8053 37.4194 34.3877 37.6659 33.9331 37.8194C33.4784 37.9729 32.9966 38.0299 32.5186 37.9868C27.2153 37.4116 22.1212 35.6029 17.6454 32.7058C13.4813 30.0648 9.95093 26.541 7.30489 22.3848C4.39227 17.8972 2.57969 12.7879 2.01399 7.47085C1.97092 6.99517 2.02756 6.51574 2.1803 6.0631C2.33304 5.61046 2.57853 5.19453 2.90115 4.84177C3.22376 4.48902 3.61643 4.20718 4.05416 4.0142C4.49189 3.82122 4.96507 3.72132 5.4436 3.72087H10.6139C11.4503 3.71265 12.2611 4.00827 12.8953 4.55263C13.5294 5.09699 13.9436 5.85294 14.0607 6.67957C14.2789 8.33106 14.6836 9.9526 15.2671 11.5133C15.499 12.129 15.5492 12.7981 15.4117 13.4414C15.2743 14.0847 14.9549 14.6751 14.4916 15.1428L12.3028 17.3275C14.7562 21.634 18.3287 25.1997 22.6434 27.6485L24.8321 25.4639C25.3007 25.0014 25.8923 24.6827 26.5368 24.5455C27.1813 24.4083 27.8517 24.4584 28.4685 24.6898C30.0321 25.2722 31.6567 25.6761 33.3113 25.8939C34.1485 26.0118 34.9131 26.4327 35.4596 27.0765C36.0062 27.7204 36.2966 28.5423 36.2756 29.3859Z" stroke="#007CC3" stroke-width="2" stroke-linecap="round" stroke-linejoin="round"/>
</svg>
