<svg width="20" height="20" viewBox="0 0 20 20" fill="none" xmlns="http://www.w3.org/2000/svg">
<g clip-path="url(clip0)">
<path d="M15.7472 5.14307C15.7472 5.74411 15.3061 6.10964 14.984 6.37788C14.8621 6.47948 14.635 6.66487 14.6356 6.73412C14.6378 7.00575 14.4177 7.22268 14.1438 7.22268C14.1424 7.22268 14.141 7.22268 14.1396 7.22268C13.8677 7.22268 13.6461 7.01242 13.6439 6.74215C13.6395 6.20944 14.0314 5.89042 14.3464 5.62813C14.5935 5.4223 14.7555 5.27747 14.7555 5.14493C14.7555 4.87663 14.5354 4.65834 14.265 4.65834C13.9944 4.65834 13.7743 4.87663 13.7743 5.14493C13.7743 5.41662 13.5523 5.63682 13.2784 5.63682C13.0045 5.63682 12.7826 5.41662 12.7826 5.14493C12.7826 4.33419 13.4475 3.67456 14.2649 3.67456C15.0823 3.67451 15.7472 4.33227 15.7472 5.14307ZM14.1534 7.67674C13.8795 7.67674 13.6685 7.89695 13.6685 8.16864V8.17241C13.6685 8.44409 13.8795 8.66244 14.1534 8.66244C14.4272 8.66244 14.6492 8.44032 14.6492 8.16864C14.6492 7.89695 14.4272 7.67674 14.1534 7.67674ZM4.15837 11.1032C3.88449 11.1032 3.6625 11.3234 3.6625 11.5951C3.6625 11.8668 3.88449 12.087 4.15837 12.087H4.19969C4.47358 12.087 4.69556 11.8668 4.69556 11.5951C4.69556 11.3234 4.47358 11.1032 4.19969 11.1032H4.15837ZM5.88173 11.1032C5.60785 11.1032 5.38586 11.3234 5.38586 11.5951C5.38586 11.8668 5.60785 12.087 5.88173 12.087H5.923C6.19688 12.087 6.41887 11.8668 6.41887 11.5951C6.41887 11.3234 6.19688 11.1032 5.923 11.1032H5.88173ZM20.4453 3.24667V8.78322C20.4453 10.0941 19.3857 11.1579 18.0642 11.1579H11.6335C11.5078 11.1579 11.4043 11.1571 11.3177 11.1553C11.2269 11.1535 11.1248 11.1528 11.0849 11.1571C11.0434 11.1845 10.9417 11.2769 10.8437 11.3665C10.8049 11.4019 10.7609 11.441 10.7135 11.4839L8.89407 13.1289C8.74895 13.2602 8.53424 13.2942 8.35451 13.2156C8.17479 13.137 8.04862 12.9605 8.04862 12.7656V7.55066H2.85413C2.07936 7.55066 1.43705 8.18044 1.43705 8.94888V14.4854C1.43705 15.2539 2.07942 15.8581 2.85413 15.8581H10.0373C10.161 15.8581 10.2767 15.9145 10.368 15.9972L11.8503 17.3529V12.6778C11.8503 12.4061 12.0723 12.1859 12.3461 12.1859C12.62 12.1859 12.842 12.4061 12.842 12.6778V18.4678C12.842 18.6626 12.7296 18.8365 12.5498 18.9152C12.4855 18.9433 12.421 18.9544 12.3534 18.9544C12.2319 18.9544 12.1121 18.905 12.019 18.8206L9.84504 16.8419H2.85413C1.53259 16.8419 0.445312 15.7963 0.445312 14.4854V8.94888C0.445312 7.63799 1.53259 6.56688 2.85413 6.56688H8.04862V3.24667C8.04862 1.93573 9.14421 0.882812 10.4658 0.882812H18.0643C19.3857 0.882812 20.4453 1.93573 20.4453 3.24667ZM19.4536 3.24667C19.4536 2.47818 18.8389 1.86659 18.0642 1.86659H10.4658C9.69104 1.86659 9.04035 2.47818 9.04035 3.24667V7.06336V11.6507L10.0373 10.757C10.0835 10.7152 10.1352 10.6769 10.173 10.6424C10.6282 10.2262 10.7447 10.1597 11.3385 10.1718C11.4195 10.1735 11.516 10.1741 11.6335 10.1741H18.0642C18.8389 10.1741 19.4536 9.55172 19.4536 8.78328V3.24667Z" fill="#737373"/>
</g>
<defs>
<clipPath id="clip0">
<rect width="20" height="20" fill="white"/>
</clipPath>
</defs>
</svg>
