<svg width="90" height="60" viewBox="0 0 104 60" fill="none" xmlns="http://www.w3.org/2000/svg">
<path d="M27.2583 56.8769L5.14235 37.6567C3.47491 36.2075 3.29793 33.6811 4.74705 32.0136L8.65977 27.5114C10.1089 25.844 12.6354 25.667 14.3028 27.1161L25.8782 37.176L54.9636 3.70874C56.4127 2.0413 58.9391 1.86432 60.6066 3.31344L65.1088 7.22616C66.7762 8.67528 66.9532 11.2017 65.5041 12.8692L27.2583 56.8769Z" stroke="#CCCCCC" stroke-width="2" stroke-linejoin="round"/>
<path d="M42.8663 45.642L56.6501 57.621L95.5518 12.8585C96.6387 11.6079 96.5059 9.71306 95.2554 8.62622L89.2436 3.40157C87.993 2.31473 86.0982 2.44746 85.0113 3.69804L55.9746 37.1093L52.7314 34.2907" stroke="#CCCCCC" stroke-width="2" stroke-linejoin="round"/>
</svg>
