<svg width="47" height="47" viewBox="0 0 47 47" xmlns="http://www.w3.org/2000/svg">
<path d="M47 9.00794L36.19 0L33.1585 3.57051L43.9685 12.5785L47 9.00794ZM13.818 3.57051L10.81 0L0 8.98461L3.0315 12.5551L13.818 3.57051ZM24.675 14.3287H21.15V28.3307L32.3125 34.9816L34.075 32.1112L24.675 26.5804V14.3287ZM23.5 4.99404C11.8205 4.99404 2.35 14.3987 2.35 25.997C2.35 37.5953 11.797 47 23.5 47C35.1795 47 44.65 37.5953 44.65 25.997C44.65 14.3987 35.1795 4.99404 23.5 4.99404ZM23.5 42.3327C14.4055 42.3327 7.05 35.0283 7.05 25.997C7.05 16.9657 14.4055 9.66137 23.5 9.66137C32.5945 9.66137 39.95 16.9657 39.95 25.997C39.95 35.0283 32.5945 42.3327 23.5 42.3327Z"/>
</svg>
