<svg width="60" height="70" viewBox="0 0 60 70" fill="none" xmlns="http://www.w3.org/2000/svg">
<path d="M60 40C60 56.5685 46.5685 70 30 70C13.4315 70 0 56.5685 0 40C0 23.4315 13.4315 10 30 10C46.5685 10 60 23.4315 60 40ZM3.82632 40C3.82632 54.4553 15.5447 66.1737 30 66.1737C44.4553 66.1737 56.1737 54.4553 56.1737 40C56.1737 25.5447 44.4553 13.8263 30 13.8263C15.5447 13.8263 3.82632 25.5447 3.82632 40Z" fill="#DDDDDD"/>
<rect x="25" y="2" width="8" height="11" fill="#DDDDDD"/>
<rect x="18" width="21" height="4" rx="2" fill="#DDDDDD"/>
<rect x="49" y="39" width="5" height="2" rx="1" fill="#DDDDDD"/>
<rect x="6" y="39" width="5" height="2" rx="1" fill="#DDDDDD"/>
<rect x="31" y="59" width="5" height="2" rx="1" transform="rotate(90 31 59)" fill="#DDDDDD"/>
<rect x="31" y="16" width="5" height="2" rx="1" transform="rotate(90 31 16)" fill="#DDDDDD"/>
<path d="M41.9031 47.3699C43.2191 45.2446 43.9419 42.8056 43.9966 40.3065C44.0514 37.8073 43.4359 35.3391 42.2143 33.1581C40.9926 30.9772 39.2093 29.1632 37.0496 27.9044C34.8899 26.6457 32.4325 25.9882 29.9328 26.0002L30 40L41.9031 47.3699Z" fill="#00B28F"/>
<path d="M45.5 50L30.2317 42.1345C29.5101 41.7628 29.1392 40.9433 29.336 40.1559L29.3483 40.1066C29.4459 39.7163 29.6855 39.3763 30.0203 39.1531C30.6043 38.7638 31.3727 38.7956 31.9225 39.2317L45.5 50Z" fill="#333333"/>
</svg>
