<svg width="39" height="29" viewBox="0 0 60 60" fill="none" xmlns="http://www.w3.org/2000/svg">
<path d="M55.1841 15.8391C55.647 16.842 56.8352 17.2798 57.8381 16.8169C58.841 16.354 59.2788 15.1658 58.8159 14.1629L55.1841 15.8391ZM48.9311 2.258C48.018 1.63642 46.7739 1.87273 46.1524 2.78581C45.5308 3.69888 45.7671 4.94297 46.6802 5.56455L48.9311 2.258ZM13.3267 5.43122C14.1511 4.69614 14.2236 3.43188 13.4885 2.60743C12.7534 1.78297 11.4891 1.71053 10.6647 2.44562L13.3267 5.43122ZM0.739058 14.0528C0.215382 15.0253 0.579259 16.2382 1.5518 16.7619C2.52434 17.2856 3.73727 16.9217 4.26094 15.9492L0.739058 14.0528ZM26.5552 25.1558C25.6833 24.4777 24.4268 24.6347 23.7486 25.5066C23.0705 26.3785 23.2275 27.6351 24.0994 28.3132L26.5552 25.1558ZM30.5029 30.76H32.5029V29.7818L31.7308 29.1813L30.5029 30.76ZM28.5029 45.7117C28.5029 46.8163 29.3983 47.7117 30.5029 47.7117C31.6075 47.7117 32.5029 46.8163 32.5029 45.7117H28.5029ZM1.40571 30.1851C1.40571 45.9347 14.1733 58.7023 29.9229 58.7023V54.7023C16.3824 54.7023 5.40571 43.7256 5.40571 30.1851H1.40571ZM29.9229 58.7023C45.6724 58.7023 58.44 45.9347 58.44 30.1851H54.44C54.44 43.7256 43.4633 54.7023 29.9229 54.7023V58.7023ZM58.44 30.1851C58.44 14.4355 45.6724 1.66797 29.9229 1.66797V5.66797C43.4633 5.66797 54.44 16.6447 54.44 30.1851H58.44ZM29.9229 1.66797C14.1733 1.66797 1.40571 14.4355 1.40571 30.1851H5.40571C5.40571 16.6447 16.3824 5.66797 29.9229 5.66797V1.66797ZM58.8159 14.1629C57.3379 10.9605 56.3419 8.89668 54.9268 7.17999C53.4978 5.44637 51.7148 4.15302 48.9311 2.258L46.6802 5.56455C49.5117 7.49214 50.8259 8.49364 51.8403 9.72422C52.8686 10.9717 53.6621 12.5415 55.1841 15.8391L58.8159 14.1629ZM10.6647 2.44562C8.81052 4.09879 7.12117 5.40702 5.61413 6.98837C4.02223 8.65878 2.54866 10.6921 0.739058 14.0528L4.26094 15.9492C5.95134 12.8099 7.22777 11.0932 8.50978 9.74794C9.87666 8.31366 11.1851 7.34061 13.3267 5.43122L10.6647 2.44562ZM24.0994 28.3132L29.275 32.3387L31.7308 29.1813L26.5552 25.1558L24.0994 28.3132ZM30.5029 30.76C28.5029 30.76 28.5029 30.76 28.5029 30.7601C28.5029 30.7602 28.5029 30.7603 28.5029 30.7604C28.5029 30.7605 28.5029 30.7607 28.5029 30.7609C28.5029 30.7611 28.5029 30.7614 28.5029 30.7617C28.5029 30.7619 28.5029 30.7622 28.5029 30.7626C28.5029 30.7629 28.5029 30.7633 28.5029 30.7637C28.5029 30.7641 28.5029 30.7646 28.5029 30.7651C28.5029 30.7656 28.5029 30.7661 28.5029 30.7666C28.5029 30.7672 28.5029 30.7678 28.5029 30.7684C28.5029 30.769 28.5029 30.7696 28.5029 30.7703C28.5029 30.771 28.5029 30.7717 28.5029 30.7725C28.5029 30.7732 28.5029 30.774 28.5029 30.7749C28.5029 30.7757 28.5029 30.7765 28.5029 30.7774C28.5029 30.7783 28.5029 30.7792 28.5029 30.7802C28.5029 30.7811 28.5029 30.7821 28.5029 30.7831C28.5029 30.7842 28.5029 30.7852 28.5029 30.7863C28.5029 30.7874 28.5029 30.7885 28.5029 30.7897C28.5029 30.7908 28.5029 30.792 28.5029 30.7932C28.5029 30.7945 28.5029 30.7957 28.5029 30.797C28.5029 30.7983 28.5029 30.7996 28.5029 30.801C28.5029 30.8023 28.5029 30.8037 28.5029 30.8051C28.5029 30.8065 28.5029 30.808 28.5029 30.8095C28.5029 30.811 28.5029 30.8125 28.5029 30.814C28.5029 30.8156 28.5029 30.8172 28.5029 30.8188C28.5029 30.8204 28.5029 30.8221 28.5029 30.8237C28.5029 30.8254 28.5029 30.8271 28.5029 30.8289C28.5029 30.8306 28.5029 30.8324 28.5029 30.8342C28.5029 30.836 28.5029 30.8379 28.5029 30.8397C28.5029 30.8416 28.5029 30.8435 28.5029 30.8454C28.5029 30.8474 28.5029 30.8494 28.5029 30.8514C28.5029 30.8534 28.5029 30.8554 28.5029 30.8575C28.5029 30.8595 28.5029 30.8616 28.5029 30.8638C28.5029 30.8659 28.5029 30.8681 28.5029 30.8702C28.5029 30.8724 28.5029 30.8747 28.5029 30.8769C28.5029 30.8792 28.5029 30.8815 28.5029 30.8838C28.5029 30.8861 28.5029 30.8885 28.5029 30.8908C28.5029 30.8932 28.5029 30.8956 28.5029 30.8981C28.5029 30.9005 28.5029 30.903 28.5029 30.9055C28.5029 30.908 28.5029 30.9106 28.5029 30.9131C28.5029 30.9157 28.5029 30.9183 28.5029 30.9209C28.5029 30.9236 28.5029 30.9262 28.5029 30.9289C28.5029 30.9316 28.5029 30.9344 28.5029 30.9371C28.5029 30.9399 28.5029 30.9427 28.5029 30.9455C28.5029 30.9483 28.5029 30.9512 28.5029 30.954C28.5029 30.9569 28.5029 30.9598 28.5029 30.9628C28.5029 30.9657 28.5029 30.9687 28.5029 30.9717C28.5029 30.9747 28.5029 30.9777 28.5029 30.9808C28.5029 30.9838 28.5029 30.9869 28.5029 30.9901C28.5029 30.9932 28.5029 30.9963 28.5029 30.9995C28.5029 31.0027 28.5029 31.0059 28.5029 31.0092C28.5029 31.0124 28.5029 31.0157 28.5029 31.019C28.5029 31.0223 28.5029 31.0256 28.5029 31.029C28.5029 31.0324 28.5029 31.0358 28.5029 31.0392C28.5029 31.0426 28.5029 31.0461 28.5029 31.0496C28.5029 31.053 28.5029 31.0566 28.5029 31.0601C28.5029 31.0637 28.5029 31.0672 28.5029 31.0708C28.5029 31.0744 28.5029 31.0781 28.5029 31.0817C28.5029 31.0854 28.5029 31.0891 28.5029 31.0928C28.5029 31.0965 28.5029 31.1003 28.5029 31.1041C28.5029 31.1078 28.5029 31.1117 28.5029 31.1155C28.5029 31.1193 28.5029 31.1232 28.5029 31.1271C28.5029 31.131 28.5029 31.1349 28.5029 31.1389C28.5029 31.1428 28.5029 31.1468 28.5029 31.1508C28.5029 31.1548 28.5029 31.1589 28.5029 31.163C28.5029 31.167 28.5029 31.1711 28.5029 31.1753C28.5029 31.1794 28.5029 31.1835 28.5029 31.1877C28.5029 31.1919 28.5029 31.1961 28.5029 31.2004C28.5029 31.2046 28.5029 31.2089 28.5029 31.2132C28.5029 31.2175 28.5029 31.2218 28.5029 31.2262C28.5029 31.2305 28.5029 31.2349 28.5029 31.2393C28.5029 31.2438 28.5029 31.2482 28.5029 31.2527C28.5029 31.2571 28.5029 31.2616 28.5029 31.2662C28.5029 31.2707 28.5029 31.2753 28.5029 31.2798C28.5029 31.2844 28.5029 31.289 28.5029 31.2937C28.5029 31.2983 28.5029 31.303 28.5029 31.3077C28.5029 31.3124 28.5029 31.3171 28.5029 31.3218C28.5029 31.3266 28.5029 31.3314 28.5029 31.3362C28.5029 31.341 28.5029 31.3458 28.5029 31.3507C28.5029 31.3555 28.5029 31.3604 28.5029 31.3653C28.5029 31.3703 28.5029 31.3752 28.5029 31.3802C28.5029 31.3851 28.5029 31.3901 28.5029 31.3952C28.5029 31.4002 28.5029 31.4053 28.5029 31.4103C28.5029 31.4154 28.5029 31.4205 28.5029 31.4257C28.5029 31.4308 28.5029 31.436 28.5029 31.4411C28.5029 31.4463 28.5029 31.4515 28.5029 31.4568C28.5029 31.462 28.5029 31.4673 28.5029 31.4726C28.5029 31.4779 28.5029 31.4832 28.5029 31.4886C28.5029 31.4939 28.5029 31.4993 28.5029 31.5047C28.5029 31.5101 28.5029 31.5155 28.5029 31.521C28.5029 31.5264 28.5029 31.5319 28.5029 31.5374C28.5029 31.5429 28.5029 31.5485 28.5029 31.554C28.5029 31.5596 28.5029 31.5652 28.5029 31.5708C28.5029 31.5764 28.5029 31.5821 28.5029 31.5877C28.5029 31.5934 28.5029 31.5991 28.5029 31.6048C28.5029 31.6105 28.5029 31.6163 28.5029 31.6221C28.5029 31.6278 28.5029 31.6336 28.5029 31.6395C28.5029 31.6453 28.5029 31.6511 28.5029 31.657C28.5029 31.6629 28.5029 31.6688 28.5029 31.6747C28.5029 31.6806 28.5029 31.6866 28.5029 31.6926C28.5029 31.6985 28.5029 31.7045 28.5029 31.7106C28.5029 31.7166 28.5029 31.7227 28.5029 31.7287C28.5029 31.7348 28.5029 31.7409 28.5029 31.7471C28.5029 31.7532 28.5029 31.7593 28.5029 31.7655C28.5029 31.7717 28.5029 31.7779 28.5029 31.7841C28.5029 31.7904 28.5029 31.7966 28.5029 31.8029C28.5029 31.8092 28.5029 31.8155 28.5029 31.8218C28.5029 31.8282 28.5029 31.8345 28.5029 31.8409C28.5029 31.8473 28.5029 31.8537 28.5029 31.8601C28.5029 31.8666 28.5029 31.873 28.5029 31.8795C28.5029 31.886 28.5029 31.8925 28.5029 31.899C28.5029 31.9056 28.5029 31.9121 28.5029 31.9187C28.5029 31.9253 28.5029 31.9319 28.5029 31.9385C28.5029 31.9451 28.5029 31.9518 28.5029 31.9585C28.5029 31.9652 28.5029 31.9719 28.5029 31.9786C28.5029 31.9853 28.5029 31.9921 28.5029 31.9988C28.5029 32.0056 28.5029 32.0124 28.5029 32.0192C28.5029 32.0261 28.5029 32.0329 28.5029 32.0398C28.5029 32.0466 28.5029 32.0535 28.5029 32.0605C28.5029 32.0674 28.5029 32.0743 28.5029 32.0813C28.5029 32.0882 28.5029 32.0952 28.5029 32.1023C28.5029 32.1093 28.5029 32.1163 28.5029 32.1234C28.5029 32.1304 28.5029 32.1375 28.5029 32.1446C28.5029 32.1517 28.5029 32.1589 28.5029 32.166C28.5029 32.1732 28.5029 32.1804 28.5029 32.1876C28.5029 32.1948 28.5029 32.202 28.5029 32.2092C28.5029 32.2165 28.5029 32.2237 28.5029 32.231C28.5029 32.2383 28.5029 32.2457 28.5029 32.253C28.5029 32.2603 28.5029 32.2677 28.5029 32.2751C28.5029 32.2825 28.5029 32.2899 28.5029 32.2973C28.5029 32.3048 28.5029 32.3122 28.5029 32.3197C28.5029 32.3272 28.5029 32.3347 28.5029 32.3422C28.5029 32.3497 28.5029 32.3573 28.5029 32.3648C28.5029 32.3724 28.5029 32.38 28.5029 32.3876C28.5029 32.3952 28.5029 32.4029 28.5029 32.4105C28.5029 32.4182 28.5029 32.4259 28.5029 32.4336C28.5029 32.4413 28.5029 32.449 28.5029 32.4567C28.5029 32.4645 28.5029 32.4723 28.5029 32.4801C28.5029 32.4878 28.5029 32.4957 28.5029 32.5035C28.5029 32.5113 28.5029 32.5192 28.5029 32.5271C28.5029 32.535 28.5029 32.5429 28.5029 32.5508C28.5029 32.5587 28.5029 32.5667 28.5029 32.5746C28.5029 32.5826 28.5029 32.5906 28.5029 32.5986C28.5029 32.6066 28.5029 32.6146 28.5029 32.6227C28.5029 32.6307 28.5029 32.6388 28.5029 32.6469C28.5029 32.655 28.5029 32.6631 28.5029 32.6713C28.5029 32.6794 28.5029 32.6876 28.5029 32.6958C28.5029 32.7039 28.5029 32.7122 28.5029 32.7204C28.5029 32.7286 28.5029 32.7369 28.5029 32.7451C28.5029 32.7534 28.5029 32.7617 28.5029 32.77C28.5029 32.7783 28.5029 32.7866 28.5029 32.795C28.5029 32.8033 28.5029 32.8117 28.5029 32.8201C28.5029 32.8285 28.5029 32.8369 28.5029 32.8453C28.5029 32.8538 28.5029 32.8622 28.5029 32.8707C28.5029 32.8792 28.5029 32.8877 28.5029 32.8962C28.5029 32.9047 28.5029 32.9133 28.5029 32.9218C28.5029 32.9304 28.5029 32.939 28.5029 32.9476C28.5029 32.9562 28.5029 32.9648 28.5029 32.9734C28.5029 32.9821 28.5029 32.9907 28.5029 32.9994C28.5029 33.0081 28.5029 33.0168 28.5029 33.0255C28.5029 33.0342 28.5029 33.043 28.5029 33.0517C28.5029 33.0605 28.5029 33.0693 28.5029 33.0781C28.5029 33.0869 28.5029 33.0957 28.5029 33.1045C28.5029 33.1134 28.5029 33.1222 28.5029 33.1311C28.5029 33.14 28.5029 33.1489 28.5029 33.1578C28.5029 33.1667 28.5029 33.1757 28.5029 33.1846C28.5029 33.1936 28.5029 33.2026 28.5029 33.2116C28.5029 33.2206 28.5029 33.2296 28.5029 33.2386C28.5029 33.2477 28.5029 33.2567 28.5029 33.2658C28.5029 33.2749 28.5029 33.284 28.5029 33.2931C28.5029 33.3022 28.5029 33.3113 28.5029 33.3205C28.5029 33.3296 28.5029 33.3388 28.5029 33.348C28.5029 33.3572 28.5029 33.3664 28.5029 33.3756C28.5029 33.3848 28.5029 33.3941 28.5029 33.4034C28.5029 33.4126 28.5029 33.4219 28.5029 33.4312C28.5029 33.4405 28.5029 33.4498 28.5029 33.4592C28.5029 33.4685 28.5029 33.4779 28.5029 33.4873C28.5029 33.4966 28.5029 33.506 28.5029 33.5154C28.5029 33.5249 28.5029 33.5343 28.5029 33.5437C28.5029 33.5532 28.5029 33.5627 28.5029 33.5722C28.5029 33.5816 28.5029 33.5912 28.5029 33.6007C28.5029 33.6102 28.5029 33.6197 28.5029 33.6293C28.5029 33.6389 28.5029 33.6484 28.5029 33.658C28.5029 33.6676 28.5029 33.6772 28.5029 33.6869C28.5029 33.6965 28.5029 33.7062 28.5029 33.7158C28.5029 33.7255 28.5029 33.7352 28.5029 33.7449C28.5029 33.7546 28.5029 33.7643 28.5029 33.7741C28.5029 33.7838 28.5029 33.7935 28.5029 33.8033C28.5029 33.8131 28.5029 33.8229 28.5029 33.8327C28.5029 33.8425 28.5029 33.8523 28.5029 33.8622C28.5029 33.872 28.5029 33.8819 28.5029 33.8918C28.5029 33.9016 28.5029 33.9115 28.5029 33.9214C28.5029 33.9314 28.5029 33.9413 28.5029 33.9512C28.5029 33.9612 28.5029 33.9711 28.5029 33.9811C28.5029 33.9911 28.5029 34.0011 28.5029 34.0111C28.5029 34.0211 28.5029 34.0312 28.5029 34.0412C28.5029 34.0513 28.5029 34.0613 28.5029 34.0714C28.5029 34.0815 28.5029 34.0916 28.5029 34.1017C28.5029 34.1118 28.5029 34.1219 28.5029 34.1321C28.5029 34.1422 28.5029 34.1524 28.5029 34.1626C28.5029 34.1728 28.5029 34.183 28.5029 34.1932C28.5029 34.2034 28.5029 34.2136 28.5029 34.2239C28.5029 34.2341 28.5029 34.2444 28.5029 34.2547C28.5029 34.2649 28.5029 34.2752 28.5029 34.2855C28.5029 34.2958 28.5029 34.3062 28.5029 34.3165C28.5029 34.3269 28.5029 34.3372 28.5029 34.3476C28.5029 34.358 28.5029 34.3684 28.5029 34.3788C28.5029 34.3892 28.5029 34.3996 28.5029 34.41C28.5029 34.4205 28.5029 34.4309 28.5029 34.4414C28.5029 34.4519 28.5029 34.4623 28.5029 34.4728C28.5029 34.4833 28.5029 34.4939 28.5029 34.5044C28.5029 34.5149 28.5029 34.5255 28.5029 34.536C28.5029 34.5466 28.5029 34.5572 28.5029 34.5677C28.5029 34.5783 28.5029 34.5889 28.5029 34.5996C28.5029 34.6102 28.5029 34.6208 28.5029 34.6315C28.5029 34.6421 28.5029 34.6528 28.5029 34.6635C28.5029 34.6742 28.5029 34.6849 28.5029 34.6956C28.5029 34.7063 28.5029 34.717 28.5029 34.7277C28.5029 34.7385 28.5029 34.7492 28.5029 34.76C28.5029 34.7708 28.5029 34.7816 28.5029 34.7924C28.5029 34.8032 28.5029 34.814 28.5029 34.8248C28.5029 34.8356 28.5029 34.8465 28.5029 34.8573C28.5029 34.8682 28.5029 34.8791 28.5029 34.89C28.5029 34.9008 28.5029 34.9117 28.5029 34.9227C28.5029 34.9336 28.5029 34.9445 28.5029 34.9554C28.5029 34.9664 28.5029 34.9773 28.5029 34.9883C28.5029 34.9993 28.5029 35.0103 28.5029 35.0213C28.5029 35.0323 28.5029 35.0433 28.5029 35.0543C28.5029 35.0653 28.5029 35.0764 28.5029 35.0874C28.5029 35.0985 28.5029 35.1096 28.5029 35.1206C28.5029 35.1317 28.5029 35.1428 28.5029 35.1539C28.5029 35.165 28.5029 35.1762 28.5029 35.1873C28.5029 35.1984 28.5029 35.2096 28.5029 35.2207C28.5029 35.2319 28.5029 35.2431 28.5029 35.2543C28.5029 35.2655 28.5029 35.2767 28.5029 35.2879C28.5029 35.2991 28.5029 35.3103 28.5029 35.3216C28.5029 35.3328 28.5029 35.3441 28.5029 35.3553C28.5029 35.3666 28.5029 35.3779 28.5029 35.3892C28.5029 35.4005 28.5029 35.4118 28.5029 35.4231C28.5029 35.4344 28.5029 35.4457 28.5029 35.4571C28.5029 35.4684 28.5029 35.4798 28.5029 35.4912C28.5029 35.5025 28.5029 35.5139 28.5029 35.5253C28.5029 35.5367 28.5029 35.5481 28.5029 35.5595C28.5029 35.5709 28.5029 35.5824 28.5029 35.5938C28.5029 35.6053 28.5029 35.6167 28.5029 35.6282C28.5029 35.6397 28.5029 35.6511 28.5029 35.6626C28.5029 35.6741 28.5029 35.6856 28.5029 35.6972C28.5029 35.7087 28.5029 35.7202 28.5029 35.7318C28.5029 35.7433 28.5029 35.7548 28.5029 35.7664C28.5029 35.778 28.5029 35.7896 28.5029 35.8011C28.5029 35.8127 28.5029 35.8243 28.5029 35.836C28.5029 35.8476 28.5029 35.8592 28.5029 35.8708C28.5029 35.8825 28.5029 35.8941 28.5029 35.9058C28.5029 35.9174 28.5029 35.9291 28.5029 35.9408C28.5029 35.9525 28.5029 35.9642 28.5029 35.9759C28.5029 35.9876 28.5029 35.9993 28.5029 36.011C28.5029 36.0227 28.5029 36.0345 28.5029 36.0462C28.5029 36.058 28.5029 36.0697 28.5029 36.0815C28.5029 36.0933 28.5029 36.1051 28.5029 36.1169C28.5029 36.1287 28.5029 36.1405 28.5029 36.1523C28.5029 36.1641 28.5029 36.1759 28.5029 36.1878C28.5029 36.1996 28.5029 36.2115 28.5029 36.2233C28.5029 36.2352 28.5029 36.247 28.5029 36.2589C28.5029 36.2708 28.5029 36.2827 28.5029 36.2946C28.5029 36.3065 28.5029 36.3184 28.5029 36.3303C28.5029 36.3423 28.5029 36.3542 28.5029 36.3661C28.5029 36.3781 28.5029 36.39 28.5029 36.402C28.5029 36.414 28.5029 36.4259 28.5029 36.4379C28.5029 36.4499 28.5029 36.4619 28.5029 36.4739C28.5029 36.4859 28.5029 36.4979 28.5029 36.5099C28.5029 36.522 28.5029 36.534 28.5029 36.546C28.5029 36.5581 28.5029 36.5701 28.5029 36.5822C28.5029 36.5943 28.5029 36.6063 28.5029 36.6184C28.5029 36.6305 28.5029 36.6426 28.5029 36.6547C28.5029 36.6668 28.5029 36.6789 28.5029 36.691C28.5029 36.7032 28.5029 36.7153 28.5029 36.7274C28.5029 36.7396 28.5029 36.7517 28.5029 36.7639C28.5029 36.776 28.5029 36.7882 28.5029 36.8004C28.5029 36.8126 28.5029 36.8247 28.5029 36.8369C28.5029 36.8491 28.5029 36.8613 28.5029 36.8736C28.5029 36.8858 28.5029 36.898 28.5029 36.9102C28.5029 36.9225 28.5029 36.9347 28.5029 36.9469C28.5029 36.9592 28.5029 36.9714 28.5029 36.9837C28.5029 36.996 28.5029 37.0083 28.5029 37.0205C28.5029 37.0328 28.5029 37.0451 28.5029 37.0574C28.5029 37.0697 28.5029 37.082 28.5029 37.0944C28.5029 37.1067 28.5029 37.119 28.5029 37.1313C28.5029 37.1437 28.5029 37.156 28.5029 37.1684C28.5029 37.1807 28.5029 37.1931 28.5029 37.2054C28.5029 37.2178 28.5029 37.2302 28.5029 37.2426C28.5029 37.255 28.5029 37.2674 28.5029 37.2798C28.5029 37.2922 28.5029 37.3046 28.5029 37.317C28.5029 37.3294 28.5029 37.3418 28.5029 37.3543C28.5029 37.3667 28.5029 37.3791 28.5029 37.3916C28.5029 37.404 28.5029 37.4165 28.5029 37.4289C28.5029 37.4414 28.5029 37.4539 28.5029 37.4664C28.5029 37.4788 28.5029 37.4913 28.5029 37.5038C28.5029 37.5163 28.5029 37.5288 28.5029 37.5413C28.5029 37.5538 28.5029 37.5663 28.5029 37.5789C28.5029 37.5914 28.5029 37.6039 28.5029 37.6165C28.5029 37.629 28.5029 37.6415 28.5029 37.6541C28.5029 37.6666 28.5029 37.6792 28.5029 37.6918C28.5029 37.7043 28.5029 37.7169 28.5029 37.7295C28.5029 37.7421 28.5029 37.7546 28.5029 37.7672C28.5029 37.7798 28.5029 37.7924 28.5029 37.805C28.5029 37.8176 28.5029 37.8303 28.5029 37.8429C28.5029 37.8555 28.5029 37.8681 28.5029 37.8808C28.5029 37.8934 28.5029 37.906 28.5029 37.9187C28.5029 37.9313 28.5029 37.944 28.5029 37.9566C28.5029 37.9693 28.5029 37.982 28.5029 37.9946C28.5029 38.0073 28.5029 38.02 28.5029 38.0327C28.5029 38.0453 28.5029 38.058 28.5029 38.0707C28.5029 38.0834 28.5029 38.0961 28.5029 38.1088C28.5029 38.1216 28.5029 38.1343 28.5029 38.147C28.5029 38.1597 28.5029 38.1724 28.5029 38.1852C28.5029 38.1979 28.5029 38.2106 28.5029 38.2234C28.5029 38.2361 28.5029 38.2489 28.5029 38.2616C28.5029 38.2744 28.5029 38.2871 28.5029 38.2999C28.5029 38.3127 28.5029 38.3254 28.5029 38.3382C28.5029 38.351 28.5029 38.3638 28.5029 38.3766C28.5029 38.3893 28.5029 38.4021 28.5029 38.4149C28.5029 38.4277 28.5029 38.4405 28.5029 38.4533C28.5029 38.4662 28.5029 38.479 28.5029 38.4918C28.5029 38.5046 28.5029 38.5174 28.5029 38.5303C28.5029 38.5431 28.5029 38.5559 28.5029 38.5688C28.5029 38.5816 28.5029 38.5944 28.5029 38.6073C28.5029 38.6201 28.5029 38.633 28.5029 38.6458C28.5029 38.6587 28.5029 38.6716 28.5029 38.6844C28.5029 38.6973 28.5029 38.7102 28.5029 38.723C28.5029 38.7359 28.5029 38.7488 28.5029 38.7617C28.5029 38.7746 28.5029 38.7875 28.5029 38.8003C28.5029 38.8132 28.5029 38.8261 28.5029 38.839C28.5029 38.8519 28.5029 38.8648 28.5029 38.8778C28.5029 38.8907 28.5029 38.9036 28.5029 38.9165C28.5029 38.9294 28.5029 38.9423 28.5029 38.9553C28.5029 38.9682 28.5029 38.9811 28.5029 38.9941C28.5029 39.007 28.5029 39.0199 28.5029 39.0329C28.5029 39.0458 28.5029 39.0588 28.5029 39.0717C28.5029 39.0847 28.5029 39.0976 28.5029 39.1106C28.5029 39.1235 28.5029 39.1365 28.5029 39.1494C28.5029 39.1624 28.5029 39.1754 28.5029 39.1883C28.5029 39.2013 28.5029 39.2143 28.5029 39.2273C28.5029 39.2402 28.5029 39.2532 28.5029 39.2662C28.5029 39.2792 28.5029 39.2922 28.5029 39.3052C28.5029 39.3181 28.5029 39.3311 28.5029 39.3441C28.5029 39.3571 28.5029 39.3701 28.5029 39.3831C28.5029 39.3961 28.5029 39.4091 28.5029 39.4221C28.5029 39.4352 28.5029 39.4482 28.5029 39.4612C28.5029 39.4742 28.5029 39.4872 28.5029 39.5002C28.5029 39.5132 28.5029 39.5263 28.5029 39.5393C28.5029 39.5523 28.5029 39.5653 28.5029 39.5784C28.5029 39.5914 28.5029 39.6044 28.5029 39.6175C28.5029 39.6305 28.5029 39.6435 28.5029 39.6566C28.5029 39.6696 28.5029 39.6826 28.5029 39.6957C28.5029 39.7087 28.5029 39.7218 28.5029 39.7348C28.5029 39.7479 28.5029 39.7609 28.5029 39.774C28.5029 39.787 28.5029 39.8001 28.5029 39.8131C28.5029 39.8262 28.5029 39.8392 28.5029 39.8523C28.5029 39.8654 28.5029 39.8784 28.5029 39.8915C28.5029 39.9045 28.5029 39.9176 28.5029 39.9307C28.5029 39.9437 28.5029 39.9568 28.5029 39.9699C28.5029 39.9829 28.5029 39.996 28.5029 40.0091C28.5029 40.0222 28.5029 40.0352 28.5029 40.0483C28.5029 40.0614 28.5029 40.0745 28.5029 40.0875C28.5029 40.1006 28.5029 40.1137 28.5029 40.1268C28.5029 40.1398 28.5029 40.1529 28.5029 40.166C28.5029 40.1791 28.5029 40.1922 28.5029 40.2052C28.5029 40.2183 28.5029 40.2314 28.5029 40.2445C28.5029 40.2576 28.5029 40.2707 28.5029 40.2838C28.5029 40.2969 28.5029 40.3099 28.5029 40.323C28.5029 40.3361 28.5029 40.3492 28.5029 40.3623C28.5029 40.3754 28.5029 40.3885 28.5029 40.4016C28.5029 40.4147 28.5029 40.4278 28.5029 40.4408C28.5029 40.4539 28.5029 40.467 28.5029 40.4801C28.5029 40.4932 28.5029 40.5063 28.5029 40.5194C28.5029 40.5325 28.5029 40.5456 28.5029 40.5587C28.5029 40.5718 28.5029 40.5849 28.5029 40.598C28.5029 40.6111 28.5029 40.6242 28.5029 40.6372C28.5029 40.6503 28.5029 40.6634 28.5029 40.6765C28.5029 40.6896 28.5029 40.7027 28.5029 40.7158C28.5029 40.7289 28.5029 40.742 28.5029 40.7551C28.5029 40.7682 28.5029 40.7813 28.5029 40.7944C28.5029 40.8075 28.5029 40.8206 28.5029 40.8336C28.5029 40.8467 28.5029 40.8598 28.5029 40.8729C28.5029 40.886 28.5029 40.8991 28.5029 40.9122C28.5029 40.9253 28.5029 40.9384 28.5029 40.9515C28.5029 40.9645 28.5029 40.9776 28.5029 40.9907C28.5029 41.0038 28.5029 41.0169 28.5029 41.03C28.5029 41.0431 28.5029 41.0561 28.5029 41.0692C28.5029 41.0823 28.5029 41.0954 28.5029 41.1085C28.5029 41.1215 28.5029 41.1346 28.5029 41.1477C28.5029 41.1608 28.5029 41.1739 28.5029 41.1869C28.5029 41.2 28.5029 41.2131 28.5029 41.2262C28.5029 41.2392 28.5029 41.2523 28.5029 41.2654C28.5029 41.2784 28.5029 41.2915 28.5029 41.3046C28.5029 41.3176 28.5029 41.3307 28.5029 41.3438C28.5029 41.3568 28.5029 41.3699 28.5029 41.383C28.5029 41.396 28.5029 41.4091 28.5029 41.4221C28.5029 41.4352 28.5029 41.4482 28.5029 41.4613C28.5029 41.4743 28.5029 41.4874 28.5029 41.5004C28.5029 41.5135 28.5029 41.5265 28.5029 41.5396C28.5029 41.5526 28.5029 41.5657 28.5029 41.5787C28.5029 41.5917 28.5029 41.6048 28.5029 41.6178C28.5029 41.6309 28.5029 41.6439 28.5029 41.6569C28.5029 41.6699 28.5029 41.683 28.5029 41.696C28.5029 41.709 28.5029 41.722 28.5029 41.7351C28.5029 41.7481 28.5029 41.7611 28.5029 41.7741C28.5029 41.7871 28.5029 41.8001 28.5029 41.8132C28.5029 41.8262 28.5029 41.8392 28.5029 41.8522C28.5029 41.8652 28.5029 41.8782 28.5029 41.8912C28.5029 41.9042 28.5029 41.9172 28.5029 41.9302C28.5029 41.9432 28.5029 41.9561 28.5029 41.9691C28.5029 41.9821 28.5029 41.9951 28.5029 42.0081C28.5029 42.0211 28.5029 42.034 28.5029 42.047C28.5029 42.06 28.5029 42.0729 28.5029 42.0859C28.5029 42.0989 28.5029 42.1118 28.5029 42.1248C28.5029 42.1378 28.5029 42.1507 28.5029 42.1637C28.5029 42.1766 28.5029 42.1896 28.5029 42.2025C28.5029 42.2155 28.5029 42.2284 28.5029 42.2413C28.5029 42.2543 28.5029 42.2672 28.5029 42.2801C28.5029 42.2931 28.5029 42.306 28.5029 42.3189C28.5029 42.3318 28.5029 42.3447 28.5029 42.3577C28.5029 42.3706 28.5029 42.3835 28.5029 42.3964C28.5029 42.4093 28.5029 42.4222 28.5029 42.4351C28.5029 42.448 28.5029 42.4609 28.5029 42.4738C28.5029 42.4866 28.5029 42.4995 28.5029 42.5124C28.5029 42.5253 28.5029 42.5382 28.5029 42.551C28.5029 42.5639 28.5029 42.5768 28.5029 42.5896C28.5029 42.6025 28.5029 42.6153 28.5029 42.6282C28.5029 42.641 28.5029 42.6539 28.5029 42.6667C28.5029 42.6796 28.5029 42.6924 28.5029 42.7052C28.5029 42.7181 28.5029 42.7309 28.5029 42.7437C28.5029 42.7565 28.5029 42.7694 28.5029 42.7822C28.5029 42.795 28.5029 42.8078 28.5029 42.8206C28.5029 42.8334 28.5029 42.8462 28.5029 42.859C28.5029 42.8718 28.5029 42.8846 28.5029 42.8973C28.5029 42.9101 28.5029 42.9229 28.5029 42.9357C28.5029 42.9484 28.5029 42.9612 28.5029 42.974C28.5029 42.9867 28.5029 42.9995 28.5029 43.0122C28.5029 43.025 28.5029 43.0377 28.5029 43.0504C28.5029 43.0632 28.5029 43.0759 28.5029 43.0886C28.5029 43.1014 28.5029 43.1141 28.5029 43.1268C28.5029 43.1395 28.5029 43.1522 28.5029 43.1649C28.5029 43.1776 28.5029 43.1903 28.5029 43.203C28.5029 43.2157 28.5029 43.2284 28.5029 43.241C28.5029 43.2537 28.5029 43.2664 28.5029 43.279C28.5029 43.2917 28.5029 43.3044 28.5029 43.317C28.5029 43.3297 28.5029 43.3423 28.5029 43.3549C28.5029 43.3676 28.5029 43.3802 28.5029 43.3928C28.5029 43.4055 28.5029 43.4181 28.5029 43.4307C28.5029 43.4433 28.5029 43.4559 28.5029 43.4685C28.5029 43.4811 28.5029 43.4937 28.5029 43.5063C28.5029 43.5189 28.5029 43.5314 28.5029 43.544C28.5029 43.5566 28.5029 43.5692 28.5029 43.5817C28.5029 43.5943 28.5029 43.6068 28.5029 43.6194C28.5029 43.6319 28.5029 43.6444 28.5029 43.657C28.5029 43.6695 28.5029 43.682 28.5029 43.6945C28.5029 43.707 28.5029 43.7195 28.5029 43.732C28.5029 43.7445 28.5029 43.757 28.5029 43.7695C28.5029 43.782 28.5029 43.7945 28.5029 43.8069C28.5029 43.8194 28.5029 43.8319 28.5029 43.8443C28.5029 43.8568 28.5029 43.8692 28.5029 43.8817C28.5029 43.8941 28.5029 43.9065 28.5029 43.919C28.5029 43.9314 28.5029 43.9438 28.5029 43.9562C28.5029 43.9686 28.5029 43.981 28.5029 43.9934C28.5029 44.0058 28.5029 44.0182 28.5029 44.0305C28.5029 44.0429 28.5029 44.0553 28.5029 44.0676C28.5029 44.08 28.5029 44.0924 28.5029 44.1047C28.5029 44.117 28.5029 44.1294 28.5029 44.1417C28.5029 44.154 28.5029 44.1663 28.5029 44.1786C28.5029 44.191 28.5029 44.2033 28.5029 44.2155C28.5029 44.2278 28.5029 44.2401 28.5029 44.2524C28.5029 44.2647 28.5029 44.2769 28.5029 44.2892C28.5029 44.3014 28.5029 44.3137 28.5029 44.3259C28.5029 44.3382 28.5029 44.3504 28.5029 44.3626C28.5029 44.3748 28.5029 44.387 28.5029 44.3992C28.5029 44.4114 28.5029 44.4236 28.5029 44.4358C28.5029 44.448 28.5029 44.4602 28.5029 44.4723C28.5029 44.4845 28.5029 44.4967 28.5029 44.5088C28.5029 44.521 28.5029 44.5331 28.5029 44.5452C28.5029 44.5574 28.5029 44.5695 28.5029 44.5816C28.5029 44.5937 28.5029 44.6058 28.5029 44.6179C28.5029 44.63 28.5029 44.6421 28.5029 44.6541C28.5029 44.6662 28.5029 44.6783 28.5029 44.6903C28.5029 44.7024 28.5029 44.7144 28.5029 44.7264C28.5029 44.7385 28.5029 44.7505 28.5029 44.7625C28.5029 44.7745 28.5029 44.7865 28.5029 44.7985C28.5029 44.8105 28.5029 44.8225 28.5029 44.8344C28.5029 44.8464 28.5029 44.8584 28.5029 44.8703C28.5029 44.8823 28.5029 44.8942 28.5029 44.9061C28.5029 44.9181 28.5029 44.93 28.5029 44.9419C28.5029 44.9538 28.5029 44.9657 28.5029 44.9776C28.5029 44.9895 28.5029 45.0014 28.5029 45.0132C28.5029 45.0251 28.5029 45.037 28.5029 45.0488C28.5029 45.0606 28.5029 45.0725 28.5029 45.0843C28.5029 45.0961 28.5029 45.1079 28.5029 45.1197C28.5029 45.1315 28.5029 45.1433 28.5029 45.1551C28.5029 45.1669 28.5029 45.1787 28.5029 45.1904C28.5029 45.2022 28.5029 45.2139 28.5029 45.2257C28.5029 45.2374 28.5029 45.2491 28.5029 45.2608C28.5029 45.2726 28.5029 45.2843 28.5029 45.2959C28.5029 45.3076 28.5029 45.3193 28.5029 45.331C28.5029 45.3427 28.5029 45.3543 28.5029 45.366C28.5029 45.3776 28.5029 45.3892 28.5029 45.4009C28.5029 45.4125 28.5029 45.4241 28.5029 45.4357C28.5029 45.4473 28.5029 45.4589 28.5029 45.4704C28.5029 45.482 28.5029 45.4936 28.5029 45.5051C28.5029 45.5167 28.5029 45.5282 28.5029 45.5397C28.5029 45.5513 28.5029 45.5628 28.5029 45.5743C28.5029 45.5858 28.5029 45.5973 28.5029 45.6088C28.5029 45.6202 28.5029 45.6317 28.5029 45.6432C28.5029 45.6546 28.5029 45.6661 28.5029 45.6775C28.5029 45.6889 28.5029 45.7003 28.5029 45.7117H32.5029C32.5029 45.7003 32.5029 45.6889 32.5029 45.6775C32.5029 45.6661 32.5029 45.6546 32.5029 45.6432C32.5029 45.6317 32.5029 45.6202 32.5029 45.6088C32.5029 45.5973 32.5029 45.5858 32.5029 45.5743C32.5029 45.5628 32.5029 45.5513 32.5029 45.5397C32.5029 45.5282 32.5029 45.5167 32.5029 45.5051C32.5029 45.4936 32.5029 45.482 32.5029 45.4704C32.5029 45.4589 32.5029 45.4473 32.5029 45.4357C32.5029 45.4241 32.5029 45.4125 32.5029 45.4009C32.5029 45.3892 32.5029 45.3776 32.5029 45.366C32.5029 45.3543 32.5029 45.3427 32.5029 45.331C32.5029 45.3193 32.5029 45.3076 32.5029 45.2959C32.5029 45.2843 32.5029 45.2726 32.5029 45.2608C32.5029 45.2491 32.5029 45.2374 32.5029 45.2257C32.5029 45.2139 32.5029 45.2022 32.5029 45.1904C32.5029 45.1787 32.5029 45.1669 32.5029 45.1551C32.5029 45.1433 32.5029 45.1315 32.5029 45.1197C32.5029 45.1079 32.5029 45.0961 32.5029 45.0843C32.5029 45.0725 32.5029 45.0606 32.5029 45.0488C32.5029 45.037 32.5029 45.0251 32.5029 45.0132C32.5029 45.0014 32.5029 44.9895 32.5029 44.9776C32.5029 44.9657 32.5029 44.9538 32.5029 44.9419C32.5029 44.93 32.5029 44.9181 32.5029 44.9061C32.5029 44.8942 32.5029 44.8823 32.5029 44.8703C32.5029 44.8584 32.5029 44.8464 32.5029 44.8344C32.5029 44.8225 32.5029 44.8105 32.5029 44.7985C32.5029 44.7865 32.5029 44.7745 32.5029 44.7625C32.5029 44.7505 32.5029 44.7385 32.5029 44.7264C32.5029 44.7144 32.5029 44.7024 32.5029 44.6903C32.5029 44.6783 32.5029 44.6662 32.5029 44.6541C32.5029 44.6421 32.5029 44.63 32.5029 44.6179C32.5029 44.6058 32.5029 44.5937 32.5029 44.5816C32.5029 44.5695 32.5029 44.5574 32.5029 44.5452C32.5029 44.5331 32.5029 44.521 32.5029 44.5088C32.5029 44.4967 32.5029 44.4845 32.5029 44.4723C32.5029 44.4602 32.5029 44.448 32.5029 44.4358C32.5029 44.4236 32.5029 44.4114 32.5029 44.3992C32.5029 44.387 32.5029 44.3748 32.5029 44.3626C32.5029 44.3504 32.5029 44.3382 32.5029 44.3259C32.5029 44.3137 32.5029 44.3014 32.5029 44.2892C32.5029 44.2769 32.5029 44.2647 32.5029 44.2524C32.5029 44.2401 32.5029 44.2278 32.5029 44.2155C32.5029 44.2033 32.5029 44.191 32.5029 44.1786C32.5029 44.1663 32.5029 44.154 32.5029 44.1417C32.5029 44.1294 32.5029 44.117 32.5029 44.1047C32.5029 44.0924 32.5029 44.08 32.5029 44.0676C32.5029 44.0553 32.5029 44.0429 32.5029 44.0305C32.5029 44.0182 32.5029 44.0058 32.5029 43.9934C32.5029 43.981 32.5029 43.9686 32.5029 43.9562C32.5029 43.9438 32.5029 43.9314 32.5029 43.919C32.5029 43.9065 32.5029 43.8941 32.5029 43.8817C32.5029 43.8692 32.5029 43.8568 32.5029 43.8443C32.5029 43.8319 32.5029 43.8194 32.5029 43.8069C32.5029 43.7945 32.5029 43.782 32.5029 43.7695C32.5029 43.757 32.5029 43.7445 32.5029 43.732C32.5029 43.7195 32.5029 43.707 32.5029 43.6945C32.5029 43.682 32.5029 43.6695 32.5029 43.657C32.5029 43.6444 32.5029 43.6319 32.5029 43.6194C32.5029 43.6068 32.5029 43.5943 32.5029 43.5817C32.5029 43.5692 32.5029 43.5566 32.5029 43.544C32.5029 43.5314 32.5029 43.5189 32.5029 43.5063C32.5029 43.4937 32.5029 43.4811 32.5029 43.4685C32.5029 43.4559 32.5029 43.4433 32.5029 43.4307C32.5029 43.4181 32.5029 43.4055 32.5029 43.3928C32.5029 43.3802 32.5029 43.3676 32.5029 43.3549C32.5029 43.3423 32.5029 43.3297 32.5029 43.317C32.5029 43.3044 32.5029 43.2917 32.5029 43.279C32.5029 43.2664 32.5029 43.2537 32.5029 43.241C32.5029 43.2284 32.5029 43.2157 32.5029 43.203C32.5029 43.1903 32.5029 43.1776 32.5029 43.1649C32.5029 43.1522 32.5029 43.1395 32.5029 43.1268C32.5029 43.1141 32.5029 43.1014 32.5029 43.0886C32.5029 43.0759 32.5029 43.0632 32.5029 43.0504C32.5029 43.0377 32.5029 43.025 32.5029 43.0122C32.5029 42.9995 32.5029 42.9867 32.5029 42.974C32.5029 42.9612 32.5029 42.9484 32.5029 42.9357C32.5029 42.9229 32.5029 42.9101 32.5029 42.8973C32.5029 42.8846 32.5029 42.8718 32.5029 42.859C32.5029 42.8462 32.5029 42.8334 32.5029 42.8206C32.5029 42.8078 32.5029 42.795 32.5029 42.7822C32.5029 42.7694 32.5029 42.7565 32.5029 42.7437C32.5029 42.7309 32.5029 42.7181 32.5029 42.7052C32.5029 42.6924 32.5029 42.6796 32.5029 42.6667C32.5029 42.6539 32.5029 42.641 32.5029 42.6282C32.5029 42.6153 32.5029 42.6025 32.5029 42.5896C32.5029 42.5768 32.5029 42.5639 32.5029 42.551C32.5029 42.5382 32.5029 42.5253 32.5029 42.5124C32.5029 42.4995 32.5029 42.4866 32.5029 42.4738C32.5029 42.4609 32.5029 42.448 32.5029 42.4351C32.5029 42.4222 32.5029 42.4093 32.5029 42.3964C32.5029 42.3835 32.5029 42.3706 32.5029 42.3577C32.5029 42.3447 32.5029 42.3318 32.5029 42.3189C32.5029 42.306 32.5029 42.2931 32.5029 42.2801C32.5029 42.2672 32.5029 42.2543 32.5029 42.2413C32.5029 42.2284 32.5029 42.2155 32.5029 42.2025C32.5029 42.1896 32.5029 42.1766 32.5029 42.1637C32.5029 42.1507 32.5029 42.1378 32.5029 42.1248C32.5029 42.1118 32.5029 42.0989 32.5029 42.0859C32.5029 42.0729 32.5029 42.06 32.5029 42.047C32.5029 42.034 32.5029 42.0211 32.5029 42.0081C32.5029 41.9951 32.5029 41.9821 32.5029 41.9691C32.5029 41.9561 32.5029 41.9432 32.5029 41.9302C32.5029 41.9172 32.5029 41.9042 32.5029 41.8912C32.5029 41.8782 32.5029 41.8652 32.5029 41.8522C32.5029 41.8392 32.5029 41.8262 32.5029 41.8132C32.5029 41.8001 32.5029 41.7871 32.5029 41.7741C32.5029 41.7611 32.5029 41.7481 32.5029 41.7351C32.5029 41.722 32.5029 41.709 32.5029 41.696C32.5029 41.683 32.5029 41.6699 32.5029 41.6569C32.5029 41.6439 32.5029 41.6309 32.5029 41.6178C32.5029 41.6048 32.5029 41.5917 32.5029 41.5787C32.5029 41.5657 32.5029 41.5526 32.5029 41.5396C32.5029 41.5265 32.5029 41.5135 32.5029 41.5004C32.5029 41.4874 32.5029 41.4743 32.5029 41.4613C32.5029 41.4482 32.5029 41.4352 32.5029 41.4221C32.5029 41.4091 32.5029 41.396 32.5029 41.383C32.5029 41.3699 32.5029 41.3568 32.5029 41.3438C32.5029 41.3307 32.5029 41.3176 32.5029 41.3046C32.5029 41.2915 32.5029 41.2784 32.5029 41.2654C32.5029 41.2523 32.5029 41.2392 32.5029 41.2262C32.5029 41.2131 32.5029 41.2 32.5029 41.1869C32.5029 41.1739 32.5029 41.1608 32.5029 41.1477C32.5029 41.1346 32.5029 41.1215 32.5029 41.1085C32.5029 41.0954 32.5029 41.0823 32.5029 41.0692C32.5029 41.0561 32.5029 41.0431 32.5029 41.03C32.5029 41.0169 32.5029 41.0038 32.5029 40.9907C32.5029 40.9776 32.5029 40.9645 32.5029 40.9515C32.5029 40.9384 32.5029 40.9253 32.5029 40.9122C32.5029 40.8991 32.5029 40.886 32.5029 40.8729C32.5029 40.8598 32.5029 40.8467 32.5029 40.8336C32.5029 40.8206 32.5029 40.8075 32.5029 40.7944C32.5029 40.7813 32.5029 40.7682 32.5029 40.7551C32.5029 40.742 32.5029 40.7289 32.5029 40.7158C32.5029 40.7027 32.5029 40.6896 32.5029 40.6765C32.5029 40.6634 32.5029 40.6503 32.5029 40.6372C32.5029 40.6242 32.5029 40.6111 32.5029 40.598C32.5029 40.5849 32.5029 40.5718 32.5029 40.5587C32.5029 40.5456 32.5029 40.5325 32.5029 40.5194C32.5029 40.5063 32.5029 40.4932 32.5029 40.4801C32.5029 40.467 32.5029 40.4539 32.5029 40.4408C32.5029 40.4278 32.5029 40.4147 32.5029 40.4016C32.5029 40.3885 32.5029 40.3754 32.5029 40.3623C32.5029 40.3492 32.5029 40.3361 32.5029 40.323C32.5029 40.3099 32.5029 40.2969 32.5029 40.2838C32.5029 40.2707 32.5029 40.2576 32.5029 40.2445C32.5029 40.2314 32.5029 40.2183 32.5029 40.2052C32.5029 40.1922 32.5029 40.1791 32.5029 40.166C32.5029 40.1529 32.5029 40.1398 32.5029 40.1268C32.5029 40.1137 32.5029 40.1006 32.5029 40.0875C32.5029 40.0745 32.5029 40.0614 32.5029 40.0483C32.5029 40.0352 32.5029 40.0222 32.5029 40.0091C32.5029 39.996 32.5029 39.9829 32.5029 39.9699C32.5029 39.9568 32.5029 39.9437 32.5029 39.9307C32.5029 39.9176 32.5029 39.9045 32.5029 39.8915C32.5029 39.8784 32.5029 39.8654 32.5029 39.8523C32.5029 39.8392 32.5029 39.8262 32.5029 39.8131C32.5029 39.8001 32.5029 39.787 32.5029 39.774C32.5029 39.7609 32.5029 39.7479 32.5029 39.7348C32.5029 39.7218 32.5029 39.7087 32.5029 39.6957C32.5029 39.6826 32.5029 39.6696 32.5029 39.6566C32.5029 39.6435 32.5029 39.6305 32.5029 39.6175C32.5029 39.6044 32.5029 39.5914 32.5029 39.5784C32.5029 39.5653 32.5029 39.5523 32.5029 39.5393C32.5029 39.5263 32.5029 39.5132 32.5029 39.5002C32.5029 39.4872 32.5029 39.4742 32.5029 39.4612C32.5029 39.4482 32.5029 39.4352 32.5029 39.4221C32.5029 39.4091 32.5029 39.3961 32.5029 39.3831C32.5029 39.3701 32.5029 39.3571 32.5029 39.3441C32.5029 39.3311 32.5029 39.3181 32.5029 39.3052C32.5029 39.2922 32.5029 39.2792 32.5029 39.2662C32.5029 39.2532 32.5029 39.2402 32.5029 39.2273C32.5029 39.2143 32.5029 39.2013 32.5029 39.1883C32.5029 39.1754 32.5029 39.1624 32.5029 39.1494C32.5029 39.1365 32.5029 39.1235 32.5029 39.1106C32.5029 39.0976 32.5029 39.0847 32.5029 39.0717C32.5029 39.0588 32.5029 39.0458 32.5029 39.0329C32.5029 39.0199 32.5029 39.007 32.5029 38.9941C32.5029 38.9811 32.5029 38.9682 32.5029 38.9553C32.5029 38.9423 32.5029 38.9294 32.5029 38.9165C32.5029 38.9036 32.5029 38.8907 32.5029 38.8778C32.5029 38.8648 32.5029 38.8519 32.5029 38.839C32.5029 38.8261 32.5029 38.8132 32.5029 38.8003C32.5029 38.7875 32.5029 38.7746 32.5029 38.7617C32.5029 38.7488 32.5029 38.7359 32.5029 38.723C32.5029 38.7102 32.5029 38.6973 32.5029 38.6844C32.5029 38.6716 32.5029 38.6587 32.5029 38.6458C32.5029 38.633 32.5029 38.6201 32.5029 38.6073C32.5029 38.5944 32.5029 38.5816 32.5029 38.5688C32.5029 38.5559 32.5029 38.5431 32.5029 38.5303C32.5029 38.5174 32.5029 38.5046 32.5029 38.4918C32.5029 38.479 32.5029 38.4662 32.5029 38.4533C32.5029 38.4405 32.5029 38.4277 32.5029 38.4149C32.5029 38.4021 32.5029 38.3893 32.5029 38.3766C32.5029 38.3638 32.5029 38.351 32.5029 38.3382C32.5029 38.3254 32.5029 38.3127 32.5029 38.2999C32.5029 38.2871 32.5029 38.2744 32.5029 38.2616C32.5029 38.2489 32.5029 38.2361 32.5029 38.2234C32.5029 38.2106 32.5029 38.1979 32.5029 38.1852C32.5029 38.1724 32.5029 38.1597 32.5029 38.147C32.5029 38.1343 32.5029 38.1216 32.5029 38.1088C32.5029 38.0961 32.5029 38.0834 32.5029 38.0707C32.5029 38.058 32.5029 38.0453 32.5029 38.0327C32.5029 38.02 32.5029 38.0073 32.5029 37.9946C32.5029 37.982 32.5029 37.9693 32.5029 37.9566C32.5029 37.944 32.5029 37.9313 32.5029 37.9187C32.5029 37.906 32.5029 37.8934 32.5029 37.8808C32.5029 37.8681 32.5029 37.8555 32.5029 37.8429C32.5029 37.8303 32.5029 37.8176 32.5029 37.805C32.5029 37.7924 32.5029 37.7798 32.5029 37.7672C32.5029 37.7546 32.5029 37.7421 32.5029 37.7295C32.5029 37.7169 32.5029 37.7043 32.5029 37.6918C32.5029 37.6792 32.5029 37.6666 32.5029 37.6541C32.5029 37.6415 32.5029 37.629 32.5029 37.6165C32.5029 37.6039 32.5029 37.5914 32.5029 37.5789C32.5029 37.5663 32.5029 37.5538 32.5029 37.5413C32.5029 37.5288 32.5029 37.5163 32.5029 37.5038C32.5029 37.4913 32.5029 37.4788 32.5029 37.4664C32.5029 37.4539 32.5029 37.4414 32.5029 37.4289C32.5029 37.4165 32.5029 37.404 32.5029 37.3916C32.5029 37.3791 32.5029 37.3667 32.5029 37.3543C32.5029 37.3418 32.5029 37.3294 32.5029 37.317C32.5029 37.3046 32.5029 37.2922 32.5029 37.2798C32.5029 37.2674 32.5029 37.255 32.5029 37.2426C32.5029 37.2302 32.5029 37.2178 32.5029 37.2054C32.5029 37.1931 32.5029 37.1807 32.5029 37.1684C32.5029 37.156 32.5029 37.1437 32.5029 37.1313C32.5029 37.119 32.5029 37.1067 32.5029 37.0944C32.5029 37.082 32.5029 37.0697 32.5029 37.0574C32.5029 37.0451 32.5029 37.0328 32.5029 37.0205C32.5029 37.0083 32.5029 36.996 32.5029 36.9837C32.5029 36.9714 32.5029 36.9592 32.5029 36.9469C32.5029 36.9347 32.5029 36.9225 32.5029 36.9102C32.5029 36.898 32.5029 36.8858 32.5029 36.8736C32.5029 36.8613 32.5029 36.8491 32.5029 36.8369C32.5029 36.8247 32.5029 36.8126 32.5029 36.8004C32.5029 36.7882 32.5029 36.776 32.5029 36.7639C32.5029 36.7517 32.5029 36.7396 32.5029 36.7274C32.5029 36.7153 32.5029 36.7032 32.5029 36.691C32.5029 36.6789 32.5029 36.6668 32.5029 36.6547C32.5029 36.6426 32.5029 36.6305 32.5029 36.6184C32.5029 36.6063 32.5029 36.5943 32.5029 36.5822C32.5029 36.5701 32.5029 36.5581 32.5029 36.546C32.5029 36.534 32.5029 36.522 32.5029 36.5099C32.5029 36.4979 32.5029 36.4859 32.5029 36.4739C32.5029 36.4619 32.5029 36.4499 32.5029 36.4379C32.5029 36.4259 32.5029 36.414 32.5029 36.402C32.5029 36.39 32.5029 36.3781 32.5029 36.3661C32.5029 36.3542 32.5029 36.3423 32.5029 36.3303C32.5029 36.3184 32.5029 36.3065 32.5029 36.2946C32.5029 36.2827 32.5029 36.2708 32.5029 36.2589C32.5029 36.247 32.5029 36.2352 32.5029 36.2233C32.5029 36.2115 32.5029 36.1996 32.5029 36.1878C32.5029 36.1759 32.5029 36.1641 32.5029 36.1523C32.5029 36.1405 32.5029 36.1287 32.5029 36.1169C32.5029 36.1051 32.5029 36.0933 32.5029 36.0815C32.5029 36.0697 32.5029 36.058 32.5029 36.0462C32.5029 36.0345 32.5029 36.0227 32.5029 36.011C32.5029 35.9993 32.5029 35.9876 32.5029 35.9759C32.5029 35.9642 32.5029 35.9525 32.5029 35.9408C32.5029 35.9291 32.5029 35.9174 32.5029 35.9058C32.5029 35.8941 32.5029 35.8825 32.5029 35.8708C32.5029 35.8592 32.5029 35.8476 32.5029 35.836C32.5029 35.8243 32.5029 35.8127 32.5029 35.8011C32.5029 35.7896 32.5029 35.778 32.5029 35.7664C32.5029 35.7548 32.5029 35.7433 32.5029 35.7318C32.5029 35.7202 32.5029 35.7087 32.5029 35.6972C32.5029 35.6856 32.5029 35.6741 32.5029 35.6626C32.5029 35.6511 32.5029 35.6397 32.5029 35.6282C32.5029 35.6167 32.5029 35.6053 32.5029 35.5938C32.5029 35.5824 32.5029 35.5709 32.5029 35.5595C32.5029 35.5481 32.5029 35.5367 32.5029 35.5253C32.5029 35.5139 32.5029 35.5025 32.5029 35.4912C32.5029 35.4798 32.5029 35.4684 32.5029 35.4571C32.5029 35.4457 32.5029 35.4344 32.5029 35.4231C32.5029 35.4118 32.5029 35.4005 32.5029 35.3892C32.5029 35.3779 32.5029 35.3666 32.5029 35.3553C32.5029 35.3441 32.5029 35.3328 32.5029 35.3216C32.5029 35.3103 32.5029 35.2991 32.5029 35.2879C32.5029 35.2767 32.5029 35.2655 32.5029 35.2543C32.5029 35.2431 32.5029 35.2319 32.5029 35.2207C32.5029 35.2096 32.5029 35.1984 32.5029 35.1873C32.5029 35.1762 32.5029 35.165 32.5029 35.1539C32.5029 35.1428 32.5029 35.1317 32.5029 35.1206C32.5029 35.1096 32.5029 35.0985 32.5029 35.0874C32.5029 35.0764 32.5029 35.0653 32.5029 35.0543C32.5029 35.0433 32.5029 35.0323 32.5029 35.0213C32.5029 35.0103 32.5029 34.9993 32.5029 34.9883C32.5029 34.9773 32.5029 34.9664 32.5029 34.9554C32.5029 34.9445 32.5029 34.9336 32.5029 34.9227C32.5029 34.9117 32.5029 34.9008 32.5029 34.89C32.5029 34.8791 32.5029 34.8682 32.5029 34.8573C32.5029 34.8465 32.5029 34.8356 32.5029 34.8248C32.5029 34.814 32.5029 34.8032 32.5029 34.7924C32.5029 34.7816 32.5029 34.7708 32.5029 34.76C32.5029 34.7492 32.5029 34.7385 32.5029 34.7277C32.5029 34.717 32.5029 34.7063 32.5029 34.6956C32.5029 34.6849 32.5029 34.6742 32.5029 34.6635C32.5029 34.6528 32.5029 34.6421 32.5029 34.6315C32.5029 34.6208 32.5029 34.6102 32.5029 34.5996C32.5029 34.5889 32.5029 34.5783 32.5029 34.5677C32.5029 34.5572 32.5029 34.5466 32.5029 34.536C32.5029 34.5255 32.5029 34.5149 32.5029 34.5044C32.5029 34.4939 32.5029 34.4833 32.5029 34.4728C32.5029 34.4623 32.5029 34.4519 32.5029 34.4414C32.5029 34.4309 32.5029 34.4205 32.5029 34.41C32.5029 34.3996 32.5029 34.3892 32.5029 34.3788C32.5029 34.3684 32.5029 34.358 32.5029 34.3476C32.5029 34.3372 32.5029 34.3269 32.5029 34.3165C32.5029 34.3062 32.5029 34.2958 32.5029 34.2855C32.5029 34.2752 32.5029 34.2649 32.5029 34.2547C32.5029 34.2444 32.5029 34.2341 32.5029 34.2239C32.5029 34.2136 32.5029 34.2034 32.5029 34.1932C32.5029 34.183 32.5029 34.1728 32.5029 34.1626C32.5029 34.1524 32.5029 34.1422 32.5029 34.1321C32.5029 34.1219 32.5029 34.1118 32.5029 34.1017C32.5029 34.0916 32.5029 34.0815 32.5029 34.0714C32.5029 34.0613 32.5029 34.0513 32.5029 34.0412C32.5029 34.0312 32.5029 34.0211 32.5029 34.0111C32.5029 34.0011 32.5029 33.9911 32.5029 33.9811C32.5029 33.9711 32.5029 33.9612 32.5029 33.9512C32.5029 33.9413 32.5029 33.9314 32.5029 33.9214C32.5029 33.9115 32.5029 33.9016 32.5029 33.8918C32.5029 33.8819 32.5029 33.872 32.5029 33.8622C32.5029 33.8523 32.5029 33.8425 32.5029 33.8327C32.5029 33.8229 32.5029 33.8131 32.5029 33.8033C32.5029 33.7935 32.5029 33.7838 32.5029 33.7741C32.5029 33.7643 32.5029 33.7546 32.5029 33.7449C32.5029 33.7352 32.5029 33.7255 32.5029 33.7158C32.5029 33.7062 32.5029 33.6965 32.5029 33.6869C32.5029 33.6772 32.5029 33.6676 32.5029 33.658C32.5029 33.6484 32.5029 33.6389 32.5029 33.6293C32.5029 33.6197 32.5029 33.6102 32.5029 33.6007C32.5029 33.5912 32.5029 33.5816 32.5029 33.5722C32.5029 33.5627 32.5029 33.5532 32.5029 33.5437C32.5029 33.5343 32.5029 33.5249 32.5029 33.5154C32.5029 33.506 32.5029 33.4966 32.5029 33.4873C32.5029 33.4779 32.5029 33.4685 32.5029 33.4592C32.5029 33.4498 32.5029 33.4405 32.5029 33.4312C32.5029 33.4219 32.5029 33.4126 32.5029 33.4034C32.5029 33.3941 32.5029 33.3848 32.5029 33.3756C32.5029 33.3664 32.5029 33.3572 32.5029 33.348C32.5029 33.3388 32.5029 33.3296 32.5029 33.3205C32.5029 33.3113 32.5029 33.3022 32.5029 33.2931C32.5029 33.284 32.5029 33.2749 32.5029 33.2658C32.5029 33.2567 32.5029 33.2477 32.5029 33.2386C32.5029 33.2296 32.5029 33.2206 32.5029 33.2116C32.5029 33.2026 32.5029 33.1936 32.5029 33.1846C32.5029 33.1757 32.5029 33.1667 32.5029 33.1578C32.5029 33.1489 32.5029 33.14 32.5029 33.1311C32.5029 33.1222 32.5029 33.1134 32.5029 33.1045C32.5029 33.0957 32.5029 33.0869 32.5029 33.0781C32.5029 33.0693 32.5029 33.0605 32.5029 33.0517C32.5029 33.043 32.5029 33.0342 32.5029 33.0255C32.5029 33.0168 32.5029 33.0081 32.5029 32.9994C32.5029 32.9907 32.5029 32.9821 32.5029 32.9734C32.5029 32.9648 32.5029 32.9562 32.5029 32.9476C32.5029 32.939 32.5029 32.9304 32.5029 32.9218C32.5029 32.9133 32.5029 32.9047 32.5029 32.8962C32.5029 32.8877 32.5029 32.8792 32.5029 32.8707C32.5029 32.8622 32.5029 32.8538 32.5029 32.8453C32.5029 32.8369 32.5029 32.8285 32.5029 32.8201C32.5029 32.8117 32.5029 32.8033 32.5029 32.795C32.5029 32.7866 32.5029 32.7783 32.5029 32.77C32.5029 32.7617 32.5029 32.7534 32.5029 32.7451C32.5029 32.7369 32.5029 32.7286 32.5029 32.7204C32.5029 32.7122 32.5029 32.7039 32.5029 32.6958C32.5029 32.6876 32.5029 32.6794 32.5029 32.6713C32.5029 32.6631 32.5029 32.655 32.5029 32.6469C32.5029 32.6388 32.5029 32.6307 32.5029 32.6227C32.5029 32.6146 32.5029 32.6066 32.5029 32.5986C32.5029 32.5906 32.5029 32.5826 32.5029 32.5746C32.5029 32.5667 32.5029 32.5587 32.5029 32.5508C32.5029 32.5429 32.5029 32.535 32.5029 32.5271C32.5029 32.5192 32.5029 32.5113 32.5029 32.5035C32.5029 32.4957 32.5029 32.4878 32.5029 32.4801C32.5029 32.4723 32.5029 32.4645 32.5029 32.4567C32.5029 32.449 32.5029 32.4413 32.5029 32.4336C32.5029 32.4259 32.5029 32.4182 32.5029 32.4105C32.5029 32.4029 32.5029 32.3952 32.5029 32.3876C32.5029 32.38 32.5029 32.3724 32.5029 32.3648C32.5029 32.3573 32.5029 32.3497 32.5029 32.3422C32.5029 32.3347 32.5029 32.3272 32.5029 32.3197C32.5029 32.3122 32.5029 32.3048 32.5029 32.2973C32.5029 32.2899 32.5029 32.2825 32.5029 32.2751C32.5029 32.2677 32.5029 32.2603 32.5029 32.253C32.5029 32.2457 32.5029 32.2383 32.5029 32.231C32.5029 32.2237 32.5029 32.2165 32.5029 32.2092C32.5029 32.202 32.5029 32.1948 32.5029 32.1876C32.5029 32.1804 32.5029 32.1732 32.5029 32.166C32.5029 32.1589 32.5029 32.1517 32.5029 32.1446C32.5029 32.1375 32.5029 32.1304 32.5029 32.1234C32.5029 32.1163 32.5029 32.1093 32.5029 32.1023C32.5029 32.0952 32.5029 32.0882 32.5029 32.0813C32.5029 32.0743 32.5029 32.0674 32.5029 32.0605C32.5029 32.0535 32.5029 32.0466 32.5029 32.0398C32.5029 32.0329 32.5029 32.0261 32.5029 32.0192C32.5029 32.0124 32.5029 32.0056 32.5029 31.9988C32.5029 31.9921 32.5029 31.9853 32.5029 31.9786C32.5029 31.9719 32.5029 31.9652 32.5029 31.9585C32.5029 31.9518 32.5029 31.9451 32.5029 31.9385C32.5029 31.9319 32.5029 31.9253 32.5029 31.9187C32.5029 31.9121 32.5029 31.9056 32.5029 31.899C32.5029 31.8925 32.5029 31.886 32.5029 31.8795C32.5029 31.873 32.5029 31.8666 32.5029 31.8601C32.5029 31.8537 32.5029 31.8473 32.5029 31.8409C32.5029 31.8345 32.5029 31.8282 32.5029 31.8218C32.5029 31.8155 32.5029 31.8092 32.5029 31.8029C32.5029 31.7966 32.5029 31.7904 32.5029 31.7841C32.5029 31.7779 32.5029 31.7717 32.5029 31.7655C32.5029 31.7593 32.5029 31.7532 32.5029 31.7471C32.5029 31.7409 32.5029 31.7348 32.5029 31.7287C32.5029 31.7227 32.5029 31.7166 32.5029 31.7106C32.5029 31.7045 32.5029 31.6985 32.5029 31.6926C32.5029 31.6866 32.5029 31.6806 32.5029 31.6747C32.5029 31.6688 32.5029 31.6629 32.5029 31.657C32.5029 31.6511 32.5029 31.6453 32.5029 31.6395C32.5029 31.6336 32.5029 31.6278 32.5029 31.6221C32.5029 31.6163 32.5029 31.6105 32.5029 31.6048C32.5029 31.5991 32.5029 31.5934 32.5029 31.5877C32.5029 31.5821 32.5029 31.5764 32.5029 31.5708C32.5029 31.5652 32.5029 31.5596 32.5029 31.554C32.5029 31.5485 32.5029 31.5429 32.5029 31.5374C32.5029 31.5319 32.5029 31.5264 32.5029 31.521C32.5029 31.5155 32.5029 31.5101 32.5029 31.5047C32.5029 31.4993 32.5029 31.4939 32.5029 31.4886C32.5029 31.4832 32.5029 31.4779 32.5029 31.4726C32.5029 31.4673 32.5029 31.462 32.5029 31.4568C32.5029 31.4515 32.5029 31.4463 32.5029 31.4411C32.5029 31.436 32.5029 31.4308 32.5029 31.4257C32.5029 31.4205 32.5029 31.4154 32.5029 31.4103C32.5029 31.4053 32.5029 31.4002 32.5029 31.3952C32.5029 31.3901 32.5029 31.3851 32.5029 31.3802C32.5029 31.3752 32.5029 31.3703 32.5029 31.3653C32.5029 31.3604 32.5029 31.3555 32.5029 31.3507C32.5029 31.3458 32.5029 31.341 32.5029 31.3362C32.5029 31.3314 32.5029 31.3266 32.5029 31.3218C32.5029 31.3171 32.5029 31.3124 32.5029 31.3077C32.5029 31.303 32.5029 31.2983 32.5029 31.2937C32.5029 31.289 32.5029 31.2844 32.5029 31.2798C32.5029 31.2753 32.5029 31.2707 32.5029 31.2662C32.5029 31.2616 32.5029 31.2571 32.5029 31.2527C32.5029 31.2482 32.5029 31.2438 32.5029 31.2393C32.5029 31.2349 32.5029 31.2305 32.5029 31.2262C32.5029 31.2218 32.5029 31.2175 32.5029 31.2132C32.5029 31.2089 32.5029 31.2046 32.5029 31.2004C32.5029 31.1961 32.5029 31.1919 32.5029 31.1877C32.5029 31.1835 32.5029 31.1794 32.5029 31.1753C32.5029 31.1711 32.5029 31.167 32.5029 31.163C32.5029 31.1589 32.5029 31.1548 32.5029 31.1508C32.5029 31.1468 32.5029 31.1428 32.5029 31.1389C32.5029 31.1349 32.5029 31.131 32.5029 31.1271C32.5029 31.1232 32.5029 31.1193 32.5029 31.1155C32.5029 31.1117 32.5029 31.1078 32.5029 31.1041C32.5029 31.1003 32.5029 31.0965 32.5029 31.0928C32.5029 31.0891 32.5029 31.0854 32.5029 31.0817C32.5029 31.0781 32.5029 31.0744 32.5029 31.0708C32.5029 31.0672 32.5029 31.0637 32.5029 31.0601C32.5029 31.0566 32.5029 31.053 32.5029 31.0496C32.5029 31.0461 32.5029 31.0426 32.5029 31.0392C32.5029 31.0358 32.5029 31.0324 32.5029 31.029C32.5029 31.0256 32.5029 31.0223 32.5029 31.019C32.5029 31.0157 32.5029 31.0124 32.5029 31.0092C32.5029 31.0059 32.5029 31.0027 32.5029 30.9995C32.5029 30.9963 32.5029 30.9932 32.5029 30.9901C32.5029 30.9869 32.5029 30.9838 32.5029 30.9808C32.5029 30.9777 32.5029 30.9747 32.5029 30.9717C32.5029 30.9687 32.5029 30.9657 32.5029 30.9628C32.5029 30.9598 32.5029 30.9569 32.5029 30.954C32.5029 30.9512 32.5029 30.9483 32.5029 30.9455C32.5029 30.9427 32.5029 30.9399 32.5029 30.9371C32.5029 30.9344 32.5029 30.9316 32.5029 30.9289C32.5029 30.9262 32.5029 30.9236 32.5029 30.9209C32.5029 30.9183 32.5029 30.9157 32.5029 30.9131C32.5029 30.9106 32.5029 30.908 32.5029 30.9055C32.5029 30.903 32.5029 30.9005 32.5029 30.8981C32.5029 30.8956 32.5029 30.8932 32.5029 30.8908C32.5029 30.8885 32.5029 30.8861 32.5029 30.8838C32.5029 30.8815 32.5029 30.8792 32.5029 30.8769C32.5029 30.8747 32.5029 30.8724 32.5029 30.8702C32.5029 30.8681 32.5029 30.8659 32.5029 30.8638C32.5029 30.8616 32.5029 30.8595 32.5029 30.8575C32.5029 30.8554 32.5029 30.8534 32.5029 30.8514C32.5029 30.8494 32.5029 30.8474 32.5029 30.8454C32.5029 30.8435 32.5029 30.8416 32.5029 30.8397C32.5029 30.8379 32.5029 30.836 32.5029 30.8342C32.5029 30.8324 32.5029 30.8306 32.5029 30.8289C32.5029 30.8271 32.5029 30.8254 32.5029 30.8237C32.5029 30.8221 32.5029 30.8204 32.5029 30.8188C32.5029 30.8172 32.5029 30.8156 32.5029 30.814C32.5029 30.8125 32.5029 30.811 32.5029 30.8095C32.5029 30.808 32.5029 30.8065 32.5029 30.8051C32.5029 30.8037 32.5029 30.8023 32.5029 30.801C32.5029 30.7996 32.5029 30.7983 32.5029 30.797C32.5029 30.7957 32.5029 30.7945 32.5029 30.7932C32.5029 30.792 32.5029 30.7908 32.5029 30.7897C32.5029 30.7885 32.5029 30.7874 32.5029 30.7863C32.5029 30.7852 32.5029 30.7842 32.5029 30.7831C32.5029 30.7821 32.5029 30.7811 32.5029 30.7802C32.5029 30.7792 32.5029 30.7783 32.5029 30.7774C32.5029 30.7765 32.5029 30.7757 32.5029 30.7749C32.5029 30.774 32.5029 30.7732 32.5029 30.7725C32.5029 30.7717 32.5029 30.771 32.5029 30.7703C32.5029 30.7696 32.5029 30.769 32.5029 30.7684C32.5029 30.7678 32.5029 30.7672 32.5029 30.7666C32.5029 30.7661 32.5029 30.7656 32.5029 30.7651C32.5029 30.7646 32.5029 30.7641 32.5029 30.7637C32.5029 30.7633 32.5029 30.7629 32.5029 30.7626C32.5029 30.7622 32.5029 30.7619 32.5029 30.7617C32.5029 30.7614 32.5029 30.7611 32.5029 30.7609C32.5029 30.7607 32.5029 30.7605 32.5029 30.7604C32.5029 30.7603 32.5029 30.7602 32.5029 30.7601C32.5029 30.76 32.5029 30.76 30.5029 30.76Z" fill="#737373"/>
</svg>
