<svg width="24" height="24" viewBox="0 0 24 24" fill="none" xmlns="http://www.w3.org/2000/svg">
<path d="M10.2 21H8.625M20.1 6.5V6C20.1 4.89543 19.2046 4 18.1 4H14.25M14.25 4H8.625M14.25 4V9M3 9.36842V6C3 4.89543 3.89543 4 5 4H8.625M3 9.36842H8.625H16M3 9.36842V15.1842V19C3 20.1046 3.89543 21 5 21H8.625M8.625 4V15.1842V21" stroke="#007CC3" stroke-linecap="round"/>
<path d="M16.0502 17.4215C16.7958 17.4215 17.4002 16.8206 17.4002 16.0794C17.4002 15.3382 16.7958 14.7373 16.0502 14.7373C15.3046 14.7373 14.7002 15.3382 14.7002 16.0794C14.7002 16.8206 15.3046 17.4215 16.0502 17.4215Z" stroke="#007CC3" stroke-linecap="round" stroke-linejoin="round"/>
<path d="M19.3796 17.4214C19.3197 17.5563 19.3018 17.706 19.3283 17.8511C19.3548 17.9962 19.4244 18.1301 19.5281 18.2356L19.5551 18.2624C19.6388 18.3455 19.7052 18.4442 19.7505 18.5528C19.7958 18.6614 19.8191 18.7779 19.8191 18.8954C19.8191 19.013 19.7958 19.1295 19.7505 19.2381C19.7052 19.3467 19.6388 19.4454 19.5551 19.5285C19.4715 19.6117 19.3723 19.6777 19.263 19.7227C19.1537 19.7677 19.0366 19.7909 18.9184 19.7909C18.8001 19.7909 18.683 19.7677 18.5737 19.7227C18.4645 19.6777 18.3652 19.6117 18.2816 19.5285L18.2546 19.5016C18.1486 19.3985 18.0139 19.3293 17.8679 19.303C17.7219 19.2767 17.5713 19.2944 17.4356 19.354C17.3025 19.4107 17.189 19.5049 17.109 19.6249C17.0291 19.7449 16.9862 19.8856 16.9856 20.0295V20.1056C16.9856 20.3429 16.8908 20.5705 16.722 20.7382C16.5532 20.906 16.3243 21.0003 16.0856 21.0003C15.8469 21.0003 15.618 20.906 15.4492 20.7382C15.2804 20.5705 15.1856 20.3429 15.1856 20.1056V20.0653C15.1821 19.9172 15.1339 19.7736 15.0472 19.6531C14.9606 19.5327 14.8394 19.4409 14.6996 19.3898C14.5639 19.3302 14.4133 19.3125 14.2673 19.3388C14.1214 19.3651 13.9867 19.4343 13.8806 19.5374L13.8536 19.5643C13.77 19.6474 13.6708 19.7134 13.5615 19.7585C13.4522 19.8035 13.3351 19.8267 13.2169 19.8267C13.0986 19.8267 12.9815 19.8035 12.8722 19.7585C12.763 19.7134 12.6637 19.6474 12.5801 19.5643C12.4964 19.4812 12.43 19.3825 12.3848 19.2739C12.3395 19.1652 12.3162 19.0488 12.3162 18.9312C12.3162 18.8136 12.3395 18.6972 12.3848 18.5886C12.43 18.48 12.4964 18.3813 12.5801 18.2982L12.6071 18.2714C12.7109 18.1659 12.7804 18.032 12.8069 17.8869C12.8334 17.7418 12.8155 17.5921 12.7556 17.4572C12.6986 17.3248 12.6038 17.212 12.4831 17.1325C12.3624 17.053 12.2209 17.0104 12.0761 17.0098H11.9996C11.7609 17.0098 11.532 16.9155 11.3632 16.7477C11.1944 16.5799 11.0996 16.3523 11.0996 16.115C11.0996 15.8777 11.1944 15.6502 11.3632 15.4824C11.532 15.3146 11.7609 15.2203 11.9996 15.2203H12.0401C12.1891 15.2168 12.3335 15.1689 12.4547 15.0827C12.5759 14.9966 12.6682 14.8762 12.7196 14.7372C12.7795 14.6022 12.7974 14.4525 12.7709 14.3074C12.7444 14.1623 12.6749 14.0284 12.5711 13.9229L12.5441 13.8961C12.4604 13.813 12.394 13.7143 12.3488 13.6057C12.3035 13.4971 12.2802 13.3807 12.2802 13.2631C12.2802 13.1455 12.3035 13.0291 12.3488 12.9204C12.394 12.8118 12.4604 12.7131 12.5441 12.63C12.6277 12.5469 12.727 12.4809 12.8362 12.4358C12.9455 12.3908 13.0626 12.3676 13.1809 12.3676C13.2991 12.3676 13.4162 12.3908 13.5255 12.4358C13.6348 12.4809 13.734 12.5469 13.8176 12.63L13.8446 12.6569C13.9507 12.76 14.0854 12.8292 14.2313 12.8555C14.3773 12.8818 14.5279 12.8641 14.6636 12.8045H14.6996C14.8327 12.7478 14.9462 12.6536 15.0262 12.5336C15.1061 12.4136 15.149 12.2729 15.1496 12.129V12.0529C15.1496 11.8156 15.2444 11.5881 15.4132 11.4203C15.582 11.2525 15.8109 11.1582 16.0496 11.1582C16.2883 11.1582 16.5172 11.2525 16.686 11.4203C16.8548 11.5881 16.9496 11.8156 16.9496 12.0529V12.0932C16.9502 12.2372 16.9931 12.3778 17.073 12.4978C17.153 12.6179 17.2665 12.712 17.3996 12.7687C17.5353 12.8283 17.6859 12.846 17.8319 12.8197C17.9779 12.7934 18.1126 12.7242 18.2186 12.6211L18.2456 12.5943C18.3292 12.5111 18.4285 12.4451 18.5377 12.4C18.647 12.355 18.7641 12.3318 18.8824 12.3318C19.0006 12.3318 19.1177 12.355 19.227 12.4C19.3363 12.4451 19.4355 12.5111 19.5191 12.5943C19.6028 12.6774 19.6692 12.776 19.7145 12.8847C19.7598 12.9933 19.7831 13.1097 19.7831 13.2273C19.7831 13.3449 19.7598 13.4613 19.7145 13.5699C19.6692 13.6785 19.6028 13.7772 19.5191 13.8603L19.4921 13.8872C19.3884 13.9926 19.3188 14.1265 19.2923 14.2716C19.2658 14.4167 19.2837 14.5664 19.3436 14.7014V14.7372C19.4007 14.8695 19.4954 14.9823 19.6161 15.0618C19.7368 15.1413 19.8783 15.1839 20.0231 15.1845H20.0996C20.3383 15.1845 20.5672 15.2788 20.736 15.4466C20.9048 15.6144 20.9996 15.842 20.9996 16.0793C20.9996 16.3166 20.9048 16.5441 20.736 16.7119C20.5672 16.8797 20.3383 16.974 20.0996 16.974H20.0591C19.9143 16.9746 19.7728 17.0172 19.6521 17.0967C19.5314 17.1762 19.4367 17.289 19.3796 17.4214V17.4214Z" stroke="#007CC3" stroke-linecap="round" stroke-linejoin="round"/>
</svg>
