<svg width="879" height="693" viewBox="0 0 879 693" fill="none" xmlns="http://www.w3.org/2000/svg">
<path d="M639.423 450.522L160.269 680.187C142.755 688.676 123.258 693 103.762 693H98.6397C44.1152 693 0 650.238 0 597.386V102.981C0 46.1253 47.585 0 106.24 0H669.659C785.317 0 879 90.8091 879 202.919V213.329C879 299.654 824.145 377.01 741.037 408.08L639.423 450.522Z" fill="#FCFCFF"/>
<path d="M139.617 91.9296C137.635 91.9296 136.478 91.9296 134.66 91.9296C133.834 91.9296 133.504 91.6093 133.504 90.8085C133.504 89.8476 133.504 88.8866 133.504 87.7655C133.504 87.1249 133.669 86.9648 134.33 86.9648C135.982 86.9648 137.469 86.9648 139.122 86.9648C139.452 86.9648 139.782 86.9648 140.113 86.9648C140.443 84.0819 141.104 81.3593 142.591 78.9569C144.904 74.953 148.374 72.5506 153.166 71.91C156.966 71.4295 160.766 71.5897 164.566 72.2303C166.714 72.5506 166.879 72.7108 166.879 74.7928C166.879 76.3944 166.879 77.9959 166.879 79.4374C166.879 79.7577 166.879 80.078 166.879 80.3983C165.888 79.5975 164.897 78.9569 163.905 78.3163C162.088 77.035 160.105 76.5545 157.957 76.2342C156.305 76.0741 154.653 76.0741 153.166 76.2342C150.192 76.7147 148.539 78.6366 147.879 81.5194C147.548 83.121 147.548 84.8827 147.383 86.8046C147.879 86.8046 148.209 86.8046 148.705 86.8046C157.957 86.8046 167.045 86.8046 176.297 86.8046C177.619 86.8046 178.941 86.6444 180.263 86.6444C184.228 86.6444 188.028 87.7655 191.333 89.8476C193.15 90.9687 194.803 92.0898 196.29 93.5312C198.438 95.6132 200.255 98.0156 201.577 100.738C201.742 101.059 201.907 101.219 202.238 101.539C202.238 101.219 202.238 100.898 202.238 100.578C202.238 95.6132 204.716 92.0898 209.012 89.8476C211.656 88.4062 214.63 87.6054 217.604 87.2851C223.056 86.6444 228.509 87.2851 233.796 88.7265C234.126 88.8866 234.622 89.207 234.787 89.5273C237.266 95.1328 239.579 100.898 241.892 106.504C244.205 112.109 246.518 117.555 248.997 123.16C249.327 123.961 249.492 124.922 249.988 126.043C250.153 125.723 250.318 125.402 250.484 125.242C252.962 119.316 255.275 113.391 257.753 107.465C259.241 103.621 260.893 99.7773 262.38 95.9336C263.867 92.5703 266.51 90.4882 269.815 89.0468C272.459 87.9257 275.267 87.4452 278.241 87.2851C282.537 86.9648 286.503 87.4452 290.633 88.5663C291.459 88.8866 291.79 89.207 291.79 90.0077C291.79 91.7695 291.79 93.6914 291.79 95.6132C291.79 95.9336 291.79 96.2539 291.79 96.7343C291.129 96.2539 290.468 95.9336 289.972 95.6132C287.659 94.0117 285.181 92.5703 282.207 91.9296C279.068 91.289 275.763 91.289 272.789 92.5703C270.311 93.6914 268.658 95.6132 268.163 98.3359C267.832 99.9375 267.832 101.539 268.658 103.141C269.485 104.902 271.137 106.023 272.789 106.824C276.424 108.586 280.224 110.348 284.024 112.109C286.668 113.391 289.312 114.832 291.294 116.914C293.112 118.836 294.103 120.918 294.434 123.481C294.929 127.485 294.103 131.168 291.459 134.371C289.642 136.613 287.329 138.055 284.685 139.016C282.042 139.977 279.398 140.457 276.589 140.778C271.302 141.258 266.345 140.457 261.719 138.215C261.554 138.215 261.554 138.055 261.388 138.055C260.232 137.574 259.571 136.774 259.736 135.332C259.901 133.09 259.736 130.848 259.736 128.606C259.736 128.445 259.736 128.285 259.736 128.125C260.893 129.086 262.049 130.047 263.041 130.848C266.18 133.41 269.815 135.172 273.78 135.653C276.92 136.133 280.059 135.813 283.033 134.531C285.677 133.41 287.329 131.488 287.825 128.606C288.32 125.242 286.668 123 284.19 121.078C281.381 119.156 278.241 117.875 275.102 116.594C271.632 115.152 268.163 113.871 265.354 111.469C264.363 110.668 263.702 109.547 262.875 108.426C262.71 108.105 262.545 107.785 262.215 107.145C261.719 108.266 261.223 109.227 260.893 110.027C258.249 116.434 255.606 122.68 252.797 129.086C250.153 135.492 247.344 141.738 244.701 147.985C244.04 149.426 243.379 151.028 242.718 152.469C242.553 152.789 242.222 153.11 241.892 153.11C239.579 153.11 237.431 153.11 234.952 153.11C235.778 151.508 236.605 150.227 237.266 148.785C238.918 145.582 240.57 142.379 242.222 139.176C243.048 137.414 243.875 135.653 244.701 133.891C245.031 133.09 245.196 132.449 244.701 131.649C243.214 128.125 241.727 124.602 240.24 121.238C238.257 116.594 236.274 111.949 234.291 107.305C232.639 103.621 231.152 99.9375 229.335 96.2539C228.013 93.371 225.535 91.7695 222.23 91.4491C219.091 91.1288 216.117 91.1288 213.308 92.5703C210.829 93.8515 209.342 95.9335 208.847 98.6562C208.516 100.738 208.682 102.66 210.334 104.102C211.49 105.223 212.812 106.023 214.299 106.824C218.43 108.906 222.726 110.828 226.856 112.75C229.335 114.031 231.648 115.473 233.3 117.715C235.283 120.438 236.109 123.481 235.613 126.844C235.283 129.086 234.787 131.168 233.465 133.09C231.483 135.973 228.674 137.735 225.369 139.016C221.404 140.457 217.273 140.938 213.143 140.617C209.508 140.457 206.038 139.817 202.899 138.055C202.568 137.895 202.238 137.414 202.238 137.094C202.238 134.371 202.238 131.809 202.238 129.086C203.725 130.207 205.047 131.168 206.368 132.129C209.177 134.051 212.482 135.332 215.951 135.653C219.752 135.973 223.221 135.492 226.195 133.41C229.5 131.168 230.491 126.203 227.517 123C225.369 120.758 222.726 119.316 219.917 118.035C215.621 116.113 211.16 114.672 207.36 112.109C206.203 111.309 205.212 110.348 204.055 109.387C204.055 109.867 204.055 110.188 204.055 110.508C204.716 116.754 203.56 122.68 200.42 128.125C199.264 130.047 197.942 131.649 196.455 133.41C193.646 136.613 190.011 138.696 185.715 139.977C180.593 141.578 175.471 141.258 170.349 139.336C163.244 136.453 158.783 131.328 155.975 124.602C154.818 121.719 154.157 118.836 153.992 115.793C153.496 109.867 154.818 104.262 157.792 99.1367C159.444 96.414 161.427 94.0117 164.071 91.7695C158.453 91.7695 152.835 91.7695 147.218 91.7695C147.218 92.2499 147.218 92.5702 147.218 93.0507C147.218 107.945 147.218 122.84 147.218 137.735C147.218 139.016 147.218 139.016 145.896 139.016C144.244 139.016 142.426 139.016 140.774 139.016C139.782 139.016 139.617 138.696 139.617 137.895C139.617 124.602 139.617 111.469 139.617 98.1757C139.617 98.2615 139.617 94.1718 139.617 91.9296ZM179.437 136.453C180.263 136.293 181.089 136.293 181.915 136.133C185.715 135.332 188.689 133.41 191.002 130.527C194.968 125.883 196.29 120.277 196.455 114.352C196.455 112.59 196.29 110.828 195.959 109.066C194.803 103.301 192.324 98.1757 187.202 94.6523C183.567 92.0898 179.602 91.289 175.306 92.7304C170.845 94.1718 167.706 97.0546 165.558 101.059C162.418 106.504 161.592 112.43 162.584 118.676C163.41 124.281 165.723 129.086 170.184 132.93C172.662 135.012 175.802 136.293 179.437 136.453Z" fill="#007CC3"/>
<path d="M101.606 93.5328C101.936 93.0523 102.432 92.4117 102.762 91.9312C105.571 89.0484 109.206 87.6069 113.172 87.1265C114.493 86.9663 115.98 86.8062 117.302 86.8062C123.911 86.9663 128.868 90.0093 131.677 95.9351C132.173 96.8961 132.338 98.1773 132.503 99.2984C132.503 112.111 132.503 125.084 132.503 137.896C132.503 139.178 132.503 139.178 131.181 139.178C129.529 139.178 127.711 139.178 126.059 139.178C125.068 139.178 124.903 138.857 124.903 138.056C124.903 126.205 124.903 114.513 124.903 102.662C124.903 97.857 121.929 94.1734 117.137 92.732C111.519 90.9702 105.241 94.1734 102.267 98.1773C101.441 99.2984 101.11 100.74 101.11 102.181C101.11 114.033 101.11 126.045 101.11 137.896C101.11 138.697 100.945 139.178 99.9536 139.017C98.1361 139.017 96.4838 138.857 94.6663 139.017C93.675 139.017 93.5098 138.697 93.5098 137.736C93.5098 129.568 93.5098 121.24 93.5098 113.072C93.5098 104.904 93.5098 96.8961 93.5098 88.728C93.5098 87.4468 93.5098 87.4468 94.9968 87.4468C96.6491 87.4468 98.3013 87.4468 99.9536 87.4468C100.614 87.4468 100.945 87.6069 100.945 88.4077C100.945 90.0093 101.11 91.6109 101.275 93.2124C101.275 93.3726 101.441 93.3726 101.606 93.5328Z" fill="#007CC3"/>
<path d="M77.1646 105.382C77.1646 94.651 77.1646 83.7603 77.1646 73.0298C77.1646 72.0688 77.495 71.9087 78.3211 71.9087C80.3038 71.9087 82.4518 71.9087 84.4345 71.9087C85.2606 71.9087 85.5911 72.0688 85.5911 73.0298C85.5911 79.4361 85.5911 85.8424 85.5911 92.0885C85.5911 107.464 85.5911 122.678 85.5911 138.054C85.5911 139.335 85.5911 139.335 84.2693 139.335C82.2865 139.335 80.3038 139.335 78.3211 139.335C77.495 139.335 77.1646 139.175 77.1646 138.214C77.1646 127.163 77.1646 116.272 77.1646 105.382Z" fill="#007CC3"/>
<path d="M113.536 354.198C100.732 354.198 90.1551 350.601 81.8049 343.406C72.7124 334.592 68.0734 323.081 68.0734 308.691V210.303C68.0734 196.093 72.5268 184.402 81.8049 175.588C90.1551 168.394 100.732 164.796 113.536 164.796C126.711 164.796 137.102 168.394 145.267 175.588C154.359 184.042 158.998 195.554 158.998 210.303V226.671H128.752V210.303C128.752 203.828 127.453 199.331 124.855 196.993C122.443 194.834 118.732 193.755 113.35 193.755C108.34 193.755 104.443 194.834 102.217 196.993C99.4332 199.511 98.1343 203.828 98.1343 210.303V308.691C98.1343 314.987 99.4332 319.483 102.217 322.002C104.629 324.16 108.34 325.239 113.35 325.239C118.546 325.239 122.443 324.16 124.855 322.002C127.453 319.663 128.752 315.346 128.752 308.691V284.949H158.813V308.691C158.813 323.261 154.174 334.952 145.081 343.406C137.102 350.421 126.525 354.198 113.536 354.198Z" fill="#007CC3"/>
<path d="M220.422 354.198C207.247 354.198 196.855 350.601 188.691 343.406C179.598 334.952 174.959 323.44 174.959 308.691V210.303C174.959 195.734 179.413 184.042 188.691 175.588C196.67 168.394 207.247 164.796 220.422 164.796C233.596 164.796 243.988 168.394 252.152 175.588C261.245 184.042 265.884 195.554 265.884 210.303V308.691C265.884 323.261 261.245 334.952 252.152 343.406C244.173 350.421 233.596 354.198 220.422 354.198ZM220.422 193.755C215.411 193.755 211.515 194.834 209.288 196.993C206.504 199.511 205.206 203.828 205.206 210.303V308.691C205.206 314.987 206.504 319.483 209.288 322.002C211.7 324.16 215.411 325.239 220.422 325.239C225.617 325.239 229.514 324.16 231.555 322.002C234.339 319.663 235.638 315.346 235.638 308.691V210.303C235.638 203.828 234.339 199.331 231.555 196.993C229.514 194.834 225.803 193.755 220.422 193.755Z" fill="#007CC3"/>
<path d="M375 352.035H344.383L328.796 277.749H315.064V352.035H285.003V166.77H330.28C343.269 166.77 353.661 170.547 362.011 177.922C371.104 186.016 375.743 197.528 375.743 212.277V232.062C375.743 246.992 371.104 258.683 362.011 266.777C360.712 268.036 359.228 269.115 357.558 270.195L375 352.035ZM345.682 212.277C345.682 206.161 344.383 201.665 341.599 198.967C339.187 196.808 335.476 195.729 330.466 195.729H315.25V248.43H330.466C335.476 248.43 339.373 247.351 341.599 245.193C344.383 242.675 345.682 238.358 345.682 231.883V212.277Z" fill="#007CC3"/>
<path d="M476.499 195.909H445.882V352.035H415.821V195.909H385.203V166.77H476.314V195.909H476.499Z" fill="#007CC3"/>
<path d="M519.914 195.909V242.495H553.686V271.634H519.914V322.896H569.088V352.035H489.853V166.77H569.088V195.909H519.914Z" fill="#007CC3"/>
<path d="M654.996 352.035L633.657 297.175L612.688 352.035H580.772L616.214 259.762L580.772 166.77H612.688L633.657 221.45L654.625 166.77H686.913L651.1 259.582L686.913 351.855H654.996V352.035Z" fill="#007CC3"/>
<path d="M99.1384 431.445C112.37 431.445 123.096 421.048 123.096 408.223C123.096 395.397 112.37 385 99.1384 385C85.9069 385 75.1807 395.397 75.1807 408.223C75.1807 421.048 85.9069 431.445 99.1384 431.445Z" fill="#007CC3"/>
<path opacity="0.6" d="M167.205 431.445C180.436 431.445 191.162 421.048 191.162 408.223C191.162 395.397 180.436 385 167.205 385C153.973 385 143.247 395.397 143.247 408.223C143.247 421.048 153.973 431.445 167.205 431.445Z" fill="#007CC3"/>
<path opacity="0.4" d="M241.231 431.445C254.462 431.445 265.189 421.048 265.189 408.223C265.189 395.397 254.462 385 241.231 385C228 385 217.273 395.397 217.273 408.223C217.273 421.048 228 431.445 241.231 431.445Z" fill="#007CC3"/>
<path d="M304 79.1655C303.234 79.1655 302.476 79.3164 301.768 79.6096C301.06 79.9027 300.417 80.3324 299.876 80.8741C298.782 81.968 298.167 83.4518 298.167 84.9989C298.167 86.546 298.782 88.0297 299.876 89.1237C300.417 89.6653 301.06 90.095 301.768 90.3882C302.476 90.6813 303.234 90.8322 304 90.8322C305.547 90.8322 307.031 90.2176 308.125 89.1237C309.219 88.0297 309.834 86.546 309.834 84.9989C309.834 84.2328 309.683 83.4743 309.39 82.7665C309.096 82.0588 308.667 81.4157 308.125 80.8741C307.583 80.3324 306.94 79.9027 306.233 79.6096C305.525 79.3164 304.766 79.1655 304 79.1655V79.1655ZM304 89.6655C301.428 89.6655 299.334 87.5714 299.334 84.9989C299.334 82.4264 301.428 80.3322 304 80.3322C306.573 80.3322 308.667 82.4264 308.667 84.9989C308.667 87.5714 306.573 89.6655 304 89.6655ZM304.146 85.7397H303.306V87.6239H302.25V82.4964H304.152C304.753 82.4964 305.219 82.6305 305.552 82.8989C305.879 83.173 306.042 83.5405 306.042 84.0422C306.042 84.3922 305.966 84.6839 305.814 84.9172C305.663 85.1505 305.435 85.3372 305.126 85.4714L306.234 87.5655V87.6239H305.103L304.146 85.7397ZM303.306 84.888H304.158C304.42 84.888 304.624 84.818 304.77 84.6839C304.916 84.5497 304.986 84.363 304.986 84.1239C304.986 83.8847 304.922 83.698 304.782 83.558C304.648 83.418 304.438 83.3539 304.152 83.3539H303.306V84.888Z" fill="#007CC3"/>
</svg>
