<svg width="60" height="60" viewBox="0 0 60 60" fill="none" xmlns="http://www.w3.org/2000/svg">
<path d="M51.2103 8.78974C45.5438 3.12326 38.0145 0 30.0056 0C21.9855 0 14.4562 3.12326 8.78974 8.78974C3.12326 14.4562 0 21.9855 0 30.0056C0 33.4523 0.580033 36.8321 1.71779 40.0446C2.82209 43.1567 4.42833 46.0457 6.49191 48.6447C7.11656 49.4367 7.79699 50.2064 8.51088 50.9426C9.03514 51.478 9.59286 52.0022 10.1506 52.5042C10.5968 52.8946 11.0541 53.285 11.5226 53.6419C11.6564 53.7535 11.8014 53.8539 11.9353 53.9654C17.1779 57.9141 23.4244 60 30.0056 60C36.3971 60 42.4986 58.0145 47.652 54.2666C47.7858 54.1662 47.9308 54.0658 48.0647 53.9654C48.6224 53.5415 49.1801 53.0954 49.7044 52.638C50.3179 52.1026 50.9202 51.5337 51.4891 50.9426C52.203 50.2064 52.8834 49.4367 53.5081 48.6447C55.5717 46.0457 57.1779 43.1567 58.2822 40.0446C59.42 36.8321 60 33.4523 60 30.0056C60 21.9855 56.8767 14.4562 51.2103 8.78974ZM51.7568 47.2616C51.7345 47.2839 51.7122 47.3062 51.7011 47.3397C45.4434 43.324 37.9922 40.9927 30.0056 40.9927C22.019 40.9927 14.5678 43.324 8.31009 47.3397C8.28779 47.3173 8.26548 47.295 8.25432 47.2616C4.30563 42.309 2.2309 36.3413 2.2309 30.0056C2.2309 14.6905 14.6905 2.2309 30.0056 2.2309C45.3207 2.2309 57.7803 14.6905 57.7803 30.0056C57.7691 36.3413 55.6944 42.309 51.7568 47.2616Z" fill="#945999"/>
<path d="M42.455 25.5547C42.455 29.3026 40.8041 32.6601 38.1828 34.9468C37.9597 35.1364 37.7367 35.3261 37.5024 35.4934C37.4466 35.538 37.3909 35.5826 37.3351 35.6161C35.2827 37.1108 32.7506 37.992 30.0177 37.992C27.2068 37.992 24.6078 37.055 22.5219 35.4822C22.4662 35.4376 22.4104 35.393 22.3546 35.3484C22.165 35.1922 21.9754 35.0361 21.7857 34.8799C19.1979 32.6044 17.5693 29.258 17.5693 25.5435C17.5693 18.6724 23.1466 13.0951 30.0177 13.0951C36.8889 13.0951 42.455 18.6835 42.455 25.5547Z" fill="#945999"/>
</svg>
