<svg width="30" height="30" viewBox="0 0 42 41" fill="none" xmlns="http://www.w3.org/2000/svg">
<path d="M16.6655 15.7274L16.773 16.7216C17.2711 16.6678 17.6524 16.2537 17.6652 15.7529L16.6655 15.7274ZM16.6519 15.7289L16.5433 14.7348C16.025 14.7914 15.6371 15.2368 15.6523 15.7581L16.6519 15.7289ZM16.6621 16.0168L17.6621 16.015C17.6621 16.0017 17.6618 15.9884 17.6612 15.9751L16.6621 16.0168ZM16.76 17.4398L17.7556 17.3465C17.7543 17.3327 17.7527 17.3189 17.7509 17.3051L16.76 17.4398ZM28.2855 38.0266L27.8586 38.9309C28.2527 39.1169 28.7218 39.0263 29.0183 38.707L28.2855 38.0266ZM30.2772 35.9834L30.9513 36.7221C31.1584 36.5331 31.2766 36.2659 31.2772 35.9856C31.2778 35.7053 31.1607 35.4376 30.9545 35.2477L30.2772 35.9834ZM24.709 26.2789L24.9479 25.3078C24.6214 25.2275 24.2765 25.3166 24.0298 25.5449C23.783 25.7733 23.6675 26.1103 23.7223 26.4419L24.709 26.2789ZM36.7493 14.9718C37.323 20.2267 33.5281 24.9518 28.2732 25.5255L28.4903 27.5137C34.8433 26.8201 39.4311 21.1077 38.7375 14.7547L36.7493 14.9718ZM26.1956 6.4957C31.4506 5.92199 36.1756 9.71687 36.7493 14.9718L38.7375 14.7547C38.0439 8.40177 32.3316 3.81393 25.9786 4.50751L26.1956 6.4957ZM17.6652 15.7529C17.7856 11.0386 21.3776 7.02171 26.1956 6.4957L25.9786 4.50751C20.152 5.14363 15.8115 10.0002 15.6659 15.7019L17.6652 15.7529ZM16.7604 16.723C16.7643 16.7226 16.7682 16.7221 16.773 16.7216L16.558 14.7332C16.5538 14.7337 16.5486 14.7342 16.5433 14.7348L16.7604 16.723ZM17.6612 15.9751C17.6573 15.8814 17.6541 15.7896 17.6514 15.6997L15.6523 15.7581C15.6552 15.8565 15.6587 15.9566 15.663 16.0585L17.6612 15.9751ZM17.7195 17.0494C17.6816 16.7016 17.6627 16.3564 17.6621 16.015L15.6621 16.0186C15.6629 16.4312 15.6856 16.8476 15.7314 17.2664L17.7195 17.0494ZM17.7509 17.3051C17.7393 17.2203 17.7289 17.135 17.7195 17.0494L15.7314 17.2664C15.7426 17.3696 15.7552 17.4723 15.7691 17.5745L17.7509 17.3051ZM28.7124 37.1223C24.9529 35.3475 22.3523 31.9696 20.6113 28.1932C18.8722 24.4209 18.0364 20.3452 17.7556 17.3465L15.7643 17.533C16.0609 20.6995 16.9397 25.0061 18.795 29.0305C20.6484 33.0507 23.5219 36.8836 27.8586 38.9309L28.7124 37.1223ZM29.6031 35.2448C29.3667 35.4605 28.6577 36.1561 27.5527 37.3461L29.0183 38.707C30.1086 37.5329 30.7746 36.8834 30.9513 36.7221L29.6031 35.2448ZM23.7223 26.4419C24.4666 30.9455 27.6467 34.9212 29.5999 36.7192L30.9545 35.2477C29.1676 33.6029 26.3379 30.0028 25.6956 26.1158L23.7223 26.4419ZM28.2732 25.5255C27.1252 25.6508 26.0047 25.5679 24.9479 25.3078L24.4701 27.2499C25.7507 27.565 27.1064 27.6648 28.4903 27.5137L28.2732 25.5255Z" fill="#474747"/>
<path fill-rule="evenodd" clip-rule="evenodd" d="M3.18971 12.159C3.31009 7.44464 6.90209 3.42778 11.7201 2.90177C14.1742 2.63385 16.5126 3.31865 18.3667 4.65994C18.9641 4.25985 19.5979 3.90737 20.2633 3.60855C17.9235 1.61576 14.7995 0.553697 11.5031 0.913585C5.73482 1.54334 1.42301 6.30949 1.196 11.937C1.18123 12.0103 1.17453 12.0864 1.1768 12.1641C1.17949 12.2562 1.18277 12.3498 1.18666 12.4449C1.18811 12.8509 1.21087 13.2605 1.25585 13.6725C1.26634 13.7686 1.27798 13.8643 1.29076 13.9596C1.58916 17.1241 2.4682 21.4209 4.3195 25.4366C6.17287 29.4567 9.04636 33.2897 13.3831 35.3369C13.7772 35.523 14.2463 35.4324 14.5428 35.1131C15.6331 33.939 16.2991 33.2895 16.4758 33.1281C16.6829 32.9392 16.8011 32.672 16.8017 32.3917C16.8023 32.1113 16.6852 31.8436 16.479 31.6538C14.9098 30.2093 12.5364 27.2569 11.5464 23.9266C12.352 24.0107 13.1782 24.0111 14.0148 23.9197C14.5204 23.8645 15.0148 23.7776 15.4963 23.661C15.0414 23.1014 14.6315 22.502 14.2727 21.8679C14.1157 21.8929 13.9574 21.9141 13.7977 21.9316C12.6497 22.0569 11.5292 21.9739 10.4724 21.7139C10.1459 21.6336 9.801 21.7227 9.55427 21.951C9.30753 22.1793 9.19203 22.5163 9.24684 22.848C9.902 26.8124 12.4447 30.3678 14.3764 32.3887C14.1559 32.6129 13.8938 32.8841 13.5924 33.2025C10.1777 31.3591 7.77547 28.1559 6.13578 24.5992C4.39672 20.827 3.56094 16.7513 3.28012 13.7526C3.27882 13.7388 3.27724 13.7249 3.27536 13.7112C3.26383 13.6263 3.25339 13.5411 3.24403 13.4555C3.20606 13.1076 3.18722 12.7625 3.18661 12.421C3.18658 12.4077 3.18629 12.3944 3.18574 12.3811L3.18123 12.2663C3.18593 12.2311 3.18879 12.1953 3.18971 12.159Z" fill="#474747"/>
</svg>
