<svg width="20" height="20" viewBox="0 0 20 20" fill="none" xmlns="http://www.w3.org/2000/svg">
<g clip-path="url(#clip0)">
<path d="M8.33333 20.0016C3.75 20.0016 0 16.2516 0 11.6683C0 7.08496 3.75 3.33496 8.33333 3.33496C12.9167 3.33496 16.6667 7.08496 16.6667 11.6683C16.6667 16.2516 12.9167 20.0016 8.33333 20.0016ZM8.33333 4.16829C4.16667 4.16829 0.833333 7.50163 0.833333 11.6683C0.833333 15.835 4.16667 19.1683 8.33333 19.1683C12.5 19.1683 15.8333 15.835 15.8333 11.6683C15.8333 7.50163 12.5 4.16829 8.33333 4.16829Z" fill="#737373"/>
<path d="M8.33073 17.0833C5.33073 17.0833 2.91406 14.6667 2.91406 11.6667C2.91406 8.66667 5.33073 6.25 8.33073 6.25C11.3307 6.25 13.7474 8.66667 13.7474 11.6667C13.7474 14.6667 11.3307 17.0833 8.33073 17.0833ZM8.33073 7.08333C5.83073 7.08333 3.7474 9.16667 3.7474 11.6667C3.7474 14.1667 5.83073 16.25 8.33073 16.25C10.8307 16.25 12.9141 14.1667 12.9141 11.6667C12.9141 9.16667 10.8307 7.08333 8.33073 7.08333Z" fill="#737373"/>
<path d="M8.33594 14.165C6.91927 14.165 5.83594 13.0817 5.83594 11.665C5.83594 10.2484 6.91927 9.16504 8.33594 9.16504C9.7526 9.16504 10.8359 10.2484 10.8359 11.665C10.8359 13.0817 9.7526 14.165 8.33594 14.165ZM8.33594 9.99837C7.41927 9.99837 6.66927 10.7484 6.66927 11.665C6.66927 12.5817 7.41927 13.3317 8.33594 13.3317C9.2526 13.3317 10.0026 12.5817 10.0026 11.665C10.0026 10.7484 9.2526 9.99837 8.33594 9.99837Z" fill="#737373"/>
<path d="M8.33333 12.0841C8.25 12.0841 8.08333 12.0841 8 12.0008C7.83333 11.8341 7.83333 11.5841 8 11.4175L14.25 5.16748C14.4167 5.00081 14.6667 5.00081 14.8333 5.16748C15 5.33415 15 5.58415 14.8333 5.75081L8.58333 12.0008C8.58333 12.0841 8.41667 12.0841 8.33333 12.0841Z" fill="#737373"/>
<path d="M16.664 5.83333H14.5807C14.3307 5.83333 14.1641 5.66667 14.1641 5.41667V3.33333C14.1641 3.25 14.2474 3.08333 14.2474 3L17.164 0.0833333C17.3307 0 17.4974 0 17.664 0C17.8307 0.0833333 17.914 0.25 17.914 0.416667V2.08333H19.5807C19.7474 2.08333 19.914 2.16667 19.9974 2.33333C19.9974 2.5 19.9974 2.66667 19.914 2.83333L16.9974 5.75C16.914 5.75 16.7474 5.83333 16.664 5.83333ZM14.9974 5H16.4974L18.5807 2.91667H17.4974C17.2474 2.91667 17.0807 2.75 17.0807 2.5V1.41667L14.9974 3.5V5Z" fill="#737373"/>
</g>
<defs>
<clipPath id="clip0">
<rect width="20" height="20" fill="white"/>
</clipPath>
</defs>
</svg>
