<svg xmlns="http://www.w3.org/2000/svg" width="30" height="30" fill="none" viewBox="0 0 30 30">
    <g clip-path="url(#prefix__clip0)">
        <path class="path-fill" d="M11.562 10H2.187C.981 10 0 9.02 0 7.812V2.187C0 .981.981 0 2.187 0h9.375c1.207 0 2.188.981 2.188 2.187v5.625C13.75 9.02 12.77 10 11.562 10zM2.187 1.875c-.172 0-.312.14-.312.312v5.625c0 .173.14.313.312.313h9.375c.173 0 .313-.14.313-.313V2.187c0-.172-.14-.312-.313-.312H2.187zM11.562 30H2.187C.981 30 0 29.018 0 27.812V14.687C0 13.481.981 12.5 2.187 12.5h9.375c1.207 0 2.188.982 2.188 2.188v13.125c0 1.206-.981 2.188-2.188 2.188zM2.187 14.374c-.172 0-.312.14-.312.313v13.125c0 .172.14.313.312.313h9.375c.173 0 .313-.14.313-.313V14.687c0-.172-.14-.313-.313-.313H2.187zM27.813 30h-9.375c-1.207 0-2.188-.982-2.188-2.188v-5.625c0-1.206.981-2.188 2.188-2.188h9.375c1.206 0 2.187.982 2.187 2.188v5.625C30 29.018 29.02 30 27.813 30zm-9.375-8.125c-.173 0-.313.14-.313.312v5.625c0 .172.14.313.313.313h9.375c.172 0 .312-.14.312-.313v-5.625c0-.172-.14-.313-.312-.313h-9.375zM27.813 17.5h-9.375c-1.207 0-2.188-.981-2.188-2.188V2.187C16.25.981 17.231 0 18.438 0h9.375C29.019 0 30 .981 30 2.187v13.125c0 1.207-.981 2.188-2.187 2.188zM18.438 1.875c-.173 0-.313.14-.313.312v13.125c0 .173.14.313.313.313h9.375c.172 0 .312-.14.312-.313V2.187c0-.172-.14-.312-.312-.312h-9.375z"/>
    </g>
    <defs>
        <clipPath id="prefix__clip0">
            <path class="path-fill" d="M0 0H30V30H0z"/>
        </clipPath>
    </defs>
</svg>

