<svg width="30" height="30" viewBox="0 0 30 30" fill="none" xmlns="http://www.w3.org/2000/svg">
<path class="path-fill" d="M15.0001 14.1664C16.1538 14.1664 17.2816 13.8243 18.2409 13.1833C19.2002 12.5424 19.9479 11.6313 20.3894 10.5654C20.8309 9.49951 20.9464 8.32662 20.7213 7.19506C20.4962 6.06351 19.9407 5.02411 19.1249 4.2083C18.3091 3.3925 17.2697 2.83692 16.1381 2.61184C15.0066 2.38676 13.8337 2.50228 12.7678 2.94379C11.7019 3.38531 10.7908 4.13298 10.1498 5.09226C9.50887 6.05155 9.16675 7.17937 9.16675 8.33309C9.16675 9.88019 9.78133 11.3639 10.8753 12.4579C11.9693 13.5518 13.453 14.1664 15.0001 14.1664ZM15.0001 4.16642C15.8242 4.16642 16.6298 4.4108 17.315 4.86863C18.0002 5.32647 18.5342 5.97722 18.8496 6.73858C19.1649 7.49994 19.2475 8.33771 19.0867 9.14597C18.9259 9.95422 18.5291 10.6967 17.9464 11.2794C17.3636 11.8621 16.6212 12.2589 15.813 12.4197C15.0047 12.5805 14.1669 12.498 13.4056 12.1826C12.6442 11.8672 11.9935 11.3332 11.5356 10.648C11.0778 9.96276 10.8334 9.15718 10.8334 8.33309C10.8334 7.22802 11.2724 6.16821 12.0538 5.38681C12.8352 4.60541 13.895 4.16642 15.0001 4.16642Z"/>
<path class="path-fill" d="M25.3917 20.3079C24.0553 18.8954 22.4449 17.7703 20.6589 17.0014C18.8728 16.2325 16.9488 15.8359 15.0042 15.8359C13.0597 15.8359 11.1357 16.2325 9.34963 17.0014C7.56361 17.7703 5.95316 18.8954 4.61675 20.3079C4.32701 20.6174 4.16609 21.0257 4.16675 21.4496V25.8329C4.16675 26.275 4.34234 26.6989 4.65491 27.0114C4.96747 27.324 5.39139 27.4996 5.83342 27.4996H24.1667C24.6088 27.4996 25.0327 27.324 25.3453 27.0114C25.6578 26.6989 25.8334 26.275 25.8334 25.8329V21.4496C25.8363 21.0268 25.6785 20.6187 25.3917 20.3079ZM24.1667 25.8329H5.83342V21.4413C7.01444 20.1977 8.43616 19.2074 10.012 18.5307C11.5879 17.854 13.285 17.505 15.0001 17.505C16.7151 17.505 18.4122 17.854 19.9881 18.5307C21.564 19.2074 22.9857 20.1977 24.1667 21.4413V25.8329Z"/>
</svg>
