<svg width="23" height="24" viewBox="0 0 23 24" fill="none" xmlns="http://www.w3.org/2000/svg">
<path d="M15.9513 3.0003C16.195 2.73766 16.4842 2.52932 16.8026 2.38718C17.1209 2.24503 17.4621 2.17188 17.8067 2.17188C18.1513 2.17187 18.4925 2.24503 18.8109 2.38718C19.1292 2.52932 19.4185 2.73766 19.6622 3.0003C19.9058 3.26295 20.0991 3.57475 20.231 3.91791C20.3628 4.26107 20.4307 4.62887 20.4307 5.0003C20.4307 5.37174 20.3628 5.73953 20.231 6.08269C20.0991 6.42585 19.9058 6.73766 19.6622 7.0003L7.13805 20.5003L2.03564 22.0003L3.42721 16.5003L15.9513 3.0003Z" stroke="#007CC3" stroke-width="2" stroke-linecap="round" stroke-linejoin="round"/>
</svg>
