<svg width="18" height="16" viewBox="0 0 18 16" fill="none" xmlns="http://www.w3.org/2000/svg">
<path d="M11.332 2.0015C11.5071 1.82641 11.715 1.68751 11.9438 1.59275C12.1725 1.49799 12.4177 1.44922 12.6654 1.44922C12.913 1.44922 13.1582 1.49799 13.387 1.59275C13.6157 1.68751 13.8236 1.82641 13.9987 2.0015C14.1738 2.1766 14.3127 2.38447 14.4074 2.61324C14.5022 2.84202 14.551 3.08721 14.551 3.33484C14.551 3.58246 14.5022 3.82766 14.4074 4.05643C14.3127 4.28521 14.1738 4.49307 13.9987 4.66817L4.9987 13.6682L1.33203 14.6682L2.33203 11.0015L11.332 2.0015Z" stroke="#FCFCFF" stroke-width="2" stroke-linecap="round" stroke-linejoin="round"/>
</svg>
