<svg xmlns="http://www.w3.org/2000/svg" width="30" height="30" fill="none" viewBox="0 0 30 30">
    <g class="path-fill" clip-path="url(#prefix__clip0)">
        <path d="M19.395 20.903l7.807-5.148-7.808-5.148v10.296zm1.757-7.031l2.857 1.883-2.857 1.884v-3.767z"/>
        <path d="M15.167 6.022c-.282-.136-4.368-3.45-10.772-3.45h-.88v2.976C1.652 5.825.406 6.187 0 6.28v21.148c.615-.083 6.79-2.272 14.787-.273l.213.053.213-.053c8.006-2.002 14.17.19 14.787.273V6.28c-.407-.054-6.774-2.16-14.833-.258zM1.757 25.198V7.661c.582-.13 1.17-.242 1.759-.335v16.34h.879c1.894 0 3.793.332 5.578.96-2.747-.185-5.517.005-8.215.572zm12.364-.526c-2.631-1.633-5.725-2.59-8.848-2.743V4.353c5.292.285 8.578 2.95 8.848 3.084v17.235zm14.121.526c-4.066-.854-8.297-.854-12.363 0V7.661c4.059-.91 8.304-.91 12.363 0v17.537z"/>
    </g>
    <defs>
        <clipPath id="prefix__clip0">
            <path class="path-fill" d="M0 0H30V30H0z"/>
        </clipPath>
    </defs>
</svg>
