<svg width="41" height="40" viewBox="0 0 41 40" fill="none" xmlns="http://www.w3.org/2000/svg">
<path d="M30.9606 25.9168L36.0811 20.8042L36.2424 20.6376L36.2495 20.6288C36.2681 20.6095 36.2876 20.5902 36.3063 20.5701C39.9046 16.7401 39.8017 10.7817 36.0731 7.07569C32.3841 3.34815 26.3527 3.24423 22.5348 6.84242C22.4532 6.91842 22.3726 6.99647 22.2928 7.07656C22.2866 7.0827 22.2848 7.09147 22.2786 7.09761L13.0125 16.3432C11.9548 17.4022 11.9548 19.1059 13.0125 20.1649C13.5164 20.6688 14.2027 20.9529 14.9191 20.9542L23.797 29.8244C24.1692 30.1996 24.1692 30.8006 23.797 31.1758C23.6217 31.3521 23.3822 31.4514 23.1322 31.4514C22.8822 31.4514 22.6427 31.3521 22.4674 31.1758L11.675 20.4017C11.3304 20.0576 10.7691 20.055 10.4212 20.396C10.0734 20.737 10.0709 21.2923 10.4155 21.6364L21.2088 32.4132C21.5815 32.7885 21.5815 33.3901 21.2088 33.7654C20.8388 34.1219 20.2492 34.1219 19.8792 33.7654L5.84272 19.7484C5.7789 19.6844 5.71597 19.6195 5.65481 19.5537C2.7011 16.413 2.78567 11.5238 5.84627 8.48493C7.33273 6.99471 9.36071 6.15584 11.4769 6.15584C13.5931 6.15584 15.6211 6.99471 17.1076 8.48493C17.329 8.71372 17.658 8.80655 17.9681 8.72778C18.2782 8.64901 18.5213 8.41088 18.604 8.10484C18.6867 7.7988 18.5961 7.47244 18.3671 7.25108C16.5477 5.42828 14.0662 4.40231 11.4769 4.40231C8.88759 4.40231 6.40613 5.42828 4.58674 7.25108C0.857605 10.9572 0.754668 16.9163 4.35362 20.7463C4.35983 20.7534 4.3616 20.7621 4.36869 20.7691L4.57788 20.9779L4.58319 20.9831L18.6144 34.9931C19.1228 35.5026 19.8163 35.7894 20.54 35.7894C21.2637 35.7894 21.9572 35.5026 22.4656 34.9931C22.9447 34.5103 23.223 33.8672 23.2456 33.191C23.9277 33.1667 24.5749 32.8864 25.0556 32.407C25.5347 31.9242 25.8134 31.2812 25.8365 30.6049C26.5191 30.5793 27.1661 30.297 27.6456 29.8157C28.1246 29.3332 28.4033 28.6904 28.4265 28.0144C29.1092 27.9882 29.7562 27.7061 30.2364 27.2252C30.5976 26.8653 30.8487 26.4117 30.9606 25.9168ZM14.2712 17.5788L23.7553 8.11574C26.875 5.17701 31.8024 5.26375 34.8145 8.31042C37.8751 11.3493 37.9597 16.2385 35.006 19.3792L34.9563 19.43L30.5661 23.8148C30.4716 23.6733 30.3635 23.5412 30.2435 23.4201L21.9232 15.1129L22.7067 14.3306C23.8305 15.3966 25.2868 16.0533 26.8372 16.1933C28.6367 16.2252 30.3587 15.4698 31.5429 14.1289C31.7657 13.9054 31.851 13.5812 31.7667 13.2786C31.6824 12.9759 31.4414 12.7408 31.1343 12.6617C30.8272 12.5826 30.5008 12.6715 30.2781 12.8951C29.4393 13.8631 28.2198 14.4268 26.9312 14.442C25.5539 14.2575 24.294 13.576 23.3937 12.5285C23.2349 12.3349 23.0004 12.2172 22.7487 12.205C22.497 12.1928 22.2519 12.2871 22.0748 12.4645L20.0521 14.4867L17.4701 17.0649L15.614 18.9179C15.4387 19.0948 15.1988 19.1943 14.9484 19.1942C14.6982 19.1945 14.4585 19.0949 14.2836 18.9179C13.916 18.5476 13.9105 17.9558 14.2712 17.5788ZM26.3896 28.5923C26.0204 28.9507 25.4292 28.9507 25.06 28.5923L16.7282 20.2754C16.7716 20.2377 16.8168 20.2079 16.8611 20.1667L18.0852 18.9451L26.3781 27.2296L26.386 27.241C26.7592 27.6152 26.7608 28.2162 26.3896 28.5923ZM27.6544 26.0089L19.3314 17.6981L20.6725 16.359L28.9795 24.6531C29.3517 25.0283 29.3517 25.6293 28.9795 26.0045C28.6117 26.3602 28.0247 26.3622 27.6544 26.0089Z" fill="#737373"/>
</svg>
