<svg width="40" height="40" viewBox="0 0 40 40" fill="none" xmlns="http://www.w3.org/2000/svg">
<circle cx="20" cy="20" r="20" fill="#FF4C61"/>
<g clip-path="url(#clip0)">
<path d="M20.0001 17C18.4001 17 16.8501 17.25 15.4001 17.72V20.82C15.4001 21.21 15.1701 21.56 14.8401 21.72C13.8601 22.21 12.9701 22.84 12.1801 23.57C12.0001 23.75 11.7501 23.85 11.4801 23.85C11.2001 23.85 10.9501 23.74 10.7701 23.56L8.2901 21.08C8.19661 20.9892 8.12266 20.8803 8.07279 20.76C8.02292 20.6396 7.99819 20.5103 8.0001 20.38C8.0001 20.1 8.1101 19.85 8.2901 19.67C11.3401 16.78 15.4601 15 20.0001 15C24.5401 15 28.6601 16.78 31.7101 19.67C31.8901 19.85 32.0001 20.1 32.0001 20.38C32.0001 20.66 31.8901 20.91 31.7101 21.09L29.2301 23.57C29.0501 23.75 28.8001 23.86 28.5201 23.86C28.2501 23.86 28.0001 23.75 27.8201 23.58C27.0241 22.8376 26.1248 22.2145 25.1501 21.73C24.9815 21.6479 24.8395 21.5199 24.7404 21.3607C24.6414 21.2015 24.5893 21.0175 24.5901 20.83V17.73C23.1501 17.25 21.6001 17 20.0001 17Z" fill="#FCFCFF"/>
</g>
<defs>
<clipPath id="clip0">
<rect width="24" height="24" fill="white" transform="translate(8 8)"/>
</clipPath>
</defs>
</svg>
