<svg width="76" height="76" viewBox="0 0 76 76" fill="none" xmlns="http://www.w3.org/2000/svg">
<path d="M43.7582 59.5913C32.243 57.2882 15.546 63.0458 14.3945 63.3337L50.9551 69.9545C57.5763 65.9242 70.0127 58.2091 66.7885 59.5913C62.7582 61.319 55.2733 61.8943 43.7582 59.5913Z" fill="#F4E3C8"/>
<path d="M74.5 37.9999C74.5 58.1583 58.1584 74.4999 38 74.4999C17.8416 74.4999 1.5 58.1583 1.5 37.9999C1.5 17.8416 17.8416 1.5 38 1.5C58.1584 1.5 74.5 17.8416 74.5 37.9999Z" stroke="#DF9926" stroke-width="3"/>
<path fill-rule="evenodd" clip-rule="evenodd" d="M71.0466 56.7695C64.5095 68.2544 52.1584 75.9994 37.9984 75.9994C25.4806 75.9994 14.3766 69.9468 7.45312 60.6085C12.178 58.629 18.3298 57.4599 24.782 59.4666C26.3411 59.9515 27.8139 60.4424 29.2341 60.9159C40.3222 64.6125 48.2086 67.2416 68.9907 57.5672C69.7386 57.2191 70.4233 56.9554 71.0466 56.7695Z" fill="#DF9926"/>
<path d="M20.1523 42.3185L51.5311 10.0762L39.1523 34.258H55.2736L24.1826 65.9246L35.6978 42.3185H20.1523Z" fill="#FCFCFF" stroke="#DF9926" stroke-width="3"/>
</svg>
