<svg width="76" height="76" viewBox="0 0 76 76" fill="none" xmlns="http://www.w3.org/2000/svg">
<path d="M13.8164 11.2248C17.6548 9.30602 27.98 6.44709 38.574 10.3613C48.2551 13.9383 57.0708 13.1408 61.1544 12.0982L62.18 11.8003C61.8824 11.8995 61.5394 11.9999 61.1544 12.0982L28.4982 21.5858L13.8164 11.2248Z" fill="#F4E3C8"/>
<path d="M74.5 37.9911C74.5 58.1443 58.1587 74.4822 38 74.4822C17.8413 74.4822 1.5 58.1443 1.5 37.9911C1.5 17.838 17.8413 1.5 38 1.5C58.1587 1.5 74.5 17.838 74.5 37.9911Z" stroke="#DF9926" stroke-width="3"/>
<path fill-rule="evenodd" clip-rule="evenodd" d="M13.2124 9.2131C19.3255 12.8751 27.6667 15.8551 35.3651 13.1279C47.0871 8.97537 54.9329 7.4866 64.8932 11.1689C71.7562 18.0422 76 27.5304 76 38.0096C76 58.9915 58.9868 76.0007 38 76.0007C17.0132 76.0007 0 58.9915 0 38.0096C0 26.4968 5.12217 16.1801 13.2124 9.2131Z" fill="#DF9926"/>
<path d="M20.1523 42.3081L51.5311 10.0732L39.1523 34.2494H55.2736L24.1826 65.9087L35.6978 42.3081H20.1523Z" fill="#FCFCFF" stroke="#DF9926" stroke-width="3"/>
</svg>
