<svg width="76" height="76" viewBox="0 0 76 76" fill="none" xmlns="http://www.w3.org/2000/svg">
<path d="M0.574219 37.1361V36.2725C0.574219 39.6428 5.18028 39.4391 20.7257 37.9997C31.8744 40.5438 39.6449 41.2102 50.6651 39.4391C63.5621 37.3664 71.3924 39.1512 73.6954 40.3027L60.7409 52.6815L2.01361 45.4845L0.574219 37.1361Z" fill="#F4E3C8"/>
<path d="M74.5 37.9998C74.5 58.1581 58.1584 74.4996 38 74.4996C17.8416 74.4996 1.5 58.1581 1.5 37.9998C1.5 17.8415 17.8416 1.5 38 1.5C58.1584 1.5 74.5 17.8415 74.5 37.9998Z" stroke="#DF9926" stroke-width="3"/>
<path fill-rule="evenodd" clip-rule="evenodd" d="M38.0005 76.0005C58.9873 76.0005 76.0005 58.9874 76.0005 38.0007C76.0005 37.3135 75.9822 36.6306 75.9462 35.9524C72.6621 39.4012 67.5104 42.8947 58.4399 42.8947C52.7189 42.8947 48.5206 40.937 44.2625 38.9514C36.5216 35.3418 28.5831 31.64 10.9399 39.4401C6.42799 41.4348 2.94095 42.3708 0.269531 42.5462C2.51576 61.39 18.5519 76.0005 38.0005 76.0005Z" fill="#DF9926"/>
<path d="M20.1523 42.3184L51.5311 10.0762L39.1523 34.2579H55.2736L24.1826 65.9244L35.6978 42.3184H20.1523Z" fill="#FCFCFF" stroke="#DF9926" stroke-width="3"/>
</svg>
