<svg width="41" height="40" viewBox="0 0 41 40" fill="none" xmlns="http://www.w3.org/2000/svg">
<path d="M24.0016 3.3335H10.6683C9.78424 3.3335 8.93639 3.68469 8.31127 4.30981C7.68615 4.93493 7.33496 5.78277 7.33496 6.66683V33.3335C7.33496 34.2176 7.68615 35.0654 8.31127 35.6905C8.93639 36.3156 9.78424 36.6668 10.6683 36.6668H30.6683C31.5523 36.6668 32.4002 36.3156 33.0253 35.6905C33.6504 35.0654 34.0016 34.2176 34.0016 33.3335V13.3335L24.0016 3.3335Z" stroke="#737373" stroke-width="2" stroke-linecap="round" stroke-linejoin="round"/>
<path d="M24.001 3.3335V13.3335H34.001" stroke="#737373" stroke-width="2" stroke-linecap="round" stroke-linejoin="round"/>
<path d="M27.3343 21.6665H14.001" stroke="#737373" stroke-width="2" stroke-linecap="round" stroke-linejoin="round"/>
<path d="M27.3343 28.3335H14.001" stroke="#737373" stroke-width="2" stroke-linecap="round" stroke-linejoin="round"/>
<path d="M17.3343 15H15.6676H14.001" stroke="#737373" stroke-width="2" stroke-linecap="round" stroke-linejoin="round"/>
</svg>
