<svg width="24" height="24" viewBox="0 0 24 24" fill="none" xmlns="http://www.w3.org/2000/svg">
<circle cx="12" cy="12" r="11.125" stroke="#737373" stroke-width="1.75"/>
<path d="M15.625 12C15.625 15.2366 15.1316 18.1277 14.3627 20.178C13.977 21.2064 13.539 21.9779 13.0969 22.4765C12.6539 22.9761 12.2812 23.125 12 23.125C11.7188 23.125 11.3461 22.9761 10.9031 22.4765C10.461 21.9779 10.023 21.2064 9.63731 20.178C8.86844 18.1277 8.375 15.2366 8.375 12C8.375 8.76344 8.86844 5.87226 9.63731 3.82195C10.023 2.79357 10.461 2.02213 10.9031 1.5235C11.3461 1.02386 11.7188 0.875 12 0.875C12.2812 0.875 12.6539 1.02386 13.0969 1.5235C13.539 2.02213 13.977 2.79357 14.3627 3.82195C15.1316 5.87226 15.625 8.76344 15.625 12Z" stroke="#737373" stroke-width="1.75"/>
<path d="M1.5 16.5H22.5" stroke="#737373" stroke-width="1.75"/>
<path d="M0.959961 8.64062L23.04 8.64063" stroke="#737373" stroke-width="1.75"/>
</svg>
