<svg width="24" height="24" viewBox="0 0 24 24" fill="none" xmlns="http://www.w3.org/2000/svg">
<circle cx="12" cy="12" r="12" fill="#00B28F"/>
<path d="M8.38679 11.2918C7.99627 10.9013 7.36311 10.9013 6.97258 11.2918C6.58206 11.6823 6.58206 12.3155 6.97258 12.706L8.38679 11.2918ZM10.5597 14.8789L9.85258 15.586L10.546 16.2794L11.2528 15.5997L10.5597 14.8789ZM17.4928 9.59974C17.8909 9.21695 17.9033 8.5839 17.5205 8.1858C17.1377 7.78769 16.5047 7.77528 16.1066 8.15807L17.4928 9.59974ZM6.97258 12.706L9.85258 15.586L11.2668 14.1718L8.38679 11.2918L6.97258 12.706ZM11.2528 15.5997L17.4928 9.59974L16.1066 8.15807L9.86658 14.1581L11.2528 15.5997Z" fill="#FCFCFF"/>
</svg>
