<svg width="18" height="18" viewBox="0 0 18 18" fill="none" xmlns="http://www.w3.org/2000/svg">
<circle cx="9" cy="9" r="9" fill="#E5E5E8"/>
<path d="M6.46712 8.29305C6.07659 7.90253 5.44343 7.90253 5.0529 8.29305C4.66238 8.68357 4.66238 9.31674 5.0529 9.70726L6.46712 8.29305ZM7.92001 11.1602L7.2129 11.8673L7.90628 12.5606L8.61312 11.881L7.92001 11.1602ZM13.2931 7.38099C13.6912 6.9982 13.7036 6.36515 13.3208 5.96705C12.938 5.56894 12.305 5.55653 11.9069 5.93932L13.2931 7.38099ZM5.0529 9.70726L7.2129 11.8673L8.62712 10.453L6.46712 8.29305L5.0529 9.70726ZM8.61312 11.881L13.2931 7.38099L11.9069 5.93932L7.2269 10.4393L8.61312 11.881Z" fill="#FCFCFF"/>
</svg>
