<svg width="20" height="20" viewBox="0 0 20 20" fill="none" xmlns="http://www.w3.org/2000/svg">
<path d="M16.25 9.25H16.75V8.75C16.75 6.72673 16.1834 5.06771 14.9995 3.83355C13.8049 2.58827 12.1115 2 10 2C7.88852 2 6.19511 2.58827 5.00051 3.83355C3.81658 5.06771 3.25 6.72673 3.25 8.75V9.25H3.75H4.375C4.40678 9.25 4.42746 9.25566 4.4609 9.2891C4.49434 9.32254 4.5 9.34322 4.5 9.375V15.625C4.5 15.6568 4.49434 15.6775 4.4609 15.7109C4.42746 15.7443 4.40678 15.75 4.375 15.75H3.75H3.25V16.25C3.25 17.0728 3.54688 17.7891 4.12887 18.3711C4.71085 18.9531 5.42719 19.25 6.25 19.25H7.5H8V18.75C8 18.5263 8.07107 18.3587 8.21488 18.2149C8.3587 18.0711 8.5263 18 8.75 18H10C10.2237 18 10.3913 18.0711 10.5351 18.2149C10.6809 18.3607 10.75 18.5259 10.75 18.7402C10.75 18.9549 10.6805 19.126 10.5304 19.2801C10.3856 19.4289 10.2194 19.5 10 19.5H6.25C5.33943 19.5 4.58164 19.187 3.9473 18.5527C3.31297 17.9184 3 17.1606 3 16.25V15.75H2.5C2.02198 15.75 1.57173 15.511 1.14788 14.878C0.724355 14.2456 0.5 13.4615 0.5 12.5C0.5 11.88 0.604116 11.3184 0.806398 10.8098C1.01143 10.2943 1.27262 9.91799 1.57647 9.65605L1.75 9.50645V9.27734V8.75C1.75 7.63213 1.96764 6.56626 2.40307 5.54819C2.84187 4.52227 3.42879 3.64551 4.16215 2.91215C4.89551 2.17879 5.77227 1.59187 6.79819 1.15307C7.81626 0.717635 8.88214 0.5 10 0.5C11.1179 0.5 12.1837 0.717635 13.2018 1.15307C14.2277 1.59187 15.1045 2.17879 15.8379 2.91215C16.5712 3.64551 17.1581 4.52227 17.5969 5.54819C18.0324 6.56626 18.25 7.63213 18.25 8.75V9.27734V9.50645L18.4235 9.65605C18.7274 9.91799 18.9886 10.2943 19.1936 10.8098C19.3959 11.3184 19.5 11.88 19.5 12.5C19.5 13.4615 19.2756 14.2456 18.8521 14.878C18.4283 15.511 17.978 15.75 17.5 15.75H15.625C15.5932 15.75 15.5725 15.7443 15.5391 15.7109C15.5057 15.6775 15.5 15.6568 15.5 15.625V9.375C15.5 9.34322 15.5057 9.32254 15.5391 9.2891C15.5725 9.25566 15.5932 9.25 15.625 9.25H16.25Z" stroke="#737373"/>
</svg>
