<svg width="32" height="25" viewBox="0 0 32 31" fill="none" xmlns="http://www.w3.org/2000/svg">
<path d="M12 11.8672H22M12 15.3672H22M12 18.8672H18M20 18.8672L22 20.8672L26.5 16.3672" class="stroke" stroke-width="1.5"/>
<path class="path-fill" d="M18.955 24.935C17.6567 24.935 16.4006 24.7239 15.2289 24.3439C14.8594 24.2172 14.4478 24.3122 14.1628 24.5972L12.5056 26.6766C9.51833 25.2516 6.72111 22.56 5.23278 19.4672L7.29111 17.715C7.57611 17.4194 7.66056 17.0077 7.54444 16.6383C7.15389 15.4666 6.95333 14.2105 6.95333 12.9122C6.95333 12.3422 6.47833 11.8672 5.90833 11.8672H2.25611C1.68611 11.8672 1 12.1205 1 12.9122C1 22.7183 9.15945 30.8672 18.955 30.8672C19.7044 30.8672 20 30.2022 20 29.6216V25.98C20 25.41 19.525 24.935 18.955 24.935Z"/>
<path class="path-fill" fill-rule="evenodd" clip-rule="evenodd" d="M4.70585 2.75C4.25826 2.75 3.8047 2.94663 3.45261 3.33785C3.09739 3.73253 2.88232 4.2884 2.88232 4.88725V9.86719H0.882324V4.88725C0.882324 3.822 1.26221 2.78193 1.96602 1.99992C2.67296 1.21443 3.65575 0.75 4.70585 0.75H11.7647C12.1159 0.75 12.4414 0.934299 12.6222 1.2355L15.1544 5.45588H27.2941C28.3442 5.45588 29.327 5.92031 30.0339 6.7058C30.7377 7.48781 31.1176 8.52789 31.1176 9.59314V26.848C31.1176 27.9133 30.7377 28.9534 30.0339 29.7354C29.327 30.5209 28.3442 30.9853 27.2941 30.9853H22V28.9853H27.2941C27.7417 28.9853 28.1952 28.7887 28.5473 28.3974C28.9026 28.0028 29.1176 27.4469 29.1176 26.848V9.59314C29.1176 8.99428 28.9026 8.43842 28.5473 8.04373C28.1952 7.65251 27.7417 7.45588 27.2941 7.45588H14.5882C14.2369 7.45588 13.9114 7.27158 13.7307 6.97038L11.1985 2.75H4.70585ZM9 28.9853H4.70585C4.25826 28.9853 3.8047 28.7887 3.45261 28.3974C3.09739 28.0028 2.88232 27.4469 2.88232 26.848V22.8672H0.882324V26.848C0.882324 27.9133 1.26221 28.9534 1.96602 29.7354C2.67296 30.5209 3.65575 30.9853 4.70585 30.9853H9V28.9853Z"/>
</svg>
