<svg width="16" height="20" viewBox="0 0 16 20" fill="none" xmlns="http://www.w3.org/2000/svg">
<path class="hour-glass" d="M11.2682 9.10128C12.2259 8.53264 13.0195 7.72503 13.5713 6.75753C14.1231 5.79004 14.4142 4.69582 14.416 3.58203V2.66536H15.3327V0.832031H0.666016V2.66536H1.58268V3.58203C1.58454 4.69582 1.87562 5.79004 2.42742 6.75753C2.97922 7.72503 3.77282 8.53264 4.73052 9.10128C5.05502 9.29195 5.24935 9.60086 5.24935 9.92628V10.0711C5.24935 10.3956 5.05502 10.7036 4.73052 10.8961C3.77282 11.4648 2.97922 12.2724 2.42742 13.2399C1.87562 14.2074 1.58454 15.3016 1.58268 16.4154V17.332H0.666016V19.1654H15.3327V17.332H14.416V16.4154C14.4143 15.3018 14.1233 14.2077 13.5717 13.2404C13.02 12.2731 12.2266 11.4656 11.2691 10.897C10.9437 10.7045 10.7493 10.3956 10.7493 10.0711V9.92628C10.7493 9.60086 10.9437 9.29195 11.2682 9.10128ZM10.3378 12.4755C11.021 12.8817 11.5871 13.4583 11.9806 14.1489C12.3741 14.8395 12.5816 15.6205 12.5827 16.4154V17.332H3.41602V16.4154C3.41722 15.6203 3.62481 14.8392 4.01848 14.1484C4.41215 13.4576 4.97841 12.8809 5.66185 12.4746C6.55193 11.9494 7.08268 11.0501 7.08268 10.0711V9.92628C7.08268 8.94636 6.55102 8.0462 5.66093 7.52186C4.97767 7.1157 4.41158 6.53909 4.01807 5.84848C3.62455 5.15786 3.4171 4.37689 3.41602 3.58203V2.66536H12.5827V3.58203C12.5827 5.19536 11.7228 6.7042 10.3378 7.52186C9.44768 8.0462 8.91602 8.94636 8.91602 9.92628V10.0711C8.91602 11.0501 9.44677 11.9494 10.3378 12.4755Z"/>
</svg>
