<svg width="22" height="23" viewBox="0 0 22 23" fill="none" xmlns="http://www.w3.org/2000/svg">
<path d="M5.97813 9.92067L6.70413 10.028L5.97813 9.92067ZM5.96347 10.028L5.23747 9.92067L5.96347 10.028ZM16.0219 9.92067L16.7479 9.81333L16.0219 9.92067ZM16.0365 10.028L15.3105 10.1353L16.0365 10.028ZM13.9333 19.1667V19.9333C14.1278 19.9333 14.3144 19.8526 14.4519 19.7088C14.5894 19.565 14.6667 19.37 14.6667 19.1667H13.9333ZM8.06667 19.1667H7.33333C7.33333 19.37 7.4106 19.565 7.54812 19.7088C7.68565 19.8526 7.87217 19.9333 8.06667 19.9333V19.1667ZM6.974 14.0346L7.5548 13.5654L6.974 14.0346ZM15.026 14.0346L14.4452 13.5654L15.026 14.0346ZM8.8 23H13.2V21.4667H8.8V23ZM5.25067 9.81333L5.236 9.92067L6.688 10.1353L6.70267 10.028L5.25067 9.81333ZM11 4.6C9.60189 4.59975 8.25063 5.12691 7.19445 6.08463C6.13826 7.04234 5.44808 8.36631 5.25067 9.81333L6.70267 10.028C6.8506 8.94678 7.36666 7.95763 8.15607 7.24219C8.94548 6.52675 9.95526 6.13303 11 6.13333V4.6ZM16.7493 9.81333C16.5519 8.36631 15.8617 7.04234 14.8056 6.08463C13.7494 5.12691 12.3981 4.59975 11 4.6V6.13333C12.0447 6.13335 13.0543 6.52718 13.8436 7.24257C14.633 7.95795 15.1491 8.94691 15.2973 10.028L16.7493 9.81333ZM16.764 9.92067L16.7493 9.81333L15.2973 10.028L15.312 10.1353L16.764 9.92067ZM15.6053 14.5038C16.5293 13.2557 16.9957 11.6288 16.764 9.91913L15.312 10.1369C15.396 10.7398 15.3626 11.3543 15.214 11.9434C15.0653 12.5326 14.8043 13.0843 14.4467 13.5654L15.6053 14.5038ZM13.2 16.7133V19.1667H14.6667V16.7149H13.2V16.7133ZM13.9333 18.4H8.06667V19.9333H13.9333V18.4ZM8.8 19.1667V16.7149H7.33333V19.1667H8.8ZM5.236 9.92067C5.12451 10.7268 5.16966 11.5482 5.36874 12.3356C5.56782 13.1231 5.91675 13.8605 6.39467 14.5038L7.55333 13.5654C7.19572 13.0843 6.93474 12.5326 6.78605 11.9434C6.63735 11.3543 6.604 10.7398 6.688 10.1369L5.236 9.91913V9.92067ZM8.8 16.7133C8.8 15.4514 8.1576 14.3781 7.55333 13.5639L6.39467 14.5023C6.9564 15.2613 7.33333 15.9865 7.33333 16.7133H8.8ZM14.4467 13.5639C13.8409 14.3796 13.2 15.4514 13.2 16.7133H14.6667C14.6667 15.9865 15.0436 15.2613 15.6053 14.5023L14.4467 13.5639ZM10.2667 0V3.06667H11.7333V0H10.2667ZM0 12.2667H2.93333V10.7333H0V12.2667ZM19.0667 12.2667H22V10.7333H19.0667V12.2667ZM4.9192 5.59053L2.7192 3.29053L1.6808 4.37613L3.8808 6.67613L4.9192 5.59053ZM18.1192 6.67613L20.3192 4.37613L19.2808 3.29053L17.0808 5.59053L18.1192 6.67613Z" fill="#DF9926"/>
</svg>
