<svg width="16" height="16" viewBox="0 0 16 16" fill="none" xmlns="http://www.w3.org/2000/svg">
<path d="M7.99632 0C5.24135 0 3 2.52338 3 5.625C3 6.67294 3.25784 7.69563 3.74581 8.58288L7.71192 15.7784C7.78789 15.9163 7.92174 16 8.06569 16C8.0668 16 8.06788 16 8.06899 16C8.21419 15.9987 8.34832 15.9124 8.4229 15.7721L12.2879 8.50688C12.749 7.63838 12.9926 6.64184 12.9926 5.625C12.9926 2.52338 10.7513 0 7.99632 0ZM11.5733 8.02556L8.05939 14.6308L4.45357 8.08894C4.0474 7.35044 3.82717 6.49844 3.82717 5.625C3.82717 3.04031 5.70051 0.93125 7.99632 0.93125C10.2921 0.93125 12.1627 3.04031 12.1627 5.625C12.1627 6.47253 11.957 7.30275 11.5733 8.02556Z" class="icon-stroke"/>
<path d="M7.99779 2.8125C6.34481 2.8125 5 4.1583 5 5.8125C5 7.45613 6.32293 8.8125 7.99779 8.8125C9.69331 8.8125 10.9956 7.43807 10.9956 5.8125C10.9956 4.1583 9.65078 2.8125 7.99779 2.8125ZM7.99779 7.81917C6.89004 7.81917 5.9926 6.91807 5.9926 5.8125C5.9926 4.7097 6.89581 3.80583 7.99779 3.80583C9.09978 3.80583 9.99966 4.7097 9.99966 5.8125C9.99966 6.90193 9.1231 7.81917 7.99779 7.81917Z" class="icon-stroke"/>
</svg>
