<svg width="151" height="152" viewBox="0 0 151 152" fill="none" xmlns="http://www.w3.org/2000/svg">
<path d="M147.999 75.9578C147.999 97.6622 138.427 117.113 123.261 130.302C121.981 131.416 120.674 132.473 119.338 133.502C119.004 133.753 118.67 134.003 118.336 134.254C106.454 142.908 91.7899 148.028 75.9568 148.028C59.6784 148.028 44.6522 142.629 32.5756 133.502C32.2417 133.252 31.9078 133.002 31.5739 132.751C30.4608 131.861 29.3478 130.97 28.2904 130.024C13.3198 116.779 3.88672 97.4675 3.88672 75.9578C3.88672 36.1662 36.1374 3.88773 75.9568 3.88773C115.776 3.88773 147.999 36.1384 147.999 75.9578Z" fill="#97BDD3" stroke="#FCFCFF" stroke-width="6" stroke-miterlimit="10"/>
<path d="M48.6629 71.0881C48.6629 73.0916 48.8855 75.0673 49.3029 76.9595H47.689C42.5411 76.9595 38.3672 72.7855 38.3672 67.6377V60.7924C38.3672 55.6445 42.5411 51.4706 47.689 51.4706H49.8594C49.0803 53.975 48.6629 56.6463 48.6629 59.4289V71.0881Z" stroke="#FCFCFF" stroke-width="6" stroke-miterlimit="10"/>
<path d="M113.082 60.7924V67.6377C113.082 72.7855 108.908 76.9595 103.76 76.9595H102.146C102.564 75.0673 102.786 73.1194 102.786 71.0881V59.4011C102.786 56.6463 102.369 53.9471 101.59 51.4428H103.76C108.908 51.4428 113.082 55.6445 113.082 60.7924Z" stroke="#FCFCFF" stroke-width="6" stroke-miterlimit="10"/>
<path d="M123.264 130.302C121.984 131.416 120.676 132.473 119.341 133.502C119.007 133.753 118.673 134.003 118.339 134.254C106.457 142.908 91.7925 148.028 75.9594 148.028C59.681 148.028 44.6548 142.629 32.5782 133.502C32.2443 133.252 31.9104 133.002 31.5765 132.751C30.4634 131.861 29.3504 130.97 28.293 130.024C30.4634 123.346 35.8339 118.003 42.8461 116.028L47.5766 114.692C54.6723 112.661 59.5975 106.177 59.5975 98.8031V92.8761C64.1054 96.2153 69.6985 98.2188 75.7368 98.2188C81.7751 98.2188 87.3681 96.2431 91.876 92.8761V98.8031C91.876 106.177 96.7734 112.688 103.897 114.692L108.627 116.028C115.723 118.003 121.149 123.485 123.264 130.302Z" stroke="#FCFCFF" stroke-width="6" stroke-miterlimit="10"/>
<path d="M48.6602 65.3559V59.4289C48.6602 56.6741 49.0776 54.0028 49.8567 51.4706C53.2515 40.3958 63.5472 32.354 75.7351 32.354C83.2204 32.354 89.9822 35.387 94.8796 40.2845C97.9683 43.3732 100.306 47.1854 101.614 51.4706C102.393 53.975 102.81 56.6463 102.81 59.4289V64.8272" stroke="#FCFCFF" stroke-width="6" stroke-miterlimit="10"/>
<path d="M105.508 76.7091C104.089 79.2413 101.223 80.9665 97.9395 80.9665H81.6055" stroke="#FCFCFF" stroke-width="6" stroke-miterlimit="10"/>
<path d="M78.9912 74.7334H74.3999C71.7286 74.7334 69.5859 76.9039 69.5859 79.5474V82.0517C69.5859 84.7231 71.7564 86.8657 74.3999 86.8657H78.9912C81.6625 86.8657 83.8052 84.6952 83.8052 82.0517V79.5474C83.8052 76.876 81.6347 74.7334 78.9912 74.7334Z" fill="#FCFCFF"/>
</svg>
