<svg width="30" height="30" viewBox="0 0 39 38" fill="none" xmlns="http://www.w3.org/2000/svg">
<path d="M6.82932 31.8144C4.13185 29.3711 2.26014 26.2072 1.45014 22.7342C0.640216 19.2615 0.927664 15.634 2.27665 12.319C3.62583 9.00351 5.9766 6.14917 9.03081 4.12911C12.0854 2.10882 15.7012 1.0175 19.4105 1.00021C23.1198 0.982919 26.7465 2.04048 29.8213 4.03232C32.8958 6.02391 35.2751 8.85637 36.6574 12.1592C38.0396 15.4617 38.3633 19.0864 37.5881 22.5664C36.8129 26.0467 34.973 29.2277 32.3003 31.6959" stroke="#737373" stroke-width="2" stroke-linecap="round"/>
<path d="M20.1457 4.42967C20.1457 4.7487 19.8727 5.03708 19.4986 5.03708C19.1245 5.03708 18.8516 4.7487 18.8516 4.42967C18.8516 4.11064 19.1245 3.82227 19.4986 3.82227C19.8727 3.82227 20.1457 4.11064 20.1457 4.42967Z" fill="#737373" stroke="#737373"/>
<path d="M31.6174 11.0742C31.6174 11.3933 31.3444 11.6816 30.9703 11.6816C30.5962 11.6816 30.3232 11.3933 30.3232 11.0742C30.3232 10.7552 30.5962 10.4668 30.9703 10.4668C31.3444 10.4668 31.6174 10.7552 31.6174 11.0742Z" fill="#737373" stroke="#737373"/>
<path d="M7.52948 11.0742C7.52948 11.3933 7.2565 11.6816 6.88242 11.6816C6.50833 11.6816 6.23535 11.3933 6.23535 11.0742C6.23535 10.7552 6.50833 10.4668 6.88242 10.4668C7.2565 10.4668 7.52948 10.7552 7.52948 11.0742Z" fill="#737373" stroke="#737373"/>
<path d="M5.23552 22.1484C5.23552 22.4674 4.96255 22.7558 4.58846 22.7558C4.21437 22.7558 3.94141 22.4674 3.94141 22.1484C3.94141 21.8294 4.21437 21.541 4.58846 21.541C4.96255 21.541 5.23552 21.8294 5.23552 22.1484Z" fill="#737373" stroke="#737373"/>
<path d="M33.9113 22.1484C33.9113 22.4674 33.6383 22.7558 33.2642 22.7558C32.8902 22.7558 32.6172 22.4674 32.6172 22.1484C32.6172 21.8294 32.8902 21.541 33.2642 21.541C33.6383 21.541 33.9113 21.8294 33.9113 22.1484Z" fill="#737373" stroke="#737373"/>
<path d="M34.3336 15.1844C34.3769 15.1798 34.4164 15.2104 34.4228 15.2534C34.4291 15.2956 34.4015 15.335 34.3598 15.3434L18.8884 18.4826C18.4241 18.5768 17.9728 18.2601 17.9031 17.7913C17.8349 17.3325 18.1603 16.9119 18.6217 16.8627L34.3336 15.1844Z" fill="#737373" stroke="#737373"/>
</svg>
