<svg width="18" height="18" viewBox="0 0 24 24" fill="none" xmlns="http://www.w3.org/2000/svg">
<circle cx="12" cy="12" r="12" fill="#474747"/>
<path  d="M8.38716 11.2928C7.99664 10.9023 7.36347 10.9023 6.97295 11.2928C6.58242 11.6833 6.58242 12.3165 6.97295 12.707L8.38716 11.2928ZM10.5601 14.8799L9.85295 15.587L10.5463 16.2804L11.2532 15.6007L10.5601 14.8799ZM17.4932 9.60072C17.8913 9.21792 17.9037 8.58488 17.5209 8.18677C17.1381 7.78867 16.505 7.77626 16.1069 8.15905L17.4932 9.60072ZM6.97295 12.707L9.85295 15.587L11.2672 14.1728L8.38716 11.2928L6.97295 12.707ZM11.2532 15.6007L17.4932 9.60072L16.1069 8.15905L9.86694 14.159L11.2532 15.6007Z" fill="#888989"/>
</svg>
