<svg width="18" height="20" viewBox="0 0 18 20" fill="none" xmlns="http://www.w3.org/2000/svg">
<path d="M6.2 8.35622e-06C6.75228 8.26582e-06 7.2 0.447724 7.2 1.00001L7.2 19C7.2 19.5523 6.75228 20 6.2 20L0.999999 20C0.447715 20 -8.54657e-07 19.5523 -8.30516e-07 19L-4.37118e-08 1.00001C-1.95707e-08 0.447724 0.447716 9.29772e-06 1 9.20732e-06L6.2 8.35622e-06Z" fill="#007CC3"/>
<path d="M17 -5.93429e-07C17.5523 -6.83824e-07 18 0.447715 18 0.999999L18 19C18 19.5523 17.5523 20 17 20L11.8 20C11.2477 20 10.8 19.5523 10.8 19L10.8 1C10.8 0.447716 11.2477 3.48071e-07 11.8 2.57676e-07L17 -5.93429e-07Z" fill="#007CC3"/>
</svg>
