<svg width="60" height="40" viewBox="0 0 60 60" fill="none" xmlns="http://www.w3.org/2000/svg">
<path d="M51.2109 31.4225H45.3377C44.5384 31.4225 43.7645 31.5317 43.028 31.7326C41.5751 28.8765 38.6088 26.9141 35.1908 26.9141H24.8092C21.3912 26.9141 18.4249 28.8765 16.972 31.7326C16.2355 31.5317 15.4616 31.4225 14.6623 31.4225H8.78906C3.94277 31.4225 0 35.3653 0 40.2116V49.6004C0 52.5082 2.36566 54.8738 5.27344 54.8738H54.7266C57.6343 54.8738 60 52.5082 60 49.6004V40.2116C60 35.3653 56.0572 31.4225 51.2109 31.4225ZM16.0201 35.7034V51.3583H5.27344C4.30418 51.3583 3.51562 50.5698 3.51562 49.6005V40.2117C3.51562 37.3039 5.88129 34.9382 8.78906 34.9382H14.6623C15.1395 34.9382 15.6015 35.003 16.0414 35.1225C16.0288 35.3148 16.0201 35.5081 16.0201 35.7034ZM40.4643 51.3583H19.5357V35.7032C19.5357 32.7955 21.9014 30.4298 24.8092 30.4298H35.1908C38.0986 30.4298 40.4643 32.7955 40.4643 35.7032V51.3583ZM56.4844 49.6005C56.4844 50.5698 55.6958 51.3583 54.7266 51.3583H43.9799V35.7032C43.9799 35.5079 43.9712 35.3145 43.9586 35.1223C44.3985 35.003 44.8605 34.9381 45.3377 34.9381H51.2109C54.1187 34.9381 56.4844 37.3038 56.4844 40.2116V49.6005Z" fill="#737373"/>
<path d="M11.7258 14.8242C7.41933 14.8242 3.91577 18.3278 3.91577 22.6343C3.91565 26.9408 7.41933 30.4444 11.7258 30.4444C16.0323 30.4444 19.5359 26.9408 19.5359 22.6343C19.5359 18.3278 16.0324 14.8242 11.7258 14.8242ZM11.7257 26.9288C9.35772 26.9288 7.43128 25.0023 7.43128 22.6343C7.43128 20.2663 9.35772 18.3398 11.7257 18.3398C14.0937 18.3398 16.0202 20.2663 16.0202 22.6343C16.0202 25.0023 14.0937 26.9288 11.7257 26.9288Z" fill="#737373"/>
<path d="M29.9998 5.125C24.2464 5.125 19.5657 9.8057 19.5657 15.5591C19.5657 21.3126 24.2464 25.9933 29.9998 25.9933C35.7533 25.9933 40.434 21.3126 40.434 15.5591C40.434 9.80582 35.7533 5.125 29.9998 5.125ZM29.9998 22.4777C26.1849 22.4777 23.0813 19.3741 23.0813 15.5591C23.0813 11.7443 26.1849 8.64062 29.9998 8.64062C33.8147 8.64062 36.9183 11.7442 36.9183 15.5591C36.9183 19.3741 33.8147 22.4777 29.9998 22.4777Z" fill="#737373"/>
<path d="M48.2764 14.8262C43.97 14.8262 40.4663 18.3297 40.4663 22.6363C40.4664 26.9428 43.97 30.4463 48.2764 30.4463C52.5829 30.4463 56.0865 26.9428 56.0865 22.6363C56.0865 18.3297 52.5829 14.8262 48.2764 14.8262ZM48.2764 26.9307C45.9085 26.9307 43.9819 25.0043 43.9819 22.6363C43.9821 20.2682 45.9085 18.3418 48.2764 18.3418C50.6444 18.3418 52.5708 20.2682 52.5708 22.6363C52.5708 25.0043 50.6444 26.9307 48.2764 26.9307Z" fill="#737373"/>
</svg>
