<svg width="50" height="50" viewBox="0 0 50 50" fill="none" xmlns="http://www.w3.org/2000/svg">
<path d="M24.9995 0C11.1995 0 -0.000488281 11.2 -0.000488281 25C-0.000488281 38.8 11.1995 50 24.9995 50C38.7995 50 49.9995 38.8 49.9995 25C49.9995 11.2 38.7995 0 24.9995 0ZM24.9995 7.5C29.1495 7.5 32.4995 10.85 32.4995 15C32.4995 19.15 29.1495 22.5 24.9995 22.5C20.8495 22.5 17.4995 19.15 17.4995 15C17.4995 10.85 20.8495 7.5 24.9995 7.5ZM24.9995 43C18.7495 43 13.2245 39.8 9.99951 34.95C10.0745 29.975 19.9995 27.25 24.9995 27.25C29.9745 27.25 39.9245 29.975 39.9995 34.95C36.7745 39.8 31.2495 43 24.9995 43Z" fill="#737373"/>
</svg>
