<svg width="22" height="20" viewBox="0 0 22 20" fill="none" xmlns="http://www.w3.org/2000/svg">
<path d="M19.3678 19.3969C9.25116 18.8216 1.22459 11.4297 0.603094 2.26406C0.546479 1.42758 1.33009 0.6 2.43735 0.6H4.54064C5.00494 0.601898 5.44476 0.760304 5.7775 1.03408L6.15872 0.570763L5.7775 1.03408C6.10924 1.30705 6.30852 1.67203 6.35468 2.0538L6.35467 2.0538L6.35503 2.05663L6.7078 4.86229L6.70792 4.86331C6.76722 5.32845 6.59101 5.81712 6.20464 6.17074L6.15336 6.21768L6.11416 6.27511L5.527 7.1354L5.31821 7.44131L5.49811 7.76507C7.3193 11.0425 10.2242 13.6968 13.7857 15.3546L14.2491 15.5703L14.5357 15.1471L15.0682 14.3607C15.2511 14.2054 15.4704 14.0837 15.7137 14.0063C15.9792 13.9219 16.2636 13.8932 16.5447 13.9235L16.5465 13.9236L19.6363 14.2465L19.6391 14.2468C20.6086 14.3434 21.26 15.0819 21.2518 15.8365H21.2517V15.8431V17.7692C21.2517 18.6508 20.4307 19.4571 19.3678 19.3969ZM19.3678 19.3969L19.3337 19.9959M19.3678 19.3969L19.3337 19.9959M19.3337 19.9959C20.7083 20.0738 21.8517 19.0273 21.8517 17.7692V15.8431M19.3337 19.9959C8.95747 19.4058 0.649182 11.8127 0.00446857 2.30465C-0.0806822 1.04656 1.06277 0 2.43735 0H4.54179L21.8517 15.8431M21.8517 15.8431C21.8639 14.7297 20.9272 13.7722 19.6986 13.6498L21.8517 15.8431ZM6.60974 6.61335C7.13281 6.1346 7.38826 5.45545 7.30311 4.78744L16.6089 13.3269C16.2456 13.2878 15.8773 13.3247 15.5318 13.4346C15.1863 13.5445 14.8724 13.7246 14.6139 13.9615L14.0389 14.8107C10.5857 13.2032 7.77885 10.6342 6.02258 7.47363L6.60974 6.61335Z" stroke="#737373" stroke-width="1.2"/>
</svg>
