<svg width="40" height="40" viewBox="0 0 40 40" fill="none" xmlns="http://www.w3.org/2000/svg">
<path class="stroke" d="M25.0528 8.26452C26.7049 8.58679 28.2233 9.39463 29.4135 10.5846C30.6038 11.7747 31.4118 13.2927 31.7342 14.9445M25.0528 1.5C28.4853 1.88124 31.6861 3.41804 34.1297 5.85806C36.5733 8.29807 38.1145 11.4963 38.5002 14.9276M36.8087 28.4228V33.4962C36.8106 33.9672 36.7141 34.4334 36.5253 34.8649C36.3366 35.2964 36.0598 35.6838 35.7127 36.0022C35.3656 36.3206 34.9557 36.563 34.5095 36.7139C34.0632 36.8648 33.5904 36.9208 33.1212 36.8784C27.9162 36.313 22.9164 34.5348 18.5236 31.6867C14.4366 29.0902 10.9716 25.626 8.37459 21.5399C5.51593 17.1281 3.73692 12.1051 3.1817 6.87779C3.13943 6.41014 3.19502 5.93881 3.34493 5.49381C3.49484 5.04882 3.73578 4.6399 4.05242 4.29311C4.36906 3.94631 4.75446 3.66923 5.18408 3.47951C5.61369 3.28978 6.07812 3.19157 6.54778 3.19113H11.6223C12.4432 3.18305 13.239 3.47368 13.8614 4.00885C14.4838 4.54401 14.8904 5.2872 15.0053 6.09987C15.2194 7.72347 15.6167 9.31764 16.1893 10.852C16.4169 11.4572 16.4661 12.1151 16.3312 12.7475C16.1963 13.3799 15.8829 13.9604 15.4281 14.4202L13.2799 16.568C15.6879 20.8018 19.1942 24.3073 23.4289 26.7148L25.5771 24.567C26.037 24.1123 26.6176 23.799 27.2502 23.6641C27.8828 23.5292 28.5407 23.5785 29.1462 23.806C30.6808 24.3785 32.2753 24.7757 33.8993 24.9898C34.721 25.1057 35.4714 25.5195 36.0078 26.1524C36.5442 26.7854 36.8292 27.5934 36.8087 28.4228Z" stroke-width="2" stroke-linecap="round" stroke-linejoin="round"/>
</svg>
