<svg width="24" height="24" viewBox="0 0 24 24" fill="none" xmlns="http://www.w3.org/2000/svg">
<rect x="4.5" y="4.5" width="5" height="11" rx="2.5" stroke="#737373"/>
<path d="M3 14V14C3 15.933 4.567 17.5 6.5 17.5H7.5C9.433 17.5 11 15.933 11 14V14" stroke="#737373" stroke-linecap="round" stroke-linejoin="round"/>
<path d="M7 17.5V20.5H4.5H9.5" stroke="#737373" stroke-linecap="round" stroke-linejoin="round"/>
<path d="M9 2L20 2C21.1046 2 22 2.89543 22 4V9.5C22 10.6046 21.1046 11.5 20 11.5H14.5L13 13L11.5 11.5" stroke="#737373" stroke-linecap="round"/>
<circle cx="13" cy="7" r="1" fill="#737373"/>
<circle cx="16" cy="7" r="1" fill="#737373"/>
<circle cx="19" cy="7" r="1" fill="#737373"/>
</svg>
