<svg width="33" height="25" viewBox="0 0 33 31" fill="none" xmlns="http://www.w3.org/2000/svg">
    <path
        d="M26.3844 23.2139L26.3796 23.2132L22.159 22.5385L22.1561 22.538C21.7959 22.4794 21.4274 22.4964 21.08 22.5864C20.7697 22.6668 20.4871 22.8026 20.2472 22.9809L19.4716 24.0021L18.9562 24.6805L18.2046 24.2795C13.405 21.7192 9.58564 17.8292 7.3118 13.1554L7.04174 12.6003L7.41693 12.1101L8.28793 10.9721L8.35836 10.8801L8.44796 10.8066C8.96354 10.3839 9.21614 9.7798 9.17378 9.19566L9.17366 9.19396L8.89887 5.3131L8.89854 5.30836L8.89855 5.30835C8.86681 4.82765 8.64212 4.35247 8.23796 3.9813C7.83221 3.60866 7.27852 3.37328 6.67939 3.33813L3.79021 3.18083C2.34666 3.10223 1.31617 4.12267 1.32976 5.15332M26.3844 23.2139L25.6723 29.923C11.8922 28.3843 1.49669 17.6919 1.32976 5.15332M26.3844 23.2139C27.6341 23.4076 28.3945 24.4028 28.3335 25.3347L28.3335 25.3347M26.3844 23.2139L28.3335 25.3347M1.32976 5.15332L0.329852 5.16651M1.32976 5.15332L0.329852 5.16651M0.329852 5.16651C0.306972 3.43174 1.95615 2.07949 3.84457 2.18231L6.73569 2.33971L25.5615 30.9169C11.3505 29.3301 0.504396 18.2771 0.329852 5.16651ZM28.3335 25.3347L28.3329 25.3456M28.3335 25.3347L28.3329 25.3456M28.3329 25.3456L28.1888 27.9917C28.1288 29.0936 27.0379 30.0752 25.6724 29.923L28.3329 25.3456Z"
        stroke="#CCCCCC" stroke-width="2" />
    <circle cx="20.7851" cy="10.9928" r="7.28144" transform="rotate(30 20.7851 10.9928)" stroke="#CCCCCC"
        stroke-width="2" />
    <path
        d="M17.6558 10.325C17.2388 9.96286 16.6072 10.0073 16.245 10.4242C15.8829 10.8412 15.9273 11.4728 16.3442 11.835L17.6558 10.325ZM19.2105 13L18.5548 13.755L19.1978 14.3135L19.8515 13.7675L19.2105 13ZM24.641 9.76753C25.0649 9.41351 25.1216 8.78288 24.7675 8.35899C24.4135 7.93509 23.7829 7.87845 23.359 8.23247L24.641 9.76753ZM16.3442 11.835L18.5548 13.755L19.8663 12.245L17.6558 10.325L16.3442 11.835ZM19.8515 13.7675L24.641 9.76753L23.359 8.23247L18.5695 12.2325L19.8515 13.7675Z"
        fill="#CCCCCC" />
</svg>