<svg width="20" height="20" viewBox="0 0 38 21" fill="none" xmlns="http://www.w3.org/2000/svg">
<path d="M16.5 9.52628C17.1667 9.91118 17.1667 10.8734 16.5 11.2583L1.5 19.9186C0.833332 20.3035 -8.66463e-07 19.8224 -8.32814e-07 19.0526L-7.57103e-08 1.73205C-4.20613e-08 0.962249 0.833333 0.481125 1.5 0.866025L16.5 9.52628Z" fill="#007CC3"/>
<path d="M26.2 1.00001C26.7523 1.00001 27.2 1.44772 27.2 2.00001L27.2 19C27.2 19.5523 26.7523 20 26.2 20L21 20C20.4477 20 20 19.5523 20 19L20 2.00001C20 1.44772 20.4477 1.00001 21 1.00001L26.2 1.00001Z" fill="#007CC3"/>
<path d="M37 1C37.5523 1 38 1.44772 38 2L38 19C38 19.5523 37.5523 20 37 20L31.8 20C31.2477 20 30.8 19.5523 30.8 19L30.8 2C30.8 1.44772 31.2477 1 31.8 1L37 1Z" fill="#007CC3"/>
</svg>
