<svg width="60" height="45" viewBox="0 0 60 60" fill="none" xmlns="http://www.w3.org/2000/svg">
    <path
        d="M45.9058 15.558C45.9058 17.3756 44.5825 18.4811 43.6162 19.2923C43.2502 19.5996 42.5691 20.1603 42.5709 20.3697C42.5775 21.1912 41.917 21.8472 41.0954 21.8472C41.0912 21.8472 41.0871 21.8472 41.083 21.8472C40.2671 21.8472 39.6023 21.2113 39.5957 20.394C39.5826 18.7829 40.7583 17.8181 41.7031 17.0249C42.4445 16.4024 42.9306 15.9644 42.9306 15.5636C42.9306 14.7522 42.2704 14.092 41.459 14.092C40.6473 14.092 39.9869 14.7522 39.9869 15.5636C39.9869 16.3852 39.321 17.0512 38.4993 17.0512C37.6777 17.0512 37.0117 16.3852 37.0117 15.5636C37.0117 13.1117 39.0066 11.1168 41.4587 11.1168C43.9109 11.1166 45.9058 13.1059 45.9058 15.558ZM41.1241 23.2204C40.3025 23.2204 39.6694 23.8864 39.6694 24.708V24.7194C39.6694 25.5411 40.3026 26.2014 41.1241 26.2014C41.9456 26.2014 42.6117 25.5297 42.6117 24.708C42.6117 23.8864 41.9458 23.2204 41.1241 23.2204ZM11.1392 33.5829C10.3175 33.5829 9.65157 34.2489 9.65157 35.0705C9.65157 35.8922 10.3175 36.5581 11.1392 36.5581H11.2631C12.0848 36.5581 12.7507 35.8922 12.7507 35.0705C12.7507 34.2489 12.0848 33.5829 11.2631 33.5829H11.1392ZM16.3093 33.5829C15.4876 33.5829 14.8217 34.2489 14.8217 35.0705C14.8217 35.8922 15.4876 36.5581 16.3093 36.5581H16.4331C17.2547 36.5581 17.9207 35.8922 17.9207 35.0705C17.9207 34.2489 17.2547 33.5829 16.4331 33.5829H16.3093ZM60 9.82275V26.5667C60 30.5312 56.8212 33.7482 52.8567 33.7482H33.5646C33.1874 33.7482 32.8769 33.7461 32.617 33.7406C32.3448 33.735 32.0383 33.7328 31.9188 33.7461C31.7944 33.8287 31.4893 34.1082 31.1952 34.3791C31.0787 34.4864 30.9468 34.6044 30.8045 34.7343L25.3463 39.7092C24.9109 40.1064 24.2668 40.2092 23.7276 39.9715C23.1884 39.7337 22.8099 39.1998 22.8099 38.6105V22.8391H7.22645C4.90215 22.8391 2.97521 24.7437 2.97521 27.0677V43.8117C2.97521 46.1358 4.90231 47.9631 7.22645 47.9631H28.7759C29.1469 47.9631 29.494 48.1335 29.7681 48.3837L34.2149 52.4836V38.3449C34.2149 37.5232 34.8808 36.8573 35.7025 36.8573C36.5241 36.8573 37.1901 37.5232 37.1901 38.3449V55.8553C37.1901 56.4446 36.8529 56.9705 36.3136 57.2084C36.1207 57.2935 35.9269 57.327 35.7241 57.327C35.3598 57.327 35.0005 57.1775 34.721 56.9223L28.1992 50.9381H7.22645C3.26182 50.9381 0 47.7761 0 43.8115V27.0677C0 23.1033 3.26182 19.8639 7.22645 19.8639H22.8099V9.82275C22.8099 5.85813 26.0967 2.67383 30.0613 2.67383H52.8569C56.8212 2.67383 60 5.85813 60 9.82275ZM57.0248 9.82275C57.0248 7.49862 55.1807 5.64903 52.8567 5.64903H30.0613C27.7372 5.64903 25.7851 7.49862 25.7851 9.82275V21.3654V35.2388L28.776 32.5358C28.9145 32.4094 29.0698 32.2937 29.183 32.1892C30.5488 30.9307 30.8982 30.7295 32.6797 30.7662C32.9226 30.7713 33.2121 30.7732 33.5646 30.7732H52.8567C55.1807 30.7732 57.0248 28.8909 57.0248 26.5669V9.82275Z"
        fill="#737373" />
</svg>