<svg width="80" height="80" viewBox="0 0 80 80" fill="none" xmlns="http://www.w3.org/2000/svg">
<path d="M42 19.5547V69C34.1872 63.3866 24.9957 59.6842 15 58.6093V10C24.8809 10.836 33.9574 14.2996 42 19.5547ZM42 19.5547C41.8851 19.5547 41.8851 19.5547 42 19.5547Z" stroke="#CCCCCC" stroke-width="2" stroke-miterlimit="10" stroke-linejoin="round"/>
<path d="M74 20.3502V68.6475C72.2098 68.1774 70.4196 67.7074 68.6294 67.3548C65.3846 66.7673 62.028 66.4147 58.6713 66.4147C52.8531 66.4147 47.2587 67.3548 42 69V20.3502C47.1469 18.8226 52.5175 18 58.1119 18C63.5944 18 68.965 18.8226 74 20.3502Z" stroke="#CCCCCC" stroke-width="2" stroke-miterlimit="10" stroke-linejoin="round"/>
<path d="M42 69.0437C36.776 67.3701 31.2114 66.5333 25.4196 66.5333C18.6057 66.5333 12.1325 67.7287 6 70V20.5103C8.95268 19.4345 12.1325 18.5977 15.3123 18V58.6437C25.0789 59.7195 34.164 63.4253 42 69.0437Z" stroke="#CCCCCC" stroke-width="2" stroke-miterlimit="10" stroke-linejoin="round"/>
<path d="M64.2966 42.2159L54.0842 36.1918C53.1463 35.6539 52 36.2993 52 37.4826V49.531C52 50.6068 53.1463 51.3598 54.0842 50.8219L64.2966 44.7977C65.2345 44.1523 65.2345 42.7538 64.2966 42.2159Z" stroke="#CCCCCC" stroke-width="2" stroke-miterlimit="10" stroke-linejoin="round"/>
</svg>