<svg width="30" height="30" viewBox="0 0 42 42" fill="none" xmlns="http://www.w3.org/2000/svg">
<path d="M16.6734 16.6332L16.7808 17.6274C17.2789 17.5735 17.6602 17.1595 17.673 16.6587L16.6734 16.6332ZM16.6597 16.6346L16.5512 15.6406C16.0328 15.6971 15.6449 16.1426 15.6601 16.6638L16.6597 16.6346ZM16.6699 16.9226L17.6699 16.9207C17.6699 16.9074 17.6696 16.8941 17.6691 16.8808L16.6699 16.9226ZM16.7678 18.3455L17.7634 18.2523C17.7621 18.2385 17.7606 18.2246 17.7587 18.2108L16.7678 18.3455ZM28.2933 38.9323L27.8665 39.8366C28.2605 40.0226 28.7296 39.9321 29.0261 39.6128L28.2933 38.9323ZM30.285 36.8892L30.9591 37.6278C31.1662 37.4389 31.2844 37.1717 31.285 36.8913C31.2856 36.611 31.1685 36.3433 30.9623 36.1535L30.285 36.8892ZM24.7168 27.1847L24.9557 26.2136C24.6293 26.1333 24.2843 26.2224 24.0376 26.4507C23.7908 26.679 23.6753 27.016 23.7302 27.3477L24.7168 27.1847ZM36.7571 15.8776C37.3308 21.1325 33.536 25.8575 28.281 26.4312L28.4981 28.4194C34.8511 27.7258 39.4389 22.0135 38.7453 15.6605L36.7571 15.8776ZM26.2035 7.40146C31.4584 6.82776 36.1834 10.6226 36.7571 15.8776L38.7453 15.6605C38.0517 9.30753 32.3394 4.71969 25.9864 5.41328L26.2035 7.40146ZM17.673 16.6587C17.7934 11.9443 21.3854 7.92747 26.2035 7.40146L25.9864 5.41328C20.1598 6.04939 15.8193 10.906 15.6737 16.6076L17.673 16.6587ZM16.7682 17.6287C16.7721 17.6283 16.776 17.6279 16.7808 17.6274L16.5659 15.639C16.5616 15.6394 16.5564 15.64 16.5512 15.6406L16.7682 17.6287ZM17.6691 16.8808C17.6651 16.7872 17.6619 16.6953 17.6593 16.6055L15.6601 16.6638C15.663 16.7622 15.6665 16.8624 15.6708 16.9643L17.6691 16.8808ZM17.7273 17.9551C17.6894 17.6073 17.6705 17.2622 17.6699 16.9207L15.6699 16.9244C15.6707 17.337 15.6934 17.7534 15.7392 18.1722L17.7273 17.9551ZM17.7587 18.2108C17.7471 18.126 17.7367 18.0408 17.7273 17.9551L15.7392 18.1722C15.7504 18.2753 15.763 18.378 15.7769 18.4802L17.7587 18.2108ZM28.7202 38.028C24.9607 36.2532 22.3601 32.8753 20.6191 29.0989C18.88 25.3267 18.0443 21.251 17.7634 18.2523L15.7721 18.4388C16.0687 21.6052 16.9475 25.9119 18.8028 29.9363C20.6562 33.9564 23.5297 37.7893 27.8665 39.8366L28.7202 38.028ZM29.6109 36.1506C29.3745 36.3663 28.6655 37.0619 27.5605 38.2519L29.0261 39.6128C30.1164 38.4387 30.7824 37.7892 30.9591 37.6278L29.6109 36.1506ZM23.7302 27.3477C24.4744 31.8513 27.6546 35.827 29.6077 37.625L30.9623 36.1535C29.1755 34.5087 26.3458 30.9085 25.7034 27.0216L23.7302 27.3477ZM28.281 26.4312C27.133 26.5566 26.0125 26.4736 24.9557 26.2136L24.4779 28.1557C25.7585 28.4708 27.1142 28.5705 28.4981 28.4194L28.281 26.4312Z" class="pace-icon-stroke"/>
<path fill-rule="evenodd" clip-rule="evenodd" d="M3.19752 13.065C3.3179 8.35065 6.9099 4.33379 11.728 3.80778C14.182 3.53986 16.5204 4.22466 18.3745 5.56595C18.9719 5.16586 19.6057 4.81338 20.2711 4.51456C17.9313 2.52177 14.8073 1.4597 11.5109 1.81959C5.74263 2.44934 1.43083 7.2155 1.20381 12.843C1.18904 12.9163 1.18234 12.9924 1.18461 13.0701C1.1873 13.1622 1.19058 13.2558 1.19448 13.3509C1.19592 13.7569 1.21868 14.1665 1.26366 14.5785C1.27415 14.6746 1.28579 14.7703 1.29857 14.8656C1.59697 18.0301 2.47602 22.3269 4.32731 26.3426C6.18068 30.3628 9.05418 34.1957 13.391 36.2429C13.785 36.429 14.2541 36.3384 14.5506 36.0191C15.6409 34.845 16.3069 34.1955 16.4836 34.0342C16.6907 33.8452 16.8089 33.578 16.8095 33.2977C16.8101 33.0173 16.693 32.7496 16.4868 32.5598C14.9176 31.1153 12.5442 28.163 11.5542 24.8326C12.3598 24.9168 13.186 24.9171 14.0226 24.8257C14.5282 24.7705 15.0226 24.6836 15.5041 24.567C15.0492 24.0074 14.6393 23.408 14.2805 22.7739C14.1236 22.7989 13.9652 22.8201 13.8055 22.8376C12.6575 22.9629 11.537 22.8799 10.4802 22.6199C10.1538 22.5396 9.80881 22.6287 9.56208 22.857C9.31535 23.0853 9.19985 23.4223 9.25466 23.754C9.90981 27.7184 12.4525 31.2738 14.3843 33.2947C14.1637 33.5189 13.9016 33.7901 13.6002 34.1085C10.1855 32.2651 7.78328 29.0619 6.14359 25.5052C4.40453 21.733 3.56876 17.6573 3.28793 14.6586C3.28664 14.6448 3.28505 14.6309 3.28318 14.6172C3.27165 14.5323 3.2612 14.4471 3.25185 14.3615C3.21388 14.0137 3.19504 13.6685 3.19442 13.3271C3.19439 13.3137 3.19411 13.3004 3.19355 13.2872L3.18905 13.1723C3.19374 13.1371 3.1966 13.1013 3.19752 13.065Z" class="pace-icon-stroke"/>
</svg>
