<svg width="24" height="24" viewBox="0 0 24 24" xmlns="http://www.w3.org/2000/svg">
<path class="path-fill stroke" d="M22.9096 21.4462L15.7859 14.2865C16.8978 12.8565 17.5017 11.1063 17.5064 9.26381C17.5119 7.05833 16.6564 4.98817 15.1039 3.425C13.5513 1.86183 11.48 0.998591 9.27728 0.993023C7.07455 0.987455 4.99889 1.84296 3.43846 3.39551C1.87529 4.94806 1.01206 7.01662 1.00649 9.22211C1.00092 11.4248 1.85642 13.5005 3.40898 15.0609C4.96152 16.6241 7.03009 17.4873 9.23557 17.4929C11.0781 17.4976 12.8286 16.9025 14.2641 15.8006L21.3877 22.9576C21.4086 22.9786 21.4335 22.9953 21.4608 23.0067C21.4881 23.0181 21.5175 23.024 21.5471 23.0241C21.5767 23.0242 21.606 23.0184 21.6334 23.0071C21.6608 22.9959 21.6857 22.9793 21.7067 22.9584L22.9088 21.7652C22.9298 21.7443 22.9464 21.7195 22.9579 21.6922C22.9693 21.6648 22.9752 21.6355 22.9753 21.6059C22.9753 21.5763 22.9696 21.5469 22.9583 21.5195C22.947 21.4921 22.9305 21.4672 22.9096 21.4462ZM13.6014 13.6099C12.4325 14.7702 10.8853 15.4071 9.24085 15.4029C7.59637 15.3988 6.0525 14.7541 4.88945 13.5879C3.72915 12.419 3.09232 10.8719 3.09647 9.22739C3.10063 7.5829 3.74529 6.03628 4.91147 4.87598C6.0804 3.71569 7.62751 3.07885 9.272 3.08301C10.9165 3.08716 12.4631 3.72907 13.6234 4.898C14.7837 6.06694 15.4205 7.61404 15.4164 9.25853C15.4122 10.903 14.7676 12.4496 13.6014 13.6099Z"/>
</svg>
