<svg width="20" height="20" viewBox="0 0 24 24" fill="none" xmlns="http://www.w3.org/2000/svg">
<path d="M19.2344 7.5C17.1675 7.5 15.4844 5.81799 15.4844 3.75C15.4844 1.68201 17.1675 0 19.2344 0C21.3015 0 22.9844 1.68201 22.9844 3.75C22.9844 5.81799 21.3015 7.5 19.2344 7.5ZM19.2344 1.5C17.9944 1.5 16.9844 2.50891 16.9844 3.75C16.9844 4.99109 17.9944 6 19.2344 6C20.4744 6 21.4844 4.99109 21.4844 3.75C21.4844 2.50891 20.4744 1.5 19.2344 1.5Z" class="share-icon-stroke"/>
<path d="M19.2344 24C17.1675 24 15.4844 22.318 15.4844 20.25C15.4844 18.182 17.1675 16.5 19.2344 16.5C21.3015 16.5 22.9844 18.182 22.9844 20.25C22.9844 22.318 21.3015 24 19.2344 24ZM19.2344 18C17.9944 18 16.9844 19.0089 16.9844 20.25C16.9844 21.4911 17.9944 22.5 19.2344 22.5C20.4744 22.5 21.4844 21.4911 21.4844 20.25C21.4844 19.0089 20.4744 18 19.2344 18Z" class="share-icon-stroke"/>
<path d="M4.73438 15.75C2.6673 15.75 0.984375 14.068 0.984375 12C0.984375 9.93201 2.6673 8.25 4.73438 8.25C6.80145 8.25 8.48438 9.93201 8.48438 12C8.48438 14.068 6.80145 15.75 4.73438 15.75ZM4.73438 9.75C3.49438 9.75 2.48438 10.7589 2.48438 12C2.48438 13.2411 3.49438 14.25 4.73438 14.25C5.97437 14.25 6.98438 13.2411 6.98438 12C6.98438 10.7589 5.97437 9.75 4.73438 9.75Z" class="share-icon-stroke"/>
<path d="M7.3444 11.2711C7.08329 11.2711 6.82932 11.1351 6.69236 10.8932C6.48728 10.5332 6.61234 10.0751 6.97233 9.87018L16.2514 4.58008C16.6103 4.37317 17.0693 4.49915 17.2733 4.86023C17.4784 5.22022 17.3533 5.67816 16.9933 5.88324L7.71427 11.1732C7.59726 11.2391 7.47037 11.2711 7.3444 11.2711Z" class="share-icon-stroke"/>
<path d="M16.6214 19.5177C16.4954 19.5177 16.3683 19.4857 16.2513 19.4188L6.97224 14.1287C6.61226 13.9239 6.48738 13.4657 6.69228 13.1057C6.89626 12.7448 7.35439 12.6198 7.71437 12.8258L16.9932 18.1157C17.3532 18.3208 17.4783 18.7787 17.2734 19.1387C17.1353 19.3817 16.8814 19.5177 16.6214 19.5177Z" class="share-icon-stroke"/>
</svg>
