<svg width="60" height="40" viewBox="0 0 60 60" fill="none" xmlns="http://www.w3.org/2000/svg">
<g clip-path="url(#clip)">
<path d="M49.9548 33.5723C48.8208 31.477 48.1641 29.7989 48.1641 27.4221L48.1642 23.9064C48.1642 19.0828 46.2959 14.527 42.9032 11.0783C39.9958 8.12264 36.2626 6.27834 32.2266 5.76928V2.3439C32.2266 1.04945 31.1773 0.000152588 29.8829 0.000152588C28.5884 0.000152588 27.5392 1.04945 27.5392 2.3439V5.77409C25.4552 6.04127 23.4499 6.66694 21.5553 7.64322C20.4047 8.23619 19.9526 9.64959 20.5455 10.8002C20.9617 11.6076 21.7814 12.0709 22.631 12.0709C22.9924 12.0709 23.3593 11.987 23.7027 11.8101C25.5701 10.8478 27.5824 10.3445 29.6845 10.3142H30.099H30.1272C37.4895 10.421 43.4767 16.5154 43.4767 23.9064L43.4766 27.422C43.4766 31.1397 44.6928 33.6978 45.8326 35.8037C46.2568 36.5874 47.0631 37.0322 47.8958 37.0322C48.2725 37.0322 48.6548 36.9411 49.0094 36.7491C50.1477 36.133 50.571 34.7106 49.9548 33.5723Z" fill="#737373"/>
<path d="M59.3138 55.9997L4.00135 0.687275C3.086 -0.228075 1.60195 -0.228075 0.686713 0.687275C-0.22852 1.60263 -0.228637 3.08657 0.686713 4.0018L13.1799 16.495C12.1327 18.8384 11.6018 21.3313 11.6018 23.907V27.4226C11.6018 30.5453 10.4682 32.528 9.03326 35.0381C7.6194 37.5113 6.01698 40.3142 5.20651 44.6386C4.81967 46.703 5.36694 48.8136 6.70803 50.4294C8.04783 52.0437 10.0195 52.9694 12.1172 52.9694H22.8972C22.8972 56.8465 26.0514 60.0007 29.9285 60.0007C33.8055 60.0007 36.9597 56.8465 36.9597 52.9694H47.6944C48.2882 52.9694 48.8714 52.8967 49.4373 52.7523L55.9992 59.3142C56.4567 59.7719 57.0566 60.0007 57.6564 60.0007C58.2561 60.0007 58.856 59.7718 59.3138 59.3142C60.2291 58.399 60.2291 56.915 59.3138 55.9997ZM29.9285 55.3132C28.6361 55.3132 27.5847 54.2618 27.5847 52.9694H32.2722C32.2722 54.2618 31.2209 55.3132 29.9285 55.3132ZM12.1172 48.282C11.1603 48.282 10.5773 47.7517 10.3149 47.4356C10.052 47.1186 9.63701 46.446 9.81396 45.502C10.4788 41.9545 11.8127 39.6212 13.1027 37.3647C14.6693 34.6244 16.2893 31.7907 16.2893 27.4226V23.907C16.2893 22.6175 16.4684 21.3563 16.8234 20.1386L44.9669 48.282H12.1172Z" fill="#737373"/>
</g>
<defs>
<clipPath id="clip0">
<rect width="60" height="60" fill="white"/>
</clipPath>
</defs>
</svg>
