<svg width="40" height="40" viewBox="0 0 40 40" fill="none" xmlns="http://www.w3.org/2000/svg">
<g clip-path="url(#clip0)">
<mask id="path-1-inside-1" fill="white">
<path d="M33.3036 22.3814C32.5475 20.9846 32.1097 19.8658 32.1097 18.2813L32.1098 15.9375C32.1098 12.7218 30.8643 9.68459 28.6025 7.38545C26.6642 5.41499 24.1754 4.18546 21.4848 3.84609V1.5625C21.4848 0.69953 20.7852 0 19.9223 0C19.0593 0 18.3598 0.69953 18.3598 1.5625V3.84929C16.9705 4.02741 15.6336 4.44452 14.3705 5.09538C13.6034 5.49069 13.302 6.43296 13.6973 7.20006C13.9748 7.73827 14.5213 8.04717 15.0877 8.04717C15.3286 8.04717 15.5732 7.99123 15.8021 7.87327C17.047 7.23178 18.3886 6.89624 19.79 6.876H20.0663H20.0851C24.9933 6.94725 28.9848 11.0101 28.9848 15.9375L28.9847 18.2812C28.9847 20.7597 29.7955 22.4651 30.5554 23.869C30.8382 24.3915 31.3758 24.688 31.9308 24.688C32.182 24.688 32.4368 24.6273 32.6733 24.4993C33.4322 24.0885 33.7143 23.1403 33.3036 22.3814Z"/>
</mask>
<path d="M33.3036 22.3814C32.5475 20.9846 32.1097 19.8658 32.1097 18.2813L32.1098 15.9375C32.1098 12.7218 30.8643 9.68459 28.6025 7.38545C26.6642 5.41499 24.1754 4.18546 21.4848 3.84609V1.5625C21.4848 0.69953 20.7852 0 19.9223 0C19.0593 0 18.3598 0.69953 18.3598 1.5625V3.84929C16.9705 4.02741 15.6336 4.44452 14.3705 5.09538C13.6034 5.49069 13.302 6.43296 13.6973 7.20006C13.9748 7.73827 14.5213 8.04717 15.0877 8.04717C15.3286 8.04717 15.5732 7.99123 15.8021 7.87327C17.047 7.23178 18.3886 6.89624 19.79 6.876H20.0663H20.0851C24.9933 6.94725 28.9848 11.0101 28.9848 15.9375L28.9847 18.2812C28.9847 20.7597 29.7955 22.4651 30.5554 23.869C30.8382 24.3915 31.3758 24.688 31.9308 24.688C32.182 24.688 32.4368 24.6273 32.6733 24.4993C33.4322 24.0885 33.7143 23.1403 33.3036 22.3814Z" fill="#737373" stroke="#FCFCFF" mask="url(#path-1-inside-1)"/>
<mask id="path-2-inside-2" fill="white">
<path d="M39.5423 37.3336L2.66741 0.458651C2.05717 -0.151582 1.0678 -0.151582 0.457646 0.458651C-0.152509 1.06888 -0.152588 2.05818 0.457646 2.66833L8.78646 10.9971C8.08834 12.5594 7.73435 14.2214 7.73435 15.9385V18.2822C7.73435 20.364 6.97865 21.6858 6.02201 23.3592C5.07943 25.008 4.01115 26.8766 3.47084 29.7595C3.21295 31.1358 3.5778 32.5429 4.47186 33.6201C5.36506 34.6962 6.67951 35.3134 8.07794 35.3134H15.2646C15.2646 37.8981 17.3675 40.0009 19.9521 40.0009C22.5368 40.0009 24.6396 37.8981 24.6396 35.3134H31.7961C32.192 35.3134 32.5808 35.2649 32.9581 35.1687L37.3327 39.5433C37.6377 39.8484 38.0376 40.0009 38.4374 40.0009C38.8373 40.0009 39.2372 39.8483 39.5423 39.5433C40.1526 38.9331 40.1526 37.9438 39.5423 37.3336ZM19.9521 36.8759C19.0906 36.8759 18.3896 36.175 18.3896 35.3134H21.5146C21.5146 36.175 20.8138 36.8759 19.9521 36.8759ZM8.07794 32.1884C7.44005 32.1884 7.05138 31.8349 6.87646 31.6242C6.70115 31.4129 6.42451 30.9645 6.54248 30.3352C6.98568 27.9702 7.87498 26.4146 8.73497 24.9102C9.77935 23.0834 10.8593 21.1942 10.8593 18.2822V15.9385C10.8593 15.0788 10.9788 14.238 11.2154 13.4262L29.9777 32.1884H8.07794Z"/>
</mask>
<path d="M39.5423 37.3336L2.66741 0.458651C2.05717 -0.151582 1.0678 -0.151582 0.457646 0.458651C-0.152509 1.06888 -0.152588 2.05818 0.457646 2.66833L8.78646 10.9971C8.08834 12.5594 7.73435 14.2214 7.73435 15.9385V18.2822C7.73435 20.364 6.97865 21.6858 6.02201 23.3592C5.07943 25.008 4.01115 26.8766 3.47084 29.7595C3.21295 31.1358 3.5778 32.5429 4.47186 33.6201C5.36506 34.6962 6.67951 35.3134 8.07794 35.3134H15.2646C15.2646 37.8981 17.3675 40.0009 19.9521 40.0009C22.5368 40.0009 24.6396 37.8981 24.6396 35.3134H31.7961C32.192 35.3134 32.5808 35.2649 32.9581 35.1687L37.3327 39.5433C37.6377 39.8484 38.0376 40.0009 38.4374 40.0009C38.8373 40.0009 39.2372 39.8483 39.5423 39.5433C40.1526 38.9331 40.1526 37.9438 39.5423 37.3336ZM19.9521 36.8759C19.0906 36.8759 18.3896 36.175 18.3896 35.3134H21.5146C21.5146 36.175 20.8138 36.8759 19.9521 36.8759ZM8.07794 32.1884C7.44005 32.1884 7.05138 31.8349 6.87646 31.6242C6.70115 31.4129 6.42451 30.9645 6.54248 30.3352C6.98568 27.9702 7.87498 26.4146 8.73497 24.9102C9.77935 23.0834 10.8593 21.1942 10.8593 18.2822V15.9385C10.8593 15.0788 10.9788 14.238 11.2154 13.4262L29.9777 32.1884H8.07794Z" fill="#737373" stroke="#FCFCFF" mask="url(#path-2-inside-2)"/>
</g>
<defs>
<clipPath id="clip0">
<rect width="40" height="40" fill="white"/>
</clipPath>
</defs>
</svg>
