<svg width="60" height="40" viewBox="0 0 60 60" fill="none" xmlns="http://www.w3.org/2000/svg">
<path d="M49.5151 33.8103L49.5151 33.8103C49.9998 34.7057 49.6669 35.8247 48.7714 36.3094C48.4917 36.4608 48.1915 36.5321 47.8958 36.5321C47.2393 36.5321 46.6057 36.1816 46.2723 35.5657C45.147 33.4866 43.9766 31.0164 43.9766 27.422L43.9767 23.9063C43.9767 16.2436 37.7717 9.92504 30.1345 9.81418L30.1345 9.81413H30.1272H30.099H29.6845V9.81407L29.6773 9.81418C27.498 9.84564 25.4097 10.3679 23.4736 11.3656L23.4736 11.3656C23.2027 11.5052 22.9146 11.5709 22.631 11.5709C21.9613 11.5709 21.3171 11.2057 20.99 10.5712C20.5235 9.666 20.8792 8.55413 21.7844 8.08765C23.6278 7.13771 25.5772 6.5297 27.6027 6.27L28.0392 6.21404V5.77406V2.34387C28.0392 1.32556 28.8646 0.500122 29.8829 0.500122C30.9012 0.500122 31.7266 1.32556 31.7266 2.34387V5.76925V6.21015L32.1641 6.26532C36.0876 6.76021 39.7176 8.55275 42.5468 11.4289L42.5468 11.429C45.8478 14.7844 47.6642 19.2144 47.6642 23.9063L47.6641 27.422C47.6641 29.9156 48.3615 31.6787 49.5151 33.8103Z" fill="#737373" stroke="white"/>
<path d="M1.04024 3.64819L1.04027 3.64822L13.5335 16.1414L13.7768 16.3848L13.6364 16.699C12.618 18.978 12.1018 21.4014 12.1018 23.907V27.4226C12.1018 30.678 10.9109 32.7611 9.48539 35.2547L9.46734 35.2863L9.03326 35.0381L9.46733 35.2863C8.05733 37.7526 6.49198 40.494 5.69795 44.7307C5.3385 46.6489 5.8467 48.6087 7.09277 50.11C8.33758 51.6098 10.1682 52.4694 12.1172 52.4694H22.8972H23.3972V52.9694C23.3972 56.5703 26.3276 59.5006 29.9285 59.5006C33.5293 59.5006 36.4597 56.5703 36.4597 52.9694V52.4694H36.9597H47.6944C48.2471 52.4694 48.7888 52.4017 49.3137 52.2678L49.5896 52.1974L49.7909 52.3987L56.3528 58.9606L56.3529 58.9607C56.7128 59.3208 57.1837 59.5006 57.6564 59.5006C58.1289 59.5006 58.6 59.3207 58.9602 58.9606L1.04024 3.64819ZM1.04024 3.64819C0.320227 2.92827 0.320247 1.76091 1.04029 1.04078C1.76024 0.320731 2.9277 0.320698 3.6478 1.0408L58.9602 56.3532M1.04024 3.64819L58.9602 56.3532M58.9602 56.3532C59.6803 57.0733 59.6803 58.2406 58.9602 58.9606L58.9602 56.3532ZM27.5847 52.4694H27.0847V52.9694C27.0847 54.5379 28.36 55.8132 29.9285 55.8132C31.4971 55.8132 32.7722 54.5379 32.7722 52.9694V52.4694H32.2722H27.5847ZM9.93012 47.7548L9.93023 47.755C10.2443 48.1333 10.9551 48.7819 12.1172 48.7819H44.9669H46.174L45.3204 47.9284L17.177 19.785L16.5797 19.1878L16.3434 19.9986C15.975 21.2624 15.7893 22.5707 15.7893 23.907V27.4226C15.7893 31.6476 14.2327 34.3806 12.6686 37.1165L12.6619 37.1283C11.3714 39.3856 10.0028 41.7797 9.32252 45.4099C9.10777 46.5555 9.61539 47.3754 9.93012 47.7548Z" fill="#737373" stroke="white"/>
</svg>
