<svg width="60" height="45" viewBox="0 0 60 60" fill="none" xmlns="http://www.w3.org/2000/svg">
    <g clip-path="url(#clip0)">
        <path
            d="M49.5151 33.8102L49.5151 33.8102C49.9998 34.7056 49.6669 35.8246 48.7714 36.3093C48.4917 36.4607 48.1915 36.532 47.8958 36.532C47.2393 36.532 46.6057 36.1814 46.2723 35.5655C45.147 33.4865 43.9766 31.0162 43.9766 27.4218L43.9767 23.9062C43.9767 16.2435 37.7717 9.92492 30.1345 9.81406L30.1345 9.814H30.1272H30.099H29.6845V9.81395L29.6773 9.81406C27.498 9.84552 25.4097 10.3678 23.4736 11.3654L23.4736 11.3654C23.2027 11.5051 22.9146 11.5708 22.631 11.5708C21.9613 11.5708 21.3171 11.2055 20.99 10.5711C20.5235 9.66587 20.8792 8.55401 21.7844 8.08753C23.6278 7.13759 25.5772 6.52957 27.6027 6.26987L28.0392 6.21392V5.77393V2.34375C28.0392 1.32544 28.8646 0.5 29.8829 0.5C30.9012 0.5 31.7266 1.32544 31.7266 2.34375V5.76913V6.21003L32.1641 6.2652C36.0876 6.76009 39.7176 8.55263 42.5468 11.4288L42.5468 11.4288C45.8478 14.7843 47.6642 19.2143 47.6642 23.9062L47.6641 27.4219C47.6641 29.9155 48.3615 31.6786 49.5151 33.8102Z"
            fill="#737373" stroke="white" />
        <path
            d="M1.04 3.64746L1.04002 3.64748L13.5332 16.1407L13.7766 16.3841L13.6362 16.6982C12.6178 18.9773 12.1015 21.4007 12.1015 23.9062V27.4219C12.1015 30.6773 10.9107 32.7603 9.48515 35.2539L9.46709 35.2855L9.03302 35.0374L9.46709 35.2855C8.05709 37.7519 6.49173 40.4932 5.69771 44.7299C5.33826 46.6482 5.84645 48.608 7.09253 50.1093C8.33733 51.6091 10.168 52.4687 12.1169 52.4687H22.897H23.397V52.9687C23.397 56.5696 26.3273 59.4999 29.9282 59.4999C33.5291 59.4999 36.4594 56.5696 36.4594 52.9687V52.4687H36.9594H47.6942C48.2469 52.4687 48.7886 52.401 49.3135 52.2671L49.5893 52.1967L49.7906 52.398L56.3525 58.9599L56.3526 58.96C56.7125 59.32 57.1835 59.4999 57.6561 59.4999C58.1287 59.4999 58.5997 59.32 58.96 58.9599L1.04 3.64746ZM1.04 3.64746C0.319983 2.92754 0.320002 1.76018 1.04004 1.04004C1.76 0.319998 2.92746 0.319966 3.64756 1.04007L58.96 56.3525M1.04 3.64746L58.96 56.3525M58.96 56.3525C59.68 57.0726 59.68 58.2399 58.96 58.9598L58.96 56.3525ZM27.5845 52.4687H27.0845V52.9687C27.0845 54.5372 28.3597 55.8124 29.9282 55.8124C31.4968 55.8124 32.772 54.5371 32.772 52.9687V52.4687H32.272H27.5845ZM9.92987 47.7541L9.92999 47.7542C10.2441 48.1326 10.9548 48.7812 12.1169 48.7812H44.9666H46.1737L45.3202 47.9276L17.1767 19.7843L16.5795 19.1871L16.3431 19.9979C15.9747 21.2617 15.789 22.57 15.789 23.9062V27.4219C15.789 31.6469 14.2324 34.3798 12.6684 37.1158L12.6616 37.1276C11.3712 39.3849 10.0026 41.779 9.32228 45.4091C9.10752 46.5547 9.61514 47.3747 9.92987 47.7541Z"
            fill="#737373" stroke="white" />
    </g>
    <defs>
        <clipPath id="clip0">
            <rect width="60" height="60" fill="white" />
        </clipPath>
    </defs>
</svg>