<svg width="44" height="40" viewBox="0 0 44 40" fill="none" xmlns="http://www.w3.org/2000/svg">
<path d="M17.2388 28.5661C15.9534 29.0668 14.5395 29.3171 13.0613 29.3171C12.1401 29.3171 11.2189 29.2128 10.3619 29.0042L3.76356 33.5521C2.6924 34.2823 1.27846 33.3227 1.59981 32.0918L3.6136 24.5188C2.22108 22.5786 1.42842 20.2003 1.51412 17.6342C1.72835 11.6467 6.8271 6.80667 12.9756 6.76494C14.7966 6.74408 16.5319 7.14047 18.0743 7.87065" stroke="#737373" stroke-width="2" stroke-miterlimit="10" stroke-linecap="round"/>
<path d="M39.3907 26.014L40.8689 31.8554C41.1688 33.0863 39.7549 34.0251 38.6837 33.274C37.077 32.1475 35.1917 30.8123 33.842 29.8735C32.4924 30.3533 31.0142 30.6245 29.4931 30.6245C26.7295 30.6245 24.1801 29.7692 22.1021 28.3088C21.9307 28.1836 21.7807 28.0793 21.6093 27.9542C18.6743 25.701 16.7891 22.1753 16.7891 18.2532C16.7891 13.7469 19.2527 9.82481 22.9376 7.65513C24.8657 6.52857 27.1151 5.88184 29.5145 5.88184C36.22 5.88184 41.833 11.0348 42.1972 17.5647C42.3471 20.7775 41.2759 23.74 39.3907 26.014Z" stroke="#737373" stroke-width="2" stroke-miterlimit="10"/>
</svg>
