<svg width="20" height="20" viewBox="0 0 20 20" fill="none" xmlns="http://www.w3.org/2000/svg">
<path d="M15.3019 5.18534C15.3019 5.79123 14.8608 6.15972 14.5387 6.43013C14.4167 6.53255 14.1897 6.71944 14.1903 6.78925C14.1925 7.06308 13.9723 7.28175 13.6985 7.28175C13.6971 7.28175 13.6957 7.28175 13.6943 7.28175C13.4224 7.28175 13.2008 7.0698 13.1986 6.79735C13.1942 6.26032 13.5861 5.93872 13.901 5.67432C14.1482 5.46682 14.3102 5.32082 14.3102 5.18721C14.3102 4.91674 14.0901 4.69669 13.8197 4.69669C13.5491 4.69669 13.329 4.91674 13.329 5.18721C13.329 5.46109 13.107 5.68308 12.8331 5.68308C12.5592 5.68308 12.3372 5.46109 12.3372 5.18721C12.3372 4.36991 13.0022 3.70495 13.8196 3.70495C14.637 3.70489 15.3019 4.36798 15.3019 5.18534ZM13.708 7.7395C13.4342 7.7395 13.2231 7.96148 13.2231 8.23536V8.23917C13.2231 8.51305 13.4342 8.73316 13.708 8.73316C13.9819 8.73316 14.2039 8.50925 14.2039 8.23536C14.2039 7.96148 13.9819 7.7395 13.708 7.7395ZM3.71306 11.1937C3.43917 11.1937 3.21719 11.4156 3.21719 11.6895C3.21719 11.9634 3.43917 12.1854 3.71306 12.1854H3.75438C4.02826 12.1854 4.25025 11.9634 4.25025 11.6895C4.25025 11.4156 4.02826 11.1937 3.75438 11.1937H3.71306ZM5.43642 11.1937C5.16253 11.1937 4.94055 11.4156 4.94055 11.6895C4.94055 11.9634 5.16253 12.1854 5.43642 12.1854H5.47769C5.75157 12.1854 5.97355 11.9634 5.97355 11.6895C5.97355 11.4156 5.75157 11.1937 5.47769 11.1937H5.43642ZM20 3.2736V8.85492C20 10.1764 18.9404 11.2488 17.6189 11.2488H11.1882C11.0625 11.2488 10.959 11.248 10.8723 11.2462C10.7816 11.2443 10.6794 11.2436 10.6396 11.248C10.5981 11.2756 10.4964 11.3688 10.3984 11.4591C10.3596 11.4948 10.3156 11.5342 10.2682 11.5775L8.44876 13.2357C8.30364 13.3681 8.08893 13.4024 7.9092 13.3232C7.72948 13.2439 7.60331 13.0659 7.60331 12.8695V7.61239H2.40882C1.63405 7.61239 0.991736 8.24726 0.991736 9.02192V14.6032C0.991736 15.378 1.6341 15.987 2.40882 15.987H9.59196C9.71565 15.987 9.83135 16.0438 9.9227 16.1273L11.405 17.4939V12.781C11.405 12.5071 11.6269 12.2851 11.9008 12.2851C12.1747 12.2851 12.3967 12.5071 12.3967 12.781V18.6178C12.3967 18.8142 12.2843 18.9895 12.1045 19.0688C12.0402 19.0972 11.9756 19.1084 11.908 19.1084C11.7866 19.1084 11.6668 19.0585 11.5737 18.9734L9.39972 16.9787H2.40882C1.08727 16.9787 0 15.9247 0 14.6032V9.02192C0 7.70043 1.08727 6.62065 2.40882 6.62065H7.60331V3.2736C7.60331 1.95206 8.6989 0.890625 10.0204 0.890625H17.619C18.9404 0.890625 20 1.95206 20 3.2736ZM19.0083 3.2736C19.0083 2.49889 18.3936 1.88236 17.6189 1.88236H10.0204C9.24573 1.88236 8.59504 2.49889 8.59504 3.2736V7.12115V11.7456L9.59201 10.8446C9.63818 10.8025 9.68992 10.7639 9.72766 10.7291C10.1829 10.3096 10.2994 10.2425 10.8932 10.2548C10.9742 10.2565 11.0707 10.2571 11.1882 10.2571H17.6189C18.3936 10.2571 19.0083 9.62963 19.0083 8.85498V3.2736Z" fill="#737373"/>
</svg>
