<svg width="19" height="18" viewBox="0 0 19 18" fill="none" xmlns="http://www.w3.org/2000/svg">
<path d="M9.50032 3V1M9.50032 3C8.94779 3 8.41789 3.21071 8.02719 3.58579C7.63649 3.96086 7.41699 4.46957 7.41699 5C7.41699 5.53043 7.63649 6.03914 8.02719 6.41421C8.41789 6.78929 8.94779 7 9.50032 7M9.50032 3C10.0529 3 10.5828 3.21071 10.9735 3.58579C11.3642 3.96086 11.5837 4.46957 11.5837 5C11.5837 5.53043 11.3642 6.03914 10.9735 6.41421C10.5828 6.78929 10.0529 7 9.50032 7M9.50032 7V17M3.25033 15C3.80286 15 4.33276 14.7893 4.72346 14.4142C5.11416 14.0391 5.33366 13.5304 5.33366 13C5.33366 12.4696 5.11416 11.9609 4.72346 11.5858C4.33276 11.2107 3.80286 11 3.25033 11M3.25033 15C2.69779 15 2.16789 14.7893 1.77719 14.4142C1.38649 14.0391 1.16699 13.5304 1.16699 13C1.16699 12.4696 1.38649 11.9609 1.77719 11.5858C2.16789 11.2107 2.69779 11 3.25033 11M3.25033 15V17M3.25033 11V1M15.7503 15C16.3029 15 16.8328 14.7893 17.2235 14.4142C17.6142 14.0391 17.8337 13.5304 17.8337 13C17.8337 12.4696 17.6142 11.9609 17.2235 11.5858C16.8328 11.2107 16.3029 11 15.7503 11M15.7503 15C15.1978 15 14.6679 14.7893 14.2772 14.4142C13.8865 14.0391 13.667 13.5304 13.667 13C13.667 12.4696 13.8865 11.9609 14.2772 11.5858C14.6679 11.2107 15.1978 11 15.7503 11M15.7503 15V17M15.7503 11V1" stroke="#007CC3" stroke-linecap="round" stroke-linejoin="round"/>
</svg>
