<svg width="24" height="24" viewBox="0 0 24 24" fill="none" xmlns="http://www.w3.org/2000/svg">
<g clip-path="url(#clip0)">
<path fill-rule="evenodd" clip-rule="evenodd" d="M10.695 4.1813C10.7763 3.01255 11.885 2.1088 13.08 2.4063L13.4063 2.4888C13.985 2.6338 14.4988 3.0588 14.6713 3.69505C14.9463 4.71505 15.3375 6.8338 14.7488 9.33255C14.9328 9.30712 15.1175 9.28586 15.3025 9.2688C16.1938 9.18755 17.3888 9.1788 18.4475 9.5313C19.095 9.74755 19.69 10.3825 19.9475 11.1226C20.1775 11.7876 20.1475 12.575 19.655 13.2888C19.7275 13.4375 19.7838 13.5913 19.8275 13.7425C19.9238 14.08 19.9688 14.4513 19.9688 14.8125C19.9688 15.1738 19.9238 15.545 19.8275 15.8825C19.7788 16.0513 19.715 16.2238 19.6275 16.3875C19.8388 16.8713 19.7613 17.4113 19.6238 17.8225C19.483 18.2286 19.2769 18.609 19.0138 18.9488C19.0813 19.1388 19.1088 19.3388 19.1088 19.53C19.1088 19.9113 18.9975 20.3113 18.7925 20.67C18.375 21.4025 17.5463 22 16.375 22L16.375 20.75C17.0788 20.75 17.5013 20.41 17.7075 20.05C17.8012 19.8924 17.8533 19.7134 17.8588 19.53C17.8588 19.3801 17.815 19.3238 17.8088 19.3176L17.3663 18.875L17.8075 18.4325C18.06 18.1813 18.3163 17.7938 18.4388 17.4275C18.5688 17.0375 18.4925 16.8763 18.4325 16.8176L17.9913 16.375L18.4325 15.9325C18.4863 15.88 18.5638 15.7575 18.625 15.5388C18.685 15.33 18.7188 15.0763 18.7188 14.8125C18.7188 14.5488 18.685 14.295 18.625 14.0863C18.5625 13.8688 18.4863 13.745 18.4325 13.6926L17.9913 13.25L18.4325 12.8075C18.8738 12.3675 18.8988 11.9163 18.7663 11.5326C18.6138 11.0951 18.2713 10.7913 18.0525 10.7175C17.2363 10.4463 16.2438 10.4376 15.415 10.5125C14.9552 10.5554 14.4985 10.6268 14.0475 10.7263L14.03 10.7301L14.0263 10.7313C13.9177 10.7583 13.8039 10.7556 13.6967 10.7236C13.5895 10.6915 13.4928 10.6313 13.4168 10.5492C13.3409 10.4671 13.2883 10.3661 13.2647 10.2568C13.2411 10.1474 13.2472 10.0337 13.2825 9.92755C13.9115 8.0171 13.9745 5.96547 13.4637 4.02005C13.4263 3.8813 13.3038 3.7513 13.1038 3.7013L12.7763 3.62005C12.3938 3.5238 11.9738 3.81505 11.9425 4.26755C11.8488 5.62005 11.6438 6.95505 11.34 7.83005C11.1225 8.45755 10.5863 9.41505 9.7925 10.3013C8.99625 11.1913 7.89375 12.0638 6.525 12.4363C6.0325 12.5713 5.75 12.9313 5.75 13.2488L5.75 18.2513C5.75 18.5763 6.025 18.895 6.44125 18.9388C8.0575 19.1101 8.86125 19.6013 9.555 20.0238L9.605 20.055C9.9425 20.26 10.2238 20.4251 10.575 20.5463C10.9213 20.6651 11.3625 20.75 12 20.75L16.375 20.75L16.375 22L12 22C11.2438 22 10.6625 21.8988 10.1675 21.7276C9.74187 21.5721 9.33513 21.3692 8.955 21.1226L8.895 21.085C8.265 20.7013 7.64625 20.3238 6.31 20.1825C5.3525 20.08 4.5 19.3076 4.5 18.25L4.5 13.25C4.5 12.1875 5.35625 11.4601 6.19625 11.2313C7.2575 10.9413 8.16375 10.2476 8.86125 9.4688C9.56125 8.68505 10.0038 7.8688 10.16 7.42005C10.4088 6.7013 10.605 5.4963 10.695 4.18255L10.695 4.1813Z" fill="#007CC3"/>
</g>
<defs>
<clipPath id="clip0">
<rect width="20" height="20" fill="white" transform="translate(2 2)"/>
</clipPath>
</defs>
</svg>
