<svg width="24" height="24" viewBox="0 0 24 24" fill="none" xmlns="http://www.w3.org/2000/svg">
<g clip-path="url(#clip0)">
<path fill-rule="evenodd" clip-rule="evenodd" d="M4.17984 13.305C3.01109 13.2237 2.10734 12.115 2.40484 10.92L2.48734 10.5937C2.63234 10.015 3.05733 9.50125 3.69358 9.32875C4.71358 9.05375 6.83234 8.6625 9.33109 9.25125C9.30566 9.06717 9.2844 8.88254 9.26734 8.6975C9.18609 7.80625 9.17734 6.61125 9.52984 5.5525C9.74609 4.905 10.3811 4.31 11.1211 4.0525C11.7861 3.8225 12.5736 3.8525 13.2873 4.345C13.4361 4.2725 13.5898 4.21625 13.7411 4.1725C14.0786 4.07625 14.4498 4.03125 14.8111 4.03125C15.1723 4.03125 15.5436 4.07625 15.8811 4.1725C16.0498 4.22125 16.2223 4.285 16.3861 4.3725C16.8698 4.16125 17.4098 4.23875 17.8211 4.37625C18.2272 4.51702 18.6076 4.72305 18.9473 4.98625C19.1373 4.91875 19.3373 4.89125 19.5286 4.89125C19.9098 4.89125 20.3098 5.0025 20.6686 5.2075C21.4011 5.625 21.9986 6.45375 21.9986 7.625L20.7486 7.625C20.7486 6.92125 20.4086 6.49875 20.0486 6.2925C19.8909 6.19879 19.7119 6.14674 19.5286 6.14125C19.3786 6.14125 19.3223 6.185 19.3161 6.19125L18.8736 6.63375L18.4311 6.1925C18.1798 5.94 17.7923 5.68375 17.4261 5.56125C17.0361 5.43125 16.8748 5.5075 16.8161 5.5675L16.3736 6.00875L15.9311 5.5675C15.8786 5.51375 15.7561 5.43625 15.5373 5.375C15.3286 5.315 15.0748 5.28125 14.8111 5.28125C14.5473 5.28125 14.2936 5.315 14.0848 5.375C13.8673 5.4375 13.7436 5.51375 13.6911 5.5675L13.2486 6.00875L12.8061 5.5675C12.3661 5.12625 11.9148 5.10125 11.5311 5.23375C11.0936 5.38625 10.7898 5.72875 10.7161 5.9475C10.4448 6.76375 10.4361 7.75625 10.5111 8.585C10.5539 9.04482 10.6253 9.50154 10.7248 9.9525L10.7286 9.97L10.7298 9.97375C10.7568 10.0823 10.7541 10.1961 10.7221 10.3033C10.6901 10.4105 10.6299 10.5072 10.5478 10.5832C10.4656 10.6591 10.3646 10.7117 10.2553 10.7353C10.1459 10.7589 10.0322 10.7528 9.92609 10.7175C8.01563 10.0885 5.96401 10.0255 4.01859 10.5363C3.87984 10.5737 3.74984 10.6962 3.69984 10.8962L3.61859 11.2237C3.52234 11.6062 3.81359 12.0262 4.26609 12.0575C5.61859 12.1512 6.95359 12.3562 7.82859 12.66C8.45609 12.8775 9.41359 13.4137 10.2998 14.2075C11.1898 15.0037 12.0623 16.1062 12.4348 17.475C12.5698 17.9675 12.9298 18.25 13.2473 18.25L18.2498 18.25C18.5748 18.25 18.8936 17.975 18.9373 17.5587C19.1086 15.9425 19.5998 15.1387 20.0223 14.445L20.0536 14.395C20.2586 14.0575 20.4236 13.7762 20.5448 13.425C20.6636 13.0787 20.7486 12.6375 20.7486 12L20.7486 7.625L21.9986 7.625L21.9986 12C21.9986 12.7562 21.8973 13.3375 21.7261 13.8325C21.5707 14.2581 21.3677 14.6649 21.1211 15.045L21.0836 15.105C20.6998 15.735 20.3223 16.3537 20.1811 17.69C20.0786 18.6475 19.3061 19.5 18.2486 19.5L13.2486 19.5C12.1861 19.5 11.4586 18.6437 11.2298 17.8037C10.9398 16.7425 10.2461 15.8362 9.46734 15.1387C8.68359 14.4387 7.86734 13.9962 7.41859 13.84C6.69984 13.5912 5.49484 13.395 4.18109 13.305L4.17984 13.305Z" fill="#007CC3"/>
</g>
<defs>
<clipPath id="clip0">
<rect width="20" height="20" fill="white" transform="translate(2 22) rotate(-90)"/>
</clipPath>
</defs>
</svg>
