<svg width="24" height="24" viewBox="0 0 24 24" fill="none" xmlns="http://www.w3.org/2000/svg">
<g clip-path="url(#clip0)">
<path fill-rule="evenodd" clip-rule="evenodd" d="M13.305 19.8187C13.2237 20.9874 12.115 21.8912 10.92 21.5937L10.5937 21.5112C10.015 21.3662 9.50125 20.9412 9.32875 20.305C9.05375 19.285 8.6625 17.1662 9.25125 14.6674C9.06717 14.6929 8.88254 14.7141 8.6975 14.7312C7.80625 14.8124 6.61125 14.8212 5.5525 14.4687C4.905 14.2524 4.31 13.6175 4.0525 12.8774C3.8225 12.2124 3.8525 11.425 4.345 10.7112C4.2725 10.5625 4.21625 10.4087 4.1725 10.2575C4.07625 9.91995 4.03125 9.5487 4.03125 9.18745C4.03125 8.8262 4.07625 8.45495 4.1725 8.11745C4.22125 7.9487 4.285 7.7762 4.3725 7.61245C4.16125 7.1287 4.23875 6.5887 4.37625 6.17745C4.51702 5.77138 4.72305 5.39097 4.98625 5.0512C4.91875 4.8612 4.89125 4.6612 4.89125 4.46995C4.89125 4.0887 5.0025 3.6887 5.2075 3.32995C5.625 2.59745 6.45375 1.99995 7.625 1.99995L7.625 3.24995C6.92125 3.24995 6.49875 3.58995 6.2925 3.94995C6.19879 4.10765 6.14674 4.28659 6.14125 4.46995C6.14125 4.61995 6.185 4.6762 6.19125 4.68245L6.63375 5.12495L6.1925 5.56745C5.94 5.8187 5.68375 6.2062 5.56125 6.57245C5.43125 6.96245 5.5075 7.1237 5.5675 7.18245L6.00875 7.62495L5.5675 8.06745C5.51375 8.11995 5.43625 8.24245 5.375 8.4612C5.315 8.66995 5.28125 8.9237 5.28125 9.18745C5.28125 9.4512 5.315 9.70495 5.375 9.9137C5.4375 10.1312 5.51375 10.255 5.5675 10.3074L6.00875 10.75L5.5675 11.1925C5.12625 11.6325 5.10125 12.0837 5.23375 12.4674C5.38625 12.9049 5.72875 13.2087 5.9475 13.2825C6.76375 13.5537 7.75625 13.5624 8.585 13.4875C9.04482 13.4446 9.50154 13.3732 9.9525 13.2737L9.97 13.2699L9.97375 13.2687C10.0823 13.2417 10.1961 13.2444 10.3033 13.2764C10.4105 13.3085 10.5072 13.3687 10.5832 13.4508C10.6591 13.5329 10.7117 13.6339 10.7353 13.7432C10.7589 13.8526 10.7528 13.9663 10.7175 14.0724C10.0885 15.9829 10.0255 18.0345 10.5363 19.9799C10.5737 20.1187 10.6962 20.2487 10.8962 20.2987L11.2237 20.3799C11.6062 20.4762 12.0262 20.1849 12.0575 19.7324C12.1512 18.3799 12.3562 17.0449 12.66 16.1699C12.8775 15.5424 13.4137 14.5849 14.2075 13.6987C15.0037 12.8087 16.1062 11.9362 17.475 11.5637C17.9675 11.4287 18.25 11.0687 18.25 10.7512L18.25 5.7487C18.25 5.4237 17.975 5.10495 17.5587 5.0612C15.9425 4.88995 15.1387 4.3987 14.445 3.9762L14.395 3.94495C14.0575 3.73995 13.7762 3.57495 13.425 3.4537C13.0787 3.33495 12.6375 3.24995 12 3.24995L7.625 3.24995L7.625 1.99995L12 1.99995C12.7562 1.99995 13.3375 2.1012 13.8325 2.27245C14.2581 2.42788 14.6649 2.63083 15.045 2.87745L15.105 2.91495C15.735 3.2987 16.3537 3.6762 17.69 3.81745C18.6475 3.91995 19.5 4.69245 19.5 5.74995L19.5 10.75C19.5 11.8125 18.6437 12.5399 17.8037 12.7687C16.7425 13.0587 15.8362 13.7524 15.1387 14.5312C14.4387 15.3149 13.9962 16.1312 13.84 16.5799C13.5912 17.2987 13.395 18.5037 13.305 19.8174L13.305 19.8187Z" fill="#007CC3"/>
</g>
<defs>
<clipPath id="clip0">
<rect width="20" height="20" fill="white" transform="translate(22 22) rotate(180)"/>
</clipPath>
</defs>
</svg>
