<svg width="22" height="22" viewBox="0 0 22 22" fill="none" xmlns="http://www.w3.org/2000/svg">
<circle cx="11" cy="11" r="10.5" stroke="#FCFCFF"/>
<g clip-path="url(#clip0)">
<path d="M16.7172 6.48733C16.1993 6.20843 15.6216 6.74631 15.2829 7.06505C14.506 7.82207 13.8486 8.69861 13.1115 9.49547C12.2947 10.372 11.5377 11.2486 10.701 12.1052C10.2229 12.5833 9.70491 13.1013 9.38616 13.6989C8.66899 13.0016 8.05143 12.2446 7.25457 11.6271C6.67685 11.1888 5.72062 10.8701 5.74054 11.9259C5.78038 13.3005 6.99559 14.7747 7.89206 15.711C8.27056 16.1094 8.7686 16.5278 9.34632 16.5477C10.0436 16.5875 10.7607 15.7508 11.1791 15.2926C11.9162 14.4958 12.5139 13.5993 13.1912 12.7825C14.0677 11.7068 14.9642 10.6509 15.8208 9.55523C16.3587 8.8779 18.052 7.20447 16.7172 6.48733ZM6.61705 11.8462C6.59713 11.8462 6.57721 11.8462 6.53737 11.8661C6.45768 11.8462 6.39792 11.8263 6.31823 11.7864C6.37799 11.7466 6.4776 11.7665 6.61705 11.8462Z" fill="#FCFCFF"/>
</g>
<defs>
<clipPath id="clip0">
<path d="M5.74023 11.4799C5.74023 8.31022 8.30973 5.74072 11.4794 5.74072H17.2185V17.219H11.4794C8.30973 17.219 5.74023 14.6495 5.74023 11.4799Z" fill="white"/>
</clipPath>
</defs>
</svg>
