<svg width="30" height="30" viewBox="0 0 30 30" fill="none" xmlns="http://www.w3.org/2000/svg">
<g clip-path="url(#clip0)">
<path d="M17 29V27C17 25.9391 16.5786 24.9217 15.8284 24.1716C15.0783 23.4214 14.0609 23 13 23H5C3.93913 23 2.92172 23.4214 2.17157 24.1716C1.42143 24.9217 1 25.9391 1 27V29" class="stroke" stroke-width="2" stroke-linecap="round" stroke-linejoin="round"/>
<path d="M9 19C11.2091 19 13 17.2091 13 15C13 12.7909 11.2091 11 9 11C6.79086 11 5 12.7909 5 15C5 17.2091 6.79086 19 9 19Z" class="stroke" stroke-width="2" stroke-linecap="round" stroke-linejoin="round"/>
<path fill-rule="evenodd" clip-rule="evenodd" d="M20.832 29.9996H27.8136C29.0198 29.9996 30.001 29.0184 30.001 27.8121V22.1872C30.001 20.9807 29.0198 19.9995 27.8136 19.9995H18.4386C18.109 19.9995 17.7962 20.0728 17.5156 20.2038C18.1816 20.4528 18.9526 20.9588 19.5801 21.8745H27.8136C27.986 21.8745 28.126 22.0146 28.126 22.1872V27.8121C28.126 27.9845 27.986 28.1246 27.8136 28.1246H20.9416C20.9334 28.7986 20.8915 29.4328 20.832 29.9996Z" class="path-fill"/>
<path d="M27.8126 17.5001H18.4376C17.2312 17.5001 16.25 16.5189 16.25 15.3124V2.18742C16.25 0.981216 17.2312 0 18.4376 0H27.8126C29.0188 0 30.0001 0.981216 30.0001 2.18742V15.3124C30.0001 16.5189 29.0188 17.5001 27.8126 17.5001ZM18.4376 1.875C18.2651 1.875 18.125 2.01508 18.125 2.18742V15.3124C18.125 15.485 18.2651 15.6251 18.4376 15.6251H27.8126C27.985 15.6251 28.1251 15.485 28.1251 15.3124V2.18742C28.1251 2.01508 27.985 1.875 27.8126 1.875H18.4376Z" class="path-fill"/>
<path fill-rule="evenodd" clip-rule="evenodd" d="M13.6443 8.48533C13.7129 8.27326 13.7501 8.0471 13.7501 7.81242V2.18742C13.7501 0.981216 12.7689 0 11.5624 0H2.18742C0.981216 0 0 0.981216 0 2.18742V7.81242C0 9.01886 0.981216 10.0001 2.18742 10.0001H2.75457C3.35264 9.25399 4.08163 8.61738 4.9067 8.12508H2.18742C2.01508 8.12508 1.875 7.985 1.875 7.81242V2.18742C1.875 2.01508 2.01508 1.875 2.18742 1.875H11.5624C11.735 1.875 11.8751 2.01508 11.8751 2.18742V7.53217C12.5075 7.77581 13.1011 8.09746 13.6443 8.48533Z" class="path-fill"/>
<path d="M17 29H1" class="stroke" stroke-width="2"/>
</g>
<defs>
<clipPath id="clip0">
<rect width="30" height="30" class="path-fill"/>
</clipPath>
</defs>
</svg>
