<svg width="30" height="31" viewBox="0 0 30 31" fill="none" xmlns="http://www.w3.org/2000/svg">
<path class="path-fill stroke" d="M19.5781 18.7344H20.0781V18.2344C20.0781 16.7651 19.666 15.5441 18.7909 14.6319C17.9051 13.7085 16.6562 13.2812 15.125 13.2812C13.5938 13.2812 12.3449 13.7085 11.4591 14.6319C10.584 15.5441 10.1719 16.7651 10.1719 18.2344V18.7344H10.6719H11.0625V23.0781H10.6719H10.2812H10.1719H9.78125C9.50163 23.0781 9.22078 22.9439 8.9373 22.5206C8.65416 22.0978 8.5 21.5682 8.5 20.9062C8.5 20.4809 8.57136 20.099 8.70813 19.7551C8.84765 19.4043 9.02181 19.1572 9.21709 18.9888L9.39062 18.8392V18.6101V18.2344C9.39062 17.4572 9.54181 16.717 9.84436 16.0096C10.1503 15.2944 10.5584 14.6853 11.0672 14.1766C11.5759 13.6678 12.185 13.2596 12.9002 12.9537C13.6076 12.6512 14.3478 12.5 15.125 12.5C15.9022 12.5 16.6424 12.6512 17.3498 12.9537C18.065 13.2596 18.6741 13.6678 19.1828 14.1766C19.6916 14.6853 20.0997 15.2944 20.4056 16.0096C20.7082 16.717 20.8594 17.4572 20.8594 18.2344V18.6101V18.8392L21.0329 18.9888C21.2282 19.1572 21.4023 19.4043 21.5419 19.7551C21.6786 20.099 21.75 20.4809 21.75 20.9062C21.75 21.5682 21.5958 22.0978 21.3127 22.5206C21.0292 22.9439 20.7484 23.0781 20.4688 23.0781H19.1875V18.7344H19.5781ZM15.125 25.75H13.8438V25.3594C13.8438 25.2368 13.8802 25.1543 13.9547 25.0797C14.0293 25.0052 14.1118 24.9688 14.2344 24.9688H15.125C15.2476 24.9688 15.3301 25.0052 15.4046 25.0797C15.4811 25.1563 15.5156 25.2373 15.5156 25.3524C15.5156 25.4679 15.4807 25.5538 15.3999 25.6368C15.3243 25.7144 15.2433 25.75 15.125 25.75Z"/>
<rect class="stroke" x="0.75" y="7.75" width="28.5" height="22.5" rx="3.25" stroke-width="1.5"/>
<path class="stroke" d="M4 4.78182V4.78182C4 2.69318 5.69318 1 7.78182 1H21.5C23.433 1 25 2.567 25 4.5V4.5" stroke-width="1.5"/>
<path class="stroke" d="M2 8V8C2 5.79086 3.79086 4 6 4H23.5C25.7091 4 27.5 5.79086 27.5 8V8" stroke-width="1.5"/>
</svg>
