<svg width="51" height="50" viewBox="0 0 51 50" fill="none" xmlns="http://www.w3.org/2000/svg">
<path d="M34.9832 21.0724C34.9832 21.5909 34.946 22.1094 34.8716 22.6093C33.3937 23.2945 31.7856 23.6463 30.1496 23.6463C29.7499 23.6463 29.3502 23.6278 28.9412 23.5815C28.9133 23.5445 28.8947 23.4982 28.8668 23.4611C28.3184 22.6001 27.3795 22.0909 26.357 22.0909C25.79 22.0909 25.2323 22.2483 24.7582 22.563C23.3732 23.4426 22.9735 25.2758 23.8566 26.6554C24.405 27.5072 25.3438 28.0257 26.3663 28.0257C26.9334 28.0257 27.4911 27.8683 27.9651 27.5535C28.1046 27.4609 28.244 27.359 28.3648 27.2479C28.9597 27.322 29.5547 27.3498 30.1496 27.3498C31.1256 27.3498 32.1016 27.2572 33.059 27.0628C32.585 27.7201 32.0365 28.3312 31.423 28.8589C31.2371 29.0163 31.0512 29.1737 30.856 29.3126C30.8095 29.3496 30.7631 29.3867 30.7166 29.4237C29.0062 30.6644 26.8962 31.3958 24.6188 31.3958C22.2764 31.3958 20.1105 30.6181 18.3723 29.3126C18.3258 29.2756 18.2793 29.2385 18.2328 29.2015C18.0748 29.0719 17.9168 28.9423 17.7588 28.8126C15.6022 26.9239 14.2451 24.1463 14.2451 21.0631C14.2451 15.3598 18.8928 10.7305 24.6188 10.7305C30.3448 10.7397 34.9832 15.3691 34.9832 21.0724Z" fill="#007CC3"/>
<path d="M41.3054 20.7028C41.3054 22.823 39.939 24.6377 38.0242 25.2951C37.4943 25.4803 36.9459 25.2581 36.667 24.8229C35.7282 25.3136 34.7522 25.6932 33.7483 25.9525C32.5771 26.2673 31.3687 26.4247 30.151 26.4247C29.4352 26.4247 28.7195 26.3691 28.0037 26.258C27.8643 26.4524 27.6784 26.6284 27.4553 26.7672C27.1114 26.9802 26.7302 27.0913 26.3491 27.0913C25.6706 27.0913 25.0199 26.758 24.6295 26.1562C24.0253 25.2118 24.2948 23.9526 25.2523 23.3415C25.5962 23.1193 25.9773 23.0175 26.3491 23.0175C27.0277 23.0175 27.6877 23.3508 28.0781 23.9526C28.171 24.1007 28.2547 24.2674 28.3012 24.434C28.9147 24.5266 29.5282 24.5729 30.1417 24.5729C31.6847 24.5729 33.1998 24.2859 34.6313 23.7119C35.2634 23.4619 35.8769 23.1564 36.4625 22.8045V17.8882C35.0682 12.6848 30.2718 8.84247 24.6202 8.84247C19.0522 8.84247 14.3302 12.5552 12.8336 17.6289V24.147C12.8336 24.9525 12.0435 25.5173 11.2813 25.2581C9.37572 24.6007 8 22.786 8 20.6658C8 18.5455 9.36643 16.7308 11.2813 16.0735C11.3278 16.055 11.3742 16.0457 11.4207 16.0364C13.4657 10.759 18.6154 7 24.6202 7C28.3848 7 31.9264 8.45361 34.5942 11.1016C36.0442 12.5367 37.1411 14.231 37.8475 16.0827C37.9126 16.092 37.9777 16.1105 38.0335 16.129C39.939 16.7771 41.3054 18.5826 41.3054 20.7028Z" fill="#007CC3"/>
<rect x="1" y="1" width="49" height="48" rx="9" stroke="#007CC3" stroke-width="2"/>
<path fill-rule="evenodd" clip-rule="evenodd" d="M4 48H47.0001C44.8805 38.5589 36.0596 33 25.5 33C14.9403 33 6.11954 38.5589 4 48Z" fill="#007CC3"/>
</svg>
