<svg xmlns="http://www.w3.org/2000/svg" width="30" height="30" fill="none" viewBox="0 0 30 30">
    <path class="path-fill" d="M25.605 15.712H22.67c-.4 0-.787.054-1.155.155-.726-1.428-2.21-2.41-3.919-2.41h-5.19c-1.71 0-3.193.982-3.919 2.41-.368-.1-.755-.155-1.155-.155H4.395C1.97 15.712 0 17.683 0 20.106v4.695c0 1.454 1.183 2.636 2.637 2.636h24.726c1.454 0 2.637-1.182 2.637-2.636v-4.695c0-2.423-1.971-4.394-4.395-4.394zM8.01 17.852v7.828H2.637c-.485 0-.88-.395-.88-.88v-4.694c0-1.454 1.184-2.636 2.638-2.636H7.33c.239 0 .47.032.69.092-.007.096-.01.193-.01.29zm12.222 7.828H9.768v-7.828c0-1.454 1.183-2.637 2.637-2.637h5.19c1.454 0 2.637 1.183 2.637 2.637v7.828zm8.01-.88c0 .485-.394.88-.879.88H21.99v-7.828c0-.098-.004-.194-.01-.29.22-.06.45-.092.689-.092h2.936c1.454 0 2.637 1.182 2.637 2.636v4.695z"/>
    <path class="path-fill" d="M5.863 7.413c-2.153 0-3.905 1.751-3.905 3.905 0 2.153 1.752 3.905 3.905 3.905 2.153 0 3.905-1.752 3.905-3.905 0-2.154-1.752-3.905-3.905-3.905zm0 6.052c-1.184 0-2.147-.963-2.147-2.147 0-1.184.963-2.148 2.147-2.148 1.184 0 2.147.964 2.147 2.148 0 1.184-.963 2.147-2.147 2.147zM15 2.563c-2.876 0-5.217 2.34-5.217 5.217 0 2.876 2.34 5.217 5.217 5.217s5.217-2.34 5.217-5.217S17.877 2.562 15 2.562zm0 8.676c-1.907 0-3.459-1.552-3.459-3.46 0-1.907 1.552-3.459 3.46-3.459 1.907 0 3.458 1.552 3.458 3.46 0 1.907-1.551 3.459-3.459 3.459zM24.137 7.413c-2.153 0-3.905 1.751-3.905 3.905 0 2.153 1.752 3.905 3.905 3.905 2.153 0 3.905-1.752 3.905-3.905 0-2.154-1.752-3.905-3.905-3.905zm0 6.052c-1.184 0-2.147-.963-2.147-2.147 0-1.184.963-2.148 2.147-2.148 1.184 0 2.147.964 2.147 2.148 0 1.184-.963 2.147-2.147 2.147z"/>
</svg>

