<svg width="20" height="20" viewBox="0 0 20 20" fill="none" xmlns="http://www.w3.org/2000/svg">
<path d="M4.66667 17V15.3333C4.66667 14.4493 5.01786 13.6014 5.64298 12.9763C6.2681 12.3512 7.11595 12 8 12H14.6667C15.5507 12 16.3986 12.3512 17.0237 12.9763C17.6488 13.6014 18 14.4493 18 15.3333V17" stroke="#737373" stroke-linecap="round" stroke-linejoin="round"/>
<path d="M11.3346 8.66667C9.49369 8.66667 8.0013 7.17428 8.0013 5.33333C8.0013 3.49238 9.49369 2 11.3346 2C13.1756 2 14.668 3.49238 14.668 5.33333C14.668 7.17428 13.1756 8.66667 11.3346 8.66667Z" stroke="#737373" stroke-linecap="round" stroke-linejoin="round"/>
<path d="M1.83594 17.0001V15.3334C1.83649 14.5948 2.08231 13.8774 2.5348 13.2937C2.98729 12.7099 3.62083 12.293 4.33594 12.1084" stroke="#737373" stroke-linecap="round" stroke-linejoin="round"/>
<path d="M7.66406 2.1084C6.94705 2.29198 6.31153 2.70898 5.8577 3.29366C5.40386 3.87833 5.15753 4.59742 5.15753 5.33757C5.15753 6.07771 5.40386 6.7968 5.8577 7.38147C6.31153 7.96615 6.94705 8.38315 7.66406 8.56673" stroke="#737373" stroke-linecap="round" stroke-linejoin="round"/>
</svg>
