<?xml version="1.0" encoding="utf-8"?>
<!-- Generator: Adobe Illustrator 26.0.0, SVG Export Plug-In . SVG Version: 6.00 Build 0)  -->
<svg version="1.1" id="Layer_1" xmlns="http://www.w3.org/2000/svg" xmlns:xlink="http://www.w3.org/1999/xlink" x="0px" y="0px"
	 viewBox="0 0 153 64.7" style="enable-background:new 0 0 153 64.7;" xml:space="preserve">
<style type="text/css">
	.st0{fill:#007DC3;}
</style>
<g>
	<path class="st0" d="M23.7,19.5l0.1,3.5l0,0.2h0c0.1-0.1,0.1-0.3,0.2-0.4c1.8-1.9,4-3.8,9.3-3.8c5.1,0,8.3,4.3,8.5,7l0,19.1v0.1
		v4.7h-4.3v-5.7l0-16.3c0-3.4-3-5.8-6.6-5.8c-3,0-6.9,2.7-7,5.5v17.5l0,0.1v4.7h-4.3l0-4.8l0-21.7l0-4h0.8h2.4H23.7z M82,44.2
		c3,2.7,5.6,4.1,9.1,4.1c3.5,0,6.6-1.7,6.6-5c0-2.7-2.4-4.4-6.8-6.2c-3.7-1.6-6.4-2.7-7.9-5c0.2,1,0.3,2,0.3,3.1
		c0,8.9-6.5,16.1-14.4,16.1c-8,0-14.4-7.2-14.4-16.1c0-5.4,2.3-10.1,6-13.1h-9.8v23.1l0,0.1v4.8h-4.3v-4.6c0-0.1,0-0.2,0-0.2V22.1
		h-3.8v-2.9h3.9c0.5-5.9,4.1-9.2,9.2-9.2c3.3,0,5.1,0.3,6.1,0.8v4c0,0.3,0,0.5,0,0.5c0,0-0.2,0-0.2,0c-1.6-1.5-3.1-2.5-6.7-2.5
		c-2.9,0-4.8,2.3-4.1,6.4h16.2c0.7-0.1,1.4-0.2,2.1-0.2c5.8,0,10.8,3.8,13.1,9.3c0-0.3,0-0.6,0-1c0-5.7,5.5-8.2,11.3-8.1
		c0.2,0,0.4,0,0.6,0c2,0,4.9,0.6,6.7,1.1l1.6,3.9l1.8,4.5l4.9,11.9l0.6,1.9l0.6-1.9l6.2-15.3c1.1-4.2,5.7-6,10.6-6
		c2.5,0,4.3,0.3,6.5,1.1V25c-2.7-2-4.6-3.1-7.7-3.1c-2.7,0-5.9,1.2-5.9,5.2c-0.1,3,1.7,3.5,7,6.1c4.3,1.9,8.3,3.9,8.3,8.7
		c0,8-7.9,9.4-11.7,9.4c-3.4,0-6.5-0.8-8.3-2.3v-5.3l0.3,0.2c3.1,2.9,5.9,4.4,9.4,4.4c3.5,0,6.6-1.7,6.6-5c0-2.7-2.4-4.4-6.8-6.2
		c-4.2-1.8-6.9-3-8-6c-1.7,4.1-9.6,23.3-11.4,27.5h-4.3l1-1.9l0.9-1.7l0-0.1c1.1-2.1,2.6-5.4,4-8.5l-8.2-19.8
		c-0.1-0.1-0.2-0.4-0.5-1c-0.6-1.4-1.2-2.8-3-3.4c-0.9-0.3-2-0.5-3.1-0.5c-2.7,0-6.1,1.2-6.1,5.2c-0.1,3,1.9,3.5,7.2,6.1
		c4.3,1.9,8.3,3.9,8.3,8.7c0,8-7.9,9.4-11.7,9.4c-3,0-5.9-0.7-7.7-1.8V44.2z M102.1,24.3c0.1,0.2,0.1,0.3,0.2,0.5l1.6,4L102.1,24.3z
		 M101.8,56.8c0.2-0.4,0.5-0.9,0.9-1.7L101.8,56.8z M98.5,26.8c0.1,0.3-0.2-0.4-0.2-0.4L98.5,26.8z M58.8,35.5
		c0.1,7.3,4.6,13.1,10.1,13c5.4-0.1,9.8-6.1,9.6-13.3c-0.1-7.3-4.6-13.1-10.1-13C63,22.3,58.6,28.3,58.8,35.5 M9.9,15L9.9,15v-4.8
		h4.8V15V15v30.2l0,0.1v4.7H9.9v-4.8v-0.1V15z M139.3,11.7h0.9c0.5,0,0.7,0.2,0.7,0.6c0,0.4-0.3,0.6-0.7,0.6h-0.9V11.7z M138.6,15.2
		h0.8v-1.7h0.9l0.7,1.7h0.9l-0.8-1.8c0.3-0.1,0.7-0.3,0.7-1.1c0-1.2-0.9-1.4-1.7-1.4h-1.4V15.2z M136.6,13.2c0-1.9,1.6-3.5,3.5-3.5
		c1.9,0,3.5,1.6,3.5,3.5c0,1.9-1.6,3.5-3.5,3.5C138.2,16.6,136.6,15.1,136.6,13.2 M140.1,17.2c2.2,0,4.1-1.8,4.1-4.1
		c0-2.2-1.8-4.1-4.1-4.1c-2.2,0-4.1,1.8-4.1,4.1C136,15.4,137.9,17.2,140.1,17.2"/>
</g>
</svg>
