<svg width="80" height="80" viewBox="0 0 80 80" fill="none" xmlns="http://www.w3.org/2000/svg">
<path d="M41.09 75H7.96387C4.40809 75 2.6356 70.7171 5.14302 68.2035L15.3348 58.0303L41.09 75Z" fill="url(#paint0_linear)"/>
<path d="M39.4991 75C59.1219 75 75.0294 59.33 75.0294 40C75.0294 20.67 59.1219 5 39.4991 5C19.8762 5 3.96875 20.67 3.96875 40C3.96875 59.33 19.8762 75 39.4991 75Z" fill="url(#paint1_linear)"/>
<path d="M58.059 50.832L55.367 51.3466C46.0657 53.1217 37.027 47.3344 35.1448 38.4066C33.5253 30.6972 26.4672 25.1515 18.2711 25.1515H16.6953" stroke="url(#paint2_linear)" stroke-width="4" stroke-miterlimit="10" stroke-linecap="round"/>
<path d="M50.5628 43L58.4848 50.6817L50 58.9091" stroke="url(#paint3_linear)" stroke-width="4" stroke-miterlimit="10" stroke-linecap="round"/>
<path d="M32.6044 46.3636C28.8711 50.7437 22.7435 52.7769 16.6953 52.7264" stroke="url(#paint4_linear)" stroke-width="4" stroke-miterlimit="10" stroke-linecap="round"/>
<path d="M58.0596 26.7528C51.784 25.4312 44.6484 26.3541 40.0293 31.5151" stroke="url(#paint5_linear)" stroke-width="4" stroke-miterlimit="10" stroke-linecap="round"/>
<path d="M50.5628 34.9091L58.4848 27.2274L50 19" stroke="url(#paint6_linear)" stroke-width="4" stroke-miterlimit="10" stroke-linecap="round"/>
<defs>
<linearGradient id="paint0_linear" x1="3.96496" y1="66.5182" x2="41.0898" y2="66.5182" gradientUnits="userSpaceOnUse">
<stop stop-color="#E2D4EA"/>
<stop offset="0.7738" stop-color="#C4ADD4"/>
<stop offset="0.9811" stop-color="#BBA2CD"/>
</linearGradient>
<linearGradient id="paint1_linear" x1="3.96875" y1="39.9993" x2="75.0277" y2="39.9993" gradientUnits="userSpaceOnUse">
<stop stop-color="#866AAC"/>
<stop offset="0.8514" stop-color="#644E9B"/>
<stop offset="0.8825" stop-color="#624D9A"/>
</linearGradient>
<linearGradient id="paint2_linear" x1="37.3846" y1="53.761" x2="37.3846" y2="23.0524" gradientUnits="userSpaceOnUse">
<stop stop-color="#E2D4EA"/>
<stop offset="0.7738" stop-color="#C4ADD4"/>
<stop offset="0.9811" stop-color="#BBA2CD"/>
</linearGradient>
<linearGradient id="paint3_linear" x1="54.6873" y1="61.0067" x2="54.6873" y2="40.9019" gradientUnits="userSpaceOnUse">
<stop stop-color="#E2D4EA"/>
<stop offset="0.7738" stop-color="#C4ADD4"/>
<stop offset="0.9811" stop-color="#BBA2CD"/>
</linearGradient>
<linearGradient id="paint4_linear" x1="24.6482" y1="54.7506" x2="24.6482" y2="44.345" gradientUnits="userSpaceOnUse">
<stop stop-color="#E2D4EA"/>
<stop offset="0.7738" stop-color="#C4ADD4"/>
<stop offset="0.9811" stop-color="#BBA2CD"/>
</linearGradient>
<linearGradient id="paint5_linear" x1="49.0463" y1="33.7957" x2="49.0463" y2="23.9368" gradientUnits="userSpaceOnUse">
<stop stop-color="#E2D4EA"/>
<stop offset="0.7738" stop-color="#C4ADD4"/>
<stop offset="0.9811" stop-color="#BBA2CD"/>
</linearGradient>
<linearGradient id="paint6_linear" x1="54.6873" y1="37.0086" x2="54.6873" y2="16.9039" gradientUnits="userSpaceOnUse">
<stop stop-color="#E2D4EA"/>
<stop offset="0.7738" stop-color="#C4ADD4"/>
<stop offset="0.9811" stop-color="#BBA2CD"/>
</linearGradient>
</defs>
</svg>
