<svg width="20" height="20" viewBox="0 0 20 20" fill="none" xmlns="http://www.w3.org/2000/svg">
<path d="M20 4.55556V15.4444H19.5098C18.7939 15.4444 18.138 15.3107 17.5402 15.0431C16.9324 14.7678 16.4045 14.3729 15.9973 13.8889H12.877C12.6278 14.3567 12.3035 14.7905 11.9142 15.1769C11.5333 15.5541 11.0975 15.8851 10.6182 16.1616C10.1421 16.4369 9.62195 16.6438 9.06298 16.7807C8.49712 16.9193 7.91336 16.993 7.32613 17H6.44448L6.44448 10.7778H1.7633L0 10L1.7633 9.22222H6.44448V3H7.32613C7.92389 3 8.49696 3.07311 9.04887 3.21778C9.59902 3.364 10.1192 3.57089 10.6059 3.84C11.5974 4.38583 12.3867 5.17516 12.877 6.11111H15.9955C16.4058 5.63288 16.9332 5.24257 17.5384 4.96933C18.1344 4.70178 18.7904 4.56489 19.508 4.55556H20ZM18.6282 6.24489C18.4276 6.30105 18.2375 6.3828 18.0639 6.48756C17.7561 6.67619 17.4976 6.92069 17.3057 7.20467L16.9759 7.66667H11.6656L11.4593 7.144C11.2098 6.51385 10.7775 5.95233 10.2056 5.51533C9.62723 5.07044 8.56926 4.69556 7.81633 4.55556L7.81633 15.4444C8.56926 15.3076 9.62723 14.9311 10.2056 14.4847C10.784 14.0382 11.2019 13.4953 11.4575 12.856L11.6674 12.3333L16.9777 12.3333L17.2951 12.7953C17.3956 12.9416 17.5102 13.0707 17.6389 13.1842C17.7677 13.2978 17.9087 13.4067 18.0657 13.5109C18.2208 13.6182 18.4095 13.6976 18.6299 13.7551V6.24489H18.6282Z" fill="#737373"/>
</svg>
