<svg width="20" height="20" viewBox="0 0 20 20" fill="none" xmlns="http://www.w3.org/2000/svg">
<g clip-path="url(#clip0)">
<path d="M12.0111 0.235153L19.7107 7.93476L19.3641 8.28138C18.8579 8.7876 18.2995 9.15683 17.6876 9.39032C17.0631 9.62538 16.4106 9.71941 15.7804 9.66515L13.5741 11.8715C13.7287 12.3786 13.8061 12.9146 13.804 13.4631C13.8014 13.9991 13.7273 14.5414 13.5839 15.0758C13.4419 15.6071 13.2204 16.1212 12.9219 16.6133C12.6199 17.1114 12.2592 17.5763 11.8489 17.9965L11.2255 18.6199L6.8257 14.2201L3.5156 17.5302L1.71879 18.2271L2.41566 16.4303L5.72575 13.1202L1.32598 8.72041L1.9494 8.09699C2.37208 7.67431 2.829 7.32078 3.32156 7.03282C3.81396 6.7472 4.32807 6.52567 4.86249 6.37183C5.94958 6.05667 7.06586 6.05666 8.07434 6.37182L10.2795 4.16668C10.2314 3.53841 10.3284 2.88948 10.5631 2.26833C10.7954 1.65771 11.1624 1.09709 11.6633 0.583022L12.0111 0.235153ZM12.2356 2.39974C12.1335 2.58122 12.0569 2.77346 12.0082 2.97032C11.924 3.32134 11.914 3.67703 11.9791 4.01353L12.0727 4.57338L8.31771 8.32834L7.80224 8.10464C7.18022 7.83549 6.47753 7.74408 5.7641 7.83951C5.04055 7.93389 4.02736 8.4169 3.39596 8.85031L11.0956 16.5499C11.5312 15.9207 12.0131 14.9064 12.1064 14.1818C12.1997 13.4571 12.1113 12.7778 11.84 12.1449L11.6188 11.6269L15.3738 7.87196L15.9249 7.97421C16.0993 8.00654 16.2717 8.01679 16.443 8.00606C16.6143 7.99534 16.791 7.97259 16.9757 7.93532C17.1613 7.90149 17.3508 7.82418 17.5474 7.70902L12.2369 2.39849L12.2356 2.39974Z" class="pinned-fill"/>
<path d="M12.2356 2.39974C12.1335 2.58122 12.0569 2.77346 12.0082 2.97032C11.924 3.32134 11.914 3.67703 11.9791 4.01353L12.0727 4.57338L8.31771 8.32834L7.80224 8.10464C7.18022 7.83549 6.47753 7.74408 5.7641 7.83951C5.04055 7.93389 4.02736 8.4169 3.39596 8.85031L11.0956 16.5499C11.5312 15.9207 12.0131 14.9064 12.1064 14.1818C12.1997 13.4571 12.1113 12.7778 11.84 12.1449L11.6188 11.6269L15.3738 7.87196L15.9249 7.97421C16.0993 8.00654 16.2717 8.01679 16.443 8.00606C16.6143 7.99534 16.791 7.97259 16.9757 7.93532C17.1613 7.90149 17.3508 7.82418 17.5474 7.70902L12.2369 2.39849L12.2356 2.39974Z" class="pinned-fill"/>
</g>
<defs>
<clipPath id="clip0">
<rect width="20" height="20" fill="white"/>
</clipPath>
</defs>
</svg>
