<svg width="19" height="26" viewBox="0 0 19 26" fill="none" xmlns="http://www.w3.org/2000/svg">
<path fill-rule="evenodd" clip-rule="evenodd" d="M9.6106 2.43811C5.77072 2.43811 3.1106 5.18436 3.1106 8.53186C3.1106 10.1309 3.7996 11.1725 4.7096 12.2759L5.05735 12.687C5.41972 13.116 5.8211 13.5905 6.15097 14.065C6.61247 14.7329 7.0236 15.521 7.1601 16.4862C7.19263 16.7998 7.10239 17.1138 6.90834 17.3622C6.71429 17.6107 6.43152 17.7742 6.11941 17.8186C5.80731 17.863 5.49014 17.7847 5.23453 17.6002C4.97892 17.4157 4.80475 17.1393 4.7486 16.8291C4.6836 16.3709 4.48372 15.9402 4.14735 15.4527C3.87238 15.0699 3.57843 14.7011 3.2666 14.3477C3.1301 14.1852 2.98547 14.0146 2.8311 13.8277C1.81222 12.5944 0.673096 10.9954 0.673096 8.53186C0.673096 3.75436 4.51297 0.000610352 9.6106 0.000610352C14.7082 0.000610352 18.5481 3.75436 18.5481 8.53186C18.5481 10.9954 17.409 12.5944 16.3901 13.8277C16.2357 14.0146 16.0911 14.1852 15.9546 14.3461C15.6182 14.7442 15.3322 15.0822 15.0755 15.4527C14.7375 15.9402 14.5392 16.3709 14.4742 16.8291C14.4516 16.9876 14.398 17.14 14.3165 17.2777C14.2349 17.4155 14.1271 17.5358 13.999 17.6318C13.871 17.7279 13.7253 17.7978 13.5703 17.8375C13.4152 17.8772 13.2539 17.886 13.0954 17.8634C12.937 17.8408 12.7845 17.7872 12.6468 17.7057C12.5091 17.6241 12.3887 17.5163 12.2927 17.3882C12.1966 17.2602 12.1268 17.1145 12.087 16.9595C12.0473 16.8044 12.0385 16.6431 12.0611 16.4846C12.1976 15.521 12.6087 14.7329 13.0702 14.065C13.4001 13.5905 13.8015 13.116 14.1638 12.687C14.2857 12.544 14.4027 12.4059 14.51 12.2759C15.4216 11.1725 16.1106 10.1309 16.1106 8.53186C16.1106 5.18436 13.4505 2.43811 9.6106 2.43811ZM6.3606 24.7819C6.3606 24.4586 6.489 24.1486 6.71756 23.9201C6.94612 23.6915 7.25611 23.5631 7.57935 23.5631H11.6418C11.9651 23.5631 12.2751 23.6915 12.5036 23.9201C12.7322 24.1486 12.8606 24.4586 12.8606 24.7819C12.8606 25.1051 12.7322 25.4151 12.5036 25.6436C12.2751 25.8722 11.9651 26.0006 11.6418 26.0006H7.57935C7.25611 26.0006 6.94612 25.8722 6.71756 25.6436C6.489 25.4151 6.3606 25.1051 6.3606 24.7819ZM5.95435 19.5006C5.63111 19.5006 5.32112 19.629 5.09256 19.8576C4.864 20.0861 4.7356 20.3961 4.7356 20.7194C4.7356 21.0426 4.864 21.3526 5.09256 21.5811C5.32112 21.8097 5.63111 21.9381 5.95435 21.9381H13.2668C13.5901 21.9381 13.9001 21.8097 14.1286 21.5811C14.3572 21.3526 14.4856 21.0426 14.4856 20.7194C14.4856 20.3961 14.3572 20.0861 14.1286 19.8576C13.9001 19.629 13.5901 19.5006 13.2668 19.5006H5.95435Z" fill="#FCFCFF"/>
</svg>
