<svg width="80" height="80" viewBox="0 0 80 80" fill="none" xmlns="http://www.w3.org/2000/svg">
<path d="M13 20.1655V49.8281C13 62.6191 23.3242 73 36.069 73C44.4778 73 52.2236 68.4016 56.2754 61.0018L65.3367 44.4579C66.3681 42.5763 67.7888 40.9378 69.4938 39.6481C70.9671 38.5381 71.4302 36.5084 70.5672 34.8593C69.6306 33.0728 67.4626 32.3328 65.6419 33.1785C61.2954 35.1976 57.5699 38.3478 54.8231 42.2909L53.2655 44.5319V14.9645C53.2655 12.3428 51.1501 10.2075 48.5296 10.2075C45.9196 10.2075 43.7937 12.3323 43.7937 14.9645V35.0496C43.7937 35.5676 43.3728 35.9905 42.8571 35.9905H42.7097C42.1941 35.9905 41.7731 35.5676 41.7731 35.0496V5.75701C41.7731 3.13537 39.6577 1 37.0372 1C34.4272 1 32.3013 3.1248 32.3013 5.75701V34.1934C32.3013 34.7113 31.8804 35.1342 31.3647 35.1342H31.2173C30.7017 35.1342 30.2807 34.7113 30.2807 34.1934V11.2223C30.2807 9.15035 28.6073 7.48011 26.5551 7.48011C24.4924 7.48011 22.8296 9.16092 22.8296 11.2223V36.0645C22.8296 36.5824 22.4086 37.0053 21.8929 37.0053C21.3772 37.0053 20.9563 36.5824 20.9563 36.0645V20.1443C20.9563 18.0195 19.2093 16.3281 17.0939 16.4021L16.5256 16.4233C14.5891 16.4973 13 18.1464 13 20.1655Z" fill="url(#paint0_linear)"/>
<path d="M44 60.9947C44 70.1107 36.826 77.5558 27.8242 77.9789C27.5601 77.9894 27.2854 78 27.0212 78H10.1798C9.1338 78 8.60553 76.731 9.34511 75.9907L13.7298 71.6019C11.416 68.6936 10.0319 65.0134 10.0319 61.0053C10.0319 51.6143 17.639 44 27.0212 44C36.3928 43.9894 44 51.6037 44 60.9947Z" fill="url(#paint1_linear)"/>
<path d="M24 61.5136V53.4864C24 52.1146 25.1207 51 26.5 51C27.8793 51 29 52.1146 29 53.4864V61.5136C29 62.8854 27.8793 64 26.5 64C25.1207 64 24 62.8854 24 61.5136Z" fill="url(#paint2_linear)"/>
<path d="M26.5 71C27.8807 71 29 69.8807 29 68.5C29 67.1193 27.8807 66 26.5 66C25.1193 66 24 67.1193 24 68.5C24 69.8807 25.1193 71 26.5 71Z" fill="url(#paint3_linear)"/>
<defs>
<linearGradient id="paint0_linear" x1="16.8365" y1="28.7241" x2="63.2481" y2="50.2207" gradientUnits="userSpaceOnUse">
<stop stop-color="#F49F6E"/>
<stop offset="0.5784" stop-color="#F18748"/>
<stop offset="0.8972" stop-color="#EF7831"/>
</linearGradient>
<linearGradient id="paint1_linear" x1="10.5907" y1="55.7012" x2="40.6216" y2="71.607" gradientUnits="userSpaceOnUse">
<stop stop-color="#F2DAC7"/>
<stop offset="0.9811" stop-color="#F4C3A2"/>
</linearGradient>
<linearGradient id="paint2_linear" x1="23.4989" y1="52.338" x2="29.4417" y2="62.6875" gradientUnits="userSpaceOnUse">
<stop stop-color="#F49F6E"/>
<stop offset="0.5784" stop-color="#F18748"/>
<stop offset="0.8972" stop-color="#EF7831"/>
</linearGradient>
<linearGradient id="paint3_linear" x1="25.2451" y1="66.3405" x2="27.7443" y2="70.6695" gradientUnits="userSpaceOnUse">
<stop stop-color="#F49F6E"/>
<stop offset="0.5784" stop-color="#F18748"/>
<stop offset="0.8972" stop-color="#EF7831"/>
</linearGradient>
</defs>
</svg>
