<svg width="26" height="26" viewBox="0 0 26 26" fill="none" xmlns="http://www.w3.org/2000/svg">
<path d="M22.7496 22.75L18.0371 18.0375" stroke="#FCFCFF" stroke-width="2" stroke-linecap="round" stroke-linejoin="round"/>
<path fill-rule="evenodd" clip-rule="evenodd" d="M19.5823 12.043C19.5149 16.2189 16.1087 19.5833 11.9167 19.5833C7.68248 19.5833 4.25 16.1509 4.25 11.9167C4.25 7.68248 7.68248 4.25 11.9167 4.25C12.1499 4.25 12.3807 4.26042 12.6087 4.28081L14.0452 2.48512C13.3604 2.33121 12.648 2.25 11.9167 2.25C6.57791 2.25 2.25 6.57791 2.25 11.9167C2.25 17.2554 6.57791 21.5833 11.9167 21.5833C17.2554 21.5833 21.5833 17.2554 21.5833 11.9167C21.5833 11.181 21.5012 10.4646 21.3455 9.77602L19.5823 12.043Z" fill="#FCFCFF"/>
<path d="M17.3333 0.541656L9.75 9.31666H15.7083L13 17.3333L21.6667 6.93332H15.7083L17.3333 0.541656Z" fill="#FCFCFF"/>
</svg>
