<svg width="80" height="80" viewBox="0 0 80 80" fill="none" xmlns="http://www.w3.org/2000/svg">
<path d="M42 76H8.0897C4.44974 76 2.63529 71.7095 5.20207 69.1914L15.6352 59L42 76Z" fill="url(#paint0_linear)"/>
<path d="M40 76C59.8822 76 76 59.6584 76 39.5C76 19.3416 59.8822 3 40 3C20.1177 3 4 19.3416 4 39.5C4 59.6584 20.1177 76 40 76Z" fill="url(#paint1_linear)"/>
<path d="M34.4362 46.0958H26.6054L25.3501 49.7634H20L27.5917 29H33.5096L41.1013 49.7634H35.6915L34.4362 46.0958ZM33.1211 42.1915L30.5208 34.5901L27.9504 42.1915H33.1211Z" fill="#F3C9AC"/>
<path d="M42.3956 41.4817C42.3956 39.7859 42.7144 38.2972 43.3521 37.0155C44.0096 35.7338 44.8963 34.7479 46.0122 34.0577C47.128 33.3676 48.3734 33.0225 49.7482 33.0225C50.9238 33.0225 51.95 33.2592 52.8267 33.7324C53.7234 34.2056 54.4108 34.8268 54.8891 35.5958V33.2592H60V49.7634H54.8891V47.4268C54.3909 48.1958 53.6935 48.8169 52.7969 49.2901C51.9201 49.7634 50.894 50 49.7183 50C48.3634 50 47.128 49.6549 46.0122 48.9648C44.8963 48.2549 44.0096 47.2592 43.3521 45.9775C42.7144 44.6761 42.3956 43.1775 42.3956 41.4817ZM54.8891 41.5113C54.8891 40.2493 54.5304 39.2535 53.8131 38.5239C53.1157 37.7944 52.2589 37.4296 51.2427 37.4296C50.2264 37.4296 49.3597 37.7944 48.6423 38.5239C47.9449 39.2338 47.5962 40.2197 47.5962 41.4817C47.5962 42.7437 47.9449 43.7493 48.6423 44.4986C49.3597 45.2282 50.2264 45.593 51.2427 45.593C52.2589 45.593 53.1157 45.2282 53.8131 44.4986C54.5304 43.769 54.8891 42.7732 54.8891 41.5113Z" fill="#F3C9AC"/>
<defs>
<linearGradient id="paint0_linear" x1="3.99612" y1="67.5031" x2="41.9998" y2="67.5031" gradientUnits="userSpaceOnUse">
<stop stop-color="#F2DAC7"/>
<stop offset="0.7854" stop-color="#D5B196"/>
<stop offset="0.9811" stop-color="#CDA68A"/>
</linearGradient>
<linearGradient id="paint1_linear" x1="11.9866" y1="24.4422" x2="70.9862" y2="55.2921" gradientUnits="userSpaceOnUse">
<stop stop-color="#F49F6E"/>
<stop offset="0.4837" stop-color="#F18748"/>
<stop offset="0.7502" stop-color="#EF7831"/>
</linearGradient>
</defs>
</svg>
