<svg width="21" height="26" viewBox="0 0 21 26" fill="none" xmlns="http://www.w3.org/2000/svg">
<path d="M18.4182 25.757H8.20732C7.69678 25.757 7.35641 25.4243 7.35641 24.9252C7.35641 23.6774 6.76078 22.9288 5.82478 21.7642C5.31423 21.1819 4.71859 20.4332 4.12296 19.5182C2.50623 17.0226 1.05968 14.0279 0.719321 12.9465C0.378957 11.8651 0.63423 11.1165 0.974594 10.7005C1.31496 10.2014 1.99569 9.95188 2.7615 9.95188C3.78259 9.95188 4.80369 10.7837 5.73969 11.8651V3.29707C5.73969 1.88292 6.84587 0.801514 8.29241 0.801514C9.73896 0.801514 10.8451 1.88292 10.8451 3.29707V6.79084C11.1004 6.70766 11.3557 6.62447 11.696 6.62447C12.632 6.62447 13.3979 7.12358 13.8233 7.78906C14.1637 7.53951 14.5891 7.45632 15.0146 7.45632C16.2059 7.45632 17.1419 8.20499 17.4822 9.2864C17.7375 9.20321 18.0779 9.12003 18.4182 9.12003C19.8648 9.12003 20.971 10.2014 20.971 11.6156V14.1111C20.971 16.2739 20.5455 18.0208 20.1201 19.6845C19.6946 21.3482 19.2691 22.9288 19.2691 24.9252C19.2691 25.4243 18.9288 25.757 18.4182 25.757ZM8.97314 24.0933H17.5673C17.6524 22.2633 18.0779 20.7659 18.4182 19.2686C18.8437 17.6049 19.2691 16.0244 19.2691 14.1111V11.6156C19.2691 11.1165 18.9288 10.7837 18.4182 10.7837C17.9077 10.7837 17.5673 11.1165 17.5673 11.6156V12.4474C17.5673 12.9465 17.227 13.2793 16.7164 13.2793C16.2059 13.2793 15.8655 12.9465 15.8655 12.4474V9.95188C15.8655 9.45277 15.5251 9.12003 15.0146 9.12003C14.504 9.12003 14.1637 9.45277 14.1637 9.95188V11.6156C14.1637 12.1147 13.8233 12.4474 13.3128 12.4474C12.8022 12.4474 12.4619 12.1147 12.4619 11.6156V9.12003C12.4619 8.62091 12.1215 8.28817 11.611 8.28817C11.1004 8.28817 10.76 8.62091 10.76 9.12003V10.7837C10.76 11.2828 10.4197 11.6156 9.90914 11.6156C9.39859 11.6156 9.05823 11.2828 9.05823 10.7837V3.29707C9.05823 2.79796 8.71787 2.46522 8.20732 2.46522C7.69678 2.46522 7.35641 2.79796 7.35641 3.29707V15.7748C7.35641 16.2739 7.01605 16.6067 6.5055 16.6067C5.99496 16.6067 5.65459 16.2739 5.65459 15.7748V15.1094C4.88878 13.1961 3.27205 11.6156 2.67641 11.6156C2.50623 11.6156 2.33605 11.6156 2.25096 11.6988C2.16587 11.7819 2.16587 12.0315 2.25096 12.4474C2.50623 13.3625 3.78259 16.0244 5.48441 18.6863C5.99496 19.5182 6.5055 20.1005 7.01605 20.7659C7.95205 21.7642 8.80296 22.6792 8.97314 24.0933Z" fill="#FCFCFF"/>
</svg>
