<svg width="80" height="80" viewBox="0 0 80 80" fill="none" xmlns="http://www.w3.org/2000/svg">
<g clip-path="url(#clip0)">
<path d="M69.2598 63.9552L41.7917 73.0196C39.2659 73.8527 36.5047 72.5141 35.6006 70.0058L23.6656 37.0757C23.4289 36.4232 23.3358 35.7293 23.3953 35.039L24.1448 25.9022C26.1061 26.4144 28.0994 26.8612 30.0625 27.2223C42.3907 29.4852 43.7058 26.8349 44.1416 25.9638C44.4173 25.3994 44.6617 24.4145 43.934 23.1878L40.1188 24.3231C40.0228 24.2458 39.9269 24.1685 39.8183 24.075L39.6088 24.1247L40.1188 24.3231C38.762 24.5317 35.8574 24.5819 30.6954 23.631C28.5711 23.2418 26.4702 22.7627 24.4465 22.2099L24.5022 21.5482C24.61 20.2534 25.2269 19.0958 26.187 18.2883C26.6061 17.9358 27.0839 17.6525 27.6125 17.4547L31.28 16.0953L44.1838 11.3044C46.0441 10.6124 48.1454 11.1119 49.5113 12.5693L61.0587 24.8757C61.5531 25.4008 61.9254 26.0285 62.1462 26.7138L72.3236 57.9141C73.1373 60.4391 71.7856 63.1221 69.2598 63.9552Z" fill="url(#paint0_linear)"/>
<path d="M40 31C43.3137 31 46 28.3137 46 25C46 21.6863 43.3137 19 40 19C36.6863 19 34 21.6863 34 25C34 28.3137 36.6863 31 40 31Z" fill="url(#paint1_linear)"/>
<path d="M42.1544 23.7161C40.2673 24.2734 38.297 24.5167 36.325 24.3843C34.8522 24.2829 32.9983 24.0561 30.6923 23.639C28.568 23.2498 26.4671 22.7707 24.4433 22.2179C17.1809 20.2815 10.9453 17.5904 8.64495 15.6665C10.0017 15.4579 12.9024 15.4158 18.0683 16.3586C20.8539 16.8681 23.6007 17.5411 26.1839 18.2963C26.603 17.9438 27.0808 17.6605 27.6094 17.4627L31.2769 16.1033C27.3738 14.744 22.9747 13.5578 18.6973 12.7754C6.37701 10.4962 5.05795 13.1546 4.63046 14.0298C4.2629 14.7824 3.9405 16.3269 5.98837 18.1782C7.03738 19.1262 8.67257 20.1376 10.7239 21.1395C14.2949 22.8838 19.1142 24.5994 24.1456 25.902C26.1069 26.4142 28.1002 26.861 30.0633 27.2221C42.3916 29.485 43.7067 26.8348 44.1425 25.9636C44.1465 25.9554 44.1465 25.9554 44.1505 25.9472C44.7534 24.6917 43.5041 23.3115 42.1544 23.7161Z" fill="url(#paint2_linear)"/>
<path d="M38.8145 53.9274C37.5329 53.3926 36.5604 52.33 35.8931 50.7479C35.4524 49.6917 35.2805 48.6959 35.3733 47.7687C35.4702 46.8333 35.8039 46.0237 36.3825 45.3236C36.957 44.6316 37.7029 44.0943 38.6245 43.7238C39.546 43.3533 40.4671 43.2156 41.3752 43.3147C42.2834 43.4138 43.109 43.7664 43.8476 44.3602C44.5861 44.9539 45.18 45.7809 45.6207 46.8371C46.2797 48.4152 46.3552 49.84 45.8223 51.0994C45.2978 52.3629 44.3146 53.2807 42.8894 53.8611C41.4478 54.4538 40.0922 54.4705 38.8145 53.9274ZM49.4708 39.6706L53.8861 37.8963L49.0388 61.1299L44.6235 62.9042L49.4708 39.6706ZM42.3014 50.2003C42.3729 49.759 42.2355 49.1347 41.9059 48.3355C41.5762 47.5362 41.2178 47.0065 40.8551 46.7382C40.4924 46.4699 40.1452 46.4016 39.8134 46.5334C39.4816 46.6651 39.28 46.9516 39.2168 47.3969C39.1453 47.8381 39.2826 48.4624 39.6163 49.2535C39.9459 50.0528 40.3044 50.5824 40.667 50.8508C41.0297 51.1191 41.3769 51.1874 41.7127 51.0474C42.0282 50.928 42.2299 50.6415 42.3014 50.2003ZM55.8183 57.1266C54.5366 56.5918 53.5641 55.5292 52.8969 53.947C52.4561 52.8909 52.2842 51.8951 52.3771 50.9679C52.4739 50.0325 52.8077 49.2229 53.3862 48.5228C53.9608 47.8308 54.7067 47.2935 55.6282 46.923C56.5498 46.5525 57.4708 46.4147 58.375 46.522C59.2832 46.6212 60.1087 46.9737 60.8473 47.5675C61.5859 48.1613 62.1797 48.9883 62.6204 50.0444C63.2794 51.6225 63.3549 53.0474 62.8304 54.3108C62.3018 55.5825 61.3226 56.4921 59.8974 57.0725C58.4556 57.6448 57.1 57.6614 55.8183 57.1266ZM59.3051 53.3994C59.3766 52.9582 59.2392 52.3339 58.9096 51.5346C58.58 50.7354 58.2215 50.2057 57.8588 49.9374C57.4962 49.6691 57.1406 49.5967 56.8172 49.7325C56.4854 49.8643 56.2837 50.1508 56.2205 50.596C56.149 51.0373 56.2864 51.6616 56.616 52.4608C56.9456 53.2601 57.3041 53.7898 57.6668 54.0581C58.0294 54.3264 58.3767 54.3947 58.7085 54.263C59.0402 54.1312 59.2336 53.8407 59.3051 53.3994Z" fill="url(#paint3_linear)"/>
</g>
<defs>
<linearGradient id="paint0_linear" x1="69.8403" y1="38.9011" x2="24.6238" y2="44.9965" gradientUnits="userSpaceOnUse">
<stop stop-color="#F08B8E"/>
<stop offset="0.5945" stop-color="#ED737B"/>
<stop offset="0.9883" stop-color="#EB5F6D"/>
</linearGradient>
<linearGradient id="paint1_linear" x1="34.4618" y1="27.2966" x2="45.5465" y2="22.705" gradientUnits="userSpaceOnUse">
<stop stop-color="#F6D8D4"/>
<stop offset="0.569" stop-color="#F6C6C9"/>
<stop offset="0.9883" stop-color="#F6B5C0"/>
</linearGradient>
<linearGradient id="paint2_linear" x1="43.3017" y1="17.7086" x2="5.36283" y2="22.8209" gradientUnits="userSpaceOnUse">
<stop stop-color="#F6D8D4"/>
<stop offset="0.569" stop-color="#F6C6C9"/>
<stop offset="0.9883" stop-color="#F6B5C0"/>
</linearGradient>
<linearGradient id="paint3_linear" x1="36.7458" y1="44.2898" x2="61.759" y2="56.5071" gradientUnits="userSpaceOnUse">
<stop stop-color="#F6D8D4"/>
<stop offset="0.569" stop-color="#F6C6C9"/>
<stop offset="0.9883" stop-color="#F6B5C0"/>
</linearGradient>
<clipPath id="clip0">
<rect width="80" height="80" fill="white"/>
</clipPath>
</defs>
</svg>
