<svg width="80" height="80" viewBox="0 0 80 80" fill="none" xmlns="http://www.w3.org/2000/svg">
<path d="M73 57.4012V42.0695C73 40.2317 72.006 38.5463 70.3803 37.6223L42.6197 21.9149C41.0044 21.0011 39.006 21.0011 37.3906 21.9149L9.6197 37.6325C7.99404 38.5463 7 40.2419 7 42.0797V57.4114C7 59.2491 7.99404 60.9346 9.6197 61.8586L37.3906 77.5761C39.006 78.4899 41.0044 78.4899 42.6197 77.5761L70.3907 61.8586C72.006 60.9346 73 59.239 73 57.4012Z" fill="url(#paint0_linear)"/>
<path d="M53.2024 19.5694C52.2808 19.5694 51.525 20.3106 51.525 21.2143V36.0078C51.525 36.9115 50.7691 37.6527 49.8475 37.6527H30.1842C29.2626 37.6527 28.5067 36.9115 28.5067 36.0078V21.2143C28.5067 20.3106 27.7509 19.5694 26.8293 19.5694H26.8086C25.3382 19.5694 24.5824 17.8535 25.5868 16.7975L38.7888 2.92794C39.4515 2.22735 40.5802 2.22735 41.2429 2.92794L54.4242 16.8077C55.4286 17.8636 54.6624 19.5694 53.2024 19.5694Z" fill="url(#paint1_linear)"/>
<path d="M53.2024 19.5694C52.2808 19.5694 51.5249 20.3106 51.5249 21.2143V36.0078C51.5249 36.9115 50.7691 37.6527 49.8475 37.6527H30.1842C29.2626 37.6527 28.5067 36.9115 28.5067 36.0078V21.2143C28.5067 20.3106 27.7509 19.5694 26.8293 19.5694H26.8086C25.3382 19.5694 24.5824 17.8535 25.5868 16.7975L38.7888 2.92794C39.4515 2.22735 40.5802 2.22735 41.2429 2.92794L54.4242 16.8077C55.4286 17.8636 54.6624 19.5694 53.2024 19.5694Z" stroke="url(#paint2_linear)" stroke-width="3" stroke-miterlimit="10"/>
<path d="M15.3151 39.5717L38.3333 26.1996C38.9338 25.8544 39.6793 25.8443 40.2799 26.1793L64.5096 39.5717C65.8764 40.323 65.8143 42.2725 64.4061 42.9528L43.1481 53.1367C40.8805 54.2231 38.2297 54.2028 35.9724 53.0961L15.429 42.9223C14.0622 42.242 14 40.3434 15.3151 39.5717Z" fill="url(#paint3_linear)"/>
<defs>
<linearGradient id="paint0_linear" x1="40.0017" y1="21.2227" x2="40.0017" y2="78.2556" gradientUnits="userSpaceOnUse">
<stop stop-color="#FCD746"/>
<stop offset="0.574" stop-color="#F5B82C"/>
<stop offset="0.7502" stop-color="#F2AD23"/>
</linearGradient>
<linearGradient id="paint1_linear" x1="25.1271" y1="20.0256" x2="54.8805" y2="20.0256" gradientUnits="userSpaceOnUse">
<stop stop-color="#FCD746"/>
<stop offset="0.574" stop-color="#F5B82C"/>
<stop offset="0.7502" stop-color="#F2AD23"/>
</linearGradient>
<linearGradient id="paint2_linear" x1="23.5739" y1="20.0256" x2="56.4336" y2="20.0256" gradientUnits="userSpaceOnUse">
<stop stop-color="#F7F4C9"/>
<stop offset="0.4482" stop-color="#FBECA4"/>
<stop offset="0.7502" stop-color="#FEE786"/>
</linearGradient>
<linearGradient id="paint3_linear" x1="14.3635" y1="39.9363" x2="65.5068" y2="39.9363" gradientUnits="userSpaceOnUse">
<stop stop-color="#F7F4C9"/>
<stop offset="0.4482" stop-color="#FBECA4"/>
<stop offset="0.7502" stop-color="#FEE786"/>
</linearGradient>
</defs>
</svg>
