<svg width="80" height="80" viewBox="0 0 80 80" fill="none" xmlns="http://www.w3.org/2000/svg">
<path d="M76 18.3657V52.4966C76 57.6684 71.7942 61.8624 66.6367 61.8624H50.2251L40.09 72L29.9678 61.8624H13.3633C8.19293 61.8624 4 57.6684 4 52.4966V18.3657C4 13.194 8.19293 9 13.3633 9H66.6367C71.7942 9 76 13.194 76 18.3657Z" fill="url(#paint0_linear)"/>
<path d="M30.333 39.2956V50.2514C30.333 51.4215 31.066 52.4631 32.159 52.8617C33.8049 53.4661 35.5537 53.7618 37.3025 53.7618H53.7619C55.4593 53.7618 56.8223 52.3859 56.8223 50.7014V50.1999C56.8223 49.5313 56.4237 48.914 55.8065 48.6569L56.2565 48.6054C57.311 48.5025 58.1211 47.6024 58.1211 46.5351V45.4293C58.1211 44.4777 57.4781 43.6419 56.5523 43.4104L57.1052 43.3976C58.2625 43.359 59.1884 42.4074 59.1884 41.2501V40.2729C59.1884 39.2827 58.5068 38.4083 57.5424 38.1769C58.7254 38.0483 59.6256 37.0324 59.6256 35.8494C59.6256 34.0749 58.1854 32.6347 56.4108 32.6347H44.645L45.4036 28.6741C46.0852 25.1122 45.6994 21.4217 44.2849 18.0655C43.9377 17.2297 43.089 16.7025 42.1889 16.7539C41.0059 16.8182 40.0929 17.8341 40.1572 19.0171C40.3372 22.309 39.5657 25.588 37.9455 28.4555L34.2164 35.0393C33.7921 35.7851 33.0977 36.3509 32.2747 36.6209C31.1174 37.0196 30.333 38.0868 30.333 39.2956Z" fill="url(#paint1_linear)"/>
<path d="M26.3594 53.7747H22.8618C21.4859 53.7747 20.3672 52.656 20.3672 51.2801V38.7555C20.3672 37.3796 21.4859 36.2609 22.8618 36.2609H26.3594C27.7353 36.2609 28.8541 37.3796 28.8541 38.7555V51.2801C28.8541 52.656 27.7353 53.7747 26.3594 53.7747Z" fill="url(#paint2_linear)"/>
<defs>
<linearGradient id="paint0_linear" x1="4" y1="40.4994" x2="75.9977" y2="40.4994" gradientUnits="userSpaceOnUse">
<stop stop-color="#FCD746"/>
<stop offset="0.574" stop-color="#F5B82C"/>
<stop offset="0.7502" stop-color="#F2AD23"/>
</linearGradient>
<linearGradient id="paint1_linear" x1="30.3283" y1="35.2783" x2="59.6149" y2="35.2783" gradientUnits="userSpaceOnUse">
<stop stop-color="#F7F4C9"/>
<stop offset="0.4482" stop-color="#FBECA4"/>
<stop offset="0.7502" stop-color="#FEE786"/>
</linearGradient>
<linearGradient id="paint2_linear" x1="20.3627" y1="45.018" x2="28.8539" y2="45.018" gradientUnits="userSpaceOnUse">
<stop stop-color="#F7F4C9"/>
<stop offset="0.4482" stop-color="#FBECA4"/>
<stop offset="0.7502" stop-color="#FEE786"/>
</linearGradient>
</defs>
</svg>
