<svg width="18" height="20" viewBox="0 0 18 20" fill="none" xmlns="http://www.w3.org/2000/svg">
<path d="M17.8106 17.7187L12.0115 11.5213C12.9114 10.278 13.3982 8.75792 13.3982 7.15906C13.3982 5.2452 12.6992 3.45067 11.4353 2.0976C10.1715 0.744542 8.48775 0 6.69909 0C4.91043 0 3.22673 0.746929 1.96283 2.0976C0.696705 3.44828 0 5.2452 0 7.15906C0 9.07053 0.698938 10.8698 1.96283 12.2205C3.22673 13.5736 4.9082 14.3181 6.69909 14.3181C8.19522 14.3181 9.61543 13.7979 10.7788 12.8386L16.578 19.0336C16.595 19.0517 16.6152 19.0662 16.6374 19.076C16.6597 19.0858 16.6835 19.0909 16.7075 19.0909C16.7316 19.0909 16.7554 19.0858 16.7776 19.076C16.7999 19.0662 16.82 19.0517 16.837 19.0336L17.8106 17.9955C17.8277 17.9773 17.8412 17.9557 17.8504 17.932C17.8596 17.9082 17.8643 17.8828 17.8643 17.8571C17.8643 17.8314 17.8596 17.8059 17.8504 17.7822C17.8412 17.7584 17.8277 17.7368 17.8106 17.7187ZM10.2362 10.939C9.28941 11.9485 8.03444 12.5045 6.69909 12.5045C5.36374 12.5045 4.10878 11.9485 3.16197 10.939C2.2174 9.92723 1.6971 8.5861 1.6971 7.15906C1.6971 5.73202 2.2174 4.3885 3.16197 3.37908C4.10878 2.36965 5.36374 1.81363 6.69909 1.81363C8.03444 1.81363 9.29164 2.36726 10.2362 3.37908C11.1808 4.39089 11.7011 5.73202 11.7011 7.15906C11.7011 8.5861 11.1808 9.92962 10.2362 10.939Z" fill="#737373"/>
</svg>
