<svg width="80" height="80" viewBox="0 0 80 80" fill="none" xmlns="http://www.w3.org/2000/svg">
<path d="M40 75C59.33 75 75 59.1061 75 39.5C75 19.8939 59.33 4 40 4C20.67 4 5 19.8939 5 39.5C5 59.1061 20.67 75 40 75Z" fill="url(#paint0_linear)"/>
<path d="M53 51.3088C49.6644 54.2171 45.1446 56 40.1684 56C35.0293 56 30.3682 54.0876 27 51" stroke="url(#paint1_linear)" stroke-width="4" stroke-miterlimit="10" stroke-linecap="round"/>
<path d="M45 29.823C46.5404 28.0721 48.6302 27 50.9246 27C53.2944 27 55.4488 28.1508 57 30" stroke="url(#paint2_linear)" stroke-width="4" stroke-miterlimit="10" stroke-linecap="round"/>
<path d="M24 29.823C25.5404 28.0721 27.6302 27 29.9246 27C32.2944 27 34.4488 28.1508 36 30" stroke="url(#paint3_linear)" stroke-width="4" stroke-miterlimit="10" stroke-linecap="round"/>
<defs>
<linearGradient id="paint0_linear" x1="12.7659" y1="24.8547" x2="70.1363" y2="54.841" gradientUnits="userSpaceOnUse">
<stop stop-color="#866AAC"/>
<stop offset="0.8514" stop-color="#644E9B"/>
<stop offset="0.8825" stop-color="#624D9A"/>
</linearGradient>
<linearGradient id="paint1_linear" x1="24.8332" y1="53.497" x2="55.1784" y2="53.497" gradientUnits="userSpaceOnUse">
<stop stop-color="#E2D4EA"/>
<stop offset="0.7738" stop-color="#C4ADD4"/>
<stop offset="0.9811" stop-color="#BBA2CD"/>
</linearGradient>
<linearGradient id="paint2_linear" x1="42.8418" y1="28.5077" x2="59.1487" y2="28.5077" gradientUnits="userSpaceOnUse">
<stop stop-color="#E2D4EA"/>
<stop offset="0.7738" stop-color="#C4ADD4"/>
<stop offset="0.9811" stop-color="#BBA2CD"/>
</linearGradient>
<linearGradient id="paint3_linear" x1="21.8446" y1="28.5077" x2="38.1515" y2="28.5077" gradientUnits="userSpaceOnUse">
<stop stop-color="#E2D4EA"/>
<stop offset="0.7738" stop-color="#C4ADD4"/>
<stop offset="0.9811" stop-color="#BBA2CD"/>
</linearGradient>
</defs>
</svg>
