<svg width="80" height="80" viewBox="0 0 80 80" fill="none" xmlns="http://www.w3.org/2000/svg">
<path d="M2.25342 65.1463C1.84415 66.316 1.86514 66.7692 2.90406 67.4436C4.95043 68.7609 7.00729 70.0783 9.19009 71.1426C15.1823 74.0618 21.4788 76.1168 28.0272 77.3603C29.7377 77.687 31.4798 77.8345 33.2218 77.9926C34.0089 78.0664 34.5336 77.5816 34.5126 76.8123C34.4391 74.4517 35.1002 72.2176 35.7614 70.0045C36.3491 68.0549 37.0732 66.1263 37.7028 64.1873C37.9022 63.5655 38.196 63.3126 38.8991 63.3231C42.2468 63.3758 45.5944 63.2704 48.9526 63.3758C51.3977 63.4496 53.4756 61.658 53.4126 58.8759C53.3392 55.335 53.3916 51.8046 53.3916 48.2637V47.3152H54.2836C55.7948 47.3152 57.285 47.3363 58.7961 47.3047C59.8246 47.2836 60.2968 46.3879 59.8036 45.4921C57.0226 40.402 54.9972 35.0169 53.6015 29.3999C53.2762 28.0721 53.3287 26.6599 53.1922 25.2794C52.5206 18.598 49.6662 13.0021 44.7024 8.52329C40.5887 4.8243 35.7509 2.69554 30.2414 2.12646C30.0945 2.10538 29.9581 2.04215 29.8217 2H25.5295C23.9659 2.30561 22.3603 2.45315 20.8491 2.92738C10.8796 6.03622 4.68808 12.6965 2.4738 22.9715C1.53982 27.3449 2.08552 31.6341 3.25037 35.9232C4.68808 41.224 5.23378 46.6408 4.88747 52.1418C4.60412 56.6101 3.72261 60.9414 2.25342 65.1463Z" fill="url(#paint0_linear)"/>
<path d="M56.8232 67.1674C56.4854 67.1674 56.1476 67.0618 55.8521 66.8402C55.1554 66.3018 55.0287 65.3096 55.5671 64.6235C56.8337 62.9979 57.6571 61.1296 58.016 59.0818C58.3854 57.034 58.2376 54.9123 57.6043 52.949C57.3404 52.1151 57.7943 51.2284 58.6176 50.954C59.4515 50.6796 60.3382 51.144 60.6126 51.9779C61.4043 54.4373 61.5838 57.0762 61.1299 59.6413C60.676 62.1535 59.6204 64.5496 58.0582 66.5657C57.7626 66.9563 57.2982 67.1674 56.8232 67.1674Z" fill="url(#paint1_linear)"/>
<path d="M62.1857 72.3503C61.8268 72.3503 61.4679 72.2342 61.1723 71.9808C60.5073 71.4214 60.4123 70.4186 60.9718 69.7536C63.2095 67.0831 64.719 63.8425 65.3312 60.3908C65.9646 56.8336 65.6373 53.1813 64.3707 49.8141C64.0646 48.9908 64.4762 48.083 65.2996 47.7769C66.1229 47.4708 67.0307 47.8824 67.3368 48.7058C68.7935 52.6008 69.184 56.8336 68.4451 60.9503C67.7273 64.9508 65.9857 68.6981 63.389 71.7908C63.0829 72.1603 62.629 72.3503 62.1857 72.3503Z" fill="url(#paint2_linear)"/>
<path d="M68.1595 77.9547C67.79 77.9547 67.4206 77.828 67.125 77.5747C66.46 77.0046 66.3861 76.0019 66.9667 75.3369C70.2706 71.5052 72.4978 66.8396 73.3845 61.8257C74.2711 56.8751 73.8173 51.7874 72.0967 47.0901C71.7906 46.2668 72.2128 45.359 73.0361 45.0529C73.8595 44.7468 74.7673 45.169 75.0734 45.9923C76.9945 51.2068 77.4906 56.8751 76.5089 62.3746C75.5167 67.948 73.0467 73.1413 69.3628 77.3952C69.0461 77.7647 68.6028 77.9547 68.1595 77.9547Z" fill="url(#paint3_linear)"/>
<defs>
<linearGradient id="paint0_linear" x1="2.00156" y1="39.999" x2="59.9876" y2="39.999" gradientUnits="userSpaceOnUse">
<stop stop-color="#FCD746"/>
<stop offset="0.574" stop-color="#F5B82C"/>
<stop offset="0.7502" stop-color="#F2AD23"/>
</linearGradient>
<linearGradient id="paint1_linear" x1="55.2377" y1="59.0264" x2="61.3861" y2="59.0264" gradientUnits="userSpaceOnUse">
<stop stop-color="#F7F4C9"/>
<stop offset="0.4482" stop-color="#FBECA4"/>
<stop offset="0.7502" stop-color="#FEE786"/>
</linearGradient>
<linearGradient id="paint2_linear" x1="60.5984" y1="60.0102" x2="68.8116" y2="60.0102" gradientUnits="userSpaceOnUse">
<stop stop-color="#F7F4C9"/>
<stop offset="0.4482" stop-color="#FBECA4"/>
<stop offset="0.7502" stop-color="#FEE786"/>
</linearGradient>
<linearGradient id="paint3_linear" x1="66.5794" y1="61.455" x2="76.9944" y2="61.455" gradientUnits="userSpaceOnUse">
<stop stop-color="#F7F4C9"/>
<stop offset="0.4482" stop-color="#FBECA4"/>
<stop offset="0.7502" stop-color="#FEE786"/>
</linearGradient>
</defs>
</svg>
