<svg width="80" height="80" viewBox="0 0 80 80" fill="none" xmlns="http://www.w3.org/2000/svg">
<path d="M3.32666 65.2435C2.91503 66.4151 2.93614 66.8689 3.98105 67.5444C6.03921 68.8637 8.10792 70.1831 10.3033 71.2491C16.33 74.1727 22.6628 76.2309 29.2489 77.4763C30.9693 77.8035 32.7214 77.9513 34.4734 78.1096C35.265 78.1835 35.7928 77.698 35.7717 76.9275C35.6978 74.5632 36.3627 72.3257 37.0277 70.1092C37.6187 68.1566 38.347 66.2251 38.9803 64.283C39.1808 63.6603 39.4764 63.407 40.1835 63.4175C43.5504 63.4703 46.9174 63.3648 50.2949 63.4703C52.7541 63.5442 54.8439 61.7499 54.7806 58.9635C54.7067 55.4171 54.7595 51.8813 54.7595 48.3349V47.385H55.6566C57.1765 47.385 58.6753 47.4061 60.1951 47.3745C61.2295 47.3534 61.7045 46.4562 61.2084 45.5591C58.4114 40.4612 56.3743 35.0677 54.9706 29.4421C54.6434 28.1122 54.6962 26.6979 54.5589 25.3152C53.8835 18.6236 51.0126 13.0191 46.0202 8.53333C41.8828 4.82865 37.0171 2.69661 31.4759 2.12666C31.3282 2.10555 31.1909 2.04222 31.0537 2H26.7369C25.1642 2.30608 23.5494 2.45385 22.0295 2.92881C12.0026 6.04243 5.77534 12.713 3.54831 23.0038C2.60895 27.3839 3.15779 31.6797 4.32935 35.9754C5.77534 41.2844 6.32418 46.7095 5.97588 52.219C5.6909 56.6942 4.80431 61.0322 3.32666 65.2435Z" fill="url(#paint0_linear)"/>
<path d="M60.1536 52.4609C60.8503 54.6141 61.0402 56.9678 60.618 59.3531C60.1959 61.7068 59.2248 63.8177 57.8633 65.5804" stroke="url(#paint1_linear)" stroke-width="3" stroke-miterlimit="10" stroke-linecap="round"/>
<path d="M66.8981 49.2539C68.2174 52.7792 68.6396 56.6949 67.9325 60.6635C67.2464 64.5265 65.5682 67.9568 63.2251 70.7643" stroke="url(#paint2_linear)" stroke-width="3" stroke-miterlimit="10" stroke-linecap="round"/>
<path d="M74.624 46.5391C76.3972 51.352 76.9566 56.6821 75.9856 62.0966C75.004 67.5745 72.5975 72.4402 69.2095 76.3665" stroke="url(#paint3_linear)" stroke-width="3" stroke-miterlimit="10" stroke-linecap="round"/>
<defs>
<linearGradient id="paint0_linear" x1="3.07335" y1="40.0576" x2="61.3935" y2="40.0576" gradientUnits="userSpaceOnUse">
<stop stop-color="#F49F6E"/>
<stop offset="0.4837" stop-color="#F18748"/>
<stop offset="0.7502" stop-color="#EF7831"/>
</linearGradient>
<linearGradient id="paint1_linear" x1="56.2775" y1="59.0238" x2="62.4282" y2="59.0238" gradientUnits="userSpaceOnUse">
<stop stop-color="#F2DAC7"/>
<stop offset="0.9811" stop-color="#F4C3A2"/>
</linearGradient>
<linearGradient id="paint2_linear" x1="61.6374" y1="60.0085" x2="69.8527" y2="60.0085" gradientUnits="userSpaceOnUse">
<stop stop-color="#F2DAC7"/>
<stop offset="0.9811" stop-color="#F4C3A2"/>
</linearGradient>
<linearGradient id="paint3_linear" x1="67.6187" y1="61.4519" x2="78.0365" y2="61.4519" gradientUnits="userSpaceOnUse">
<stop stop-color="#F2DAC7"/>
<stop offset="0.9811" stop-color="#F4C3A2"/>
</linearGradient>
</defs>
</svg>
