<svg width="48" height="48" viewBox="0 0 48 48" fill="none" xmlns="http://www.w3.org/2000/svg">
<circle cx="24" cy="24" r="23" transform="rotate(-180 24 24)" class="thumbs-border stroke" stroke-width="2"/>
<path d="M29.6189 12.0004H32.8228C33.5019 11.9884 34.1619 12.2262 34.6773 12.6686C35.1927 13.111 35.5277 13.7273 35.6187 14.4004V22.8002C35.5277 23.4734 35.1927 24.0896 34.6773 24.532C34.1619 24.9744 33.5019 25.2122 32.8228 25.2002H29.6189M21.219 27.6002V32.4001C21.219 33.3548 21.5983 34.2705 22.2734 34.9456C22.9485 35.6207 23.8642 36 24.8189 36L29.6189 25.2002V12.0004H16.0831C15.5043 11.9939 14.9427 12.1967 14.5016 12.5716C14.0606 12.9465 13.7699 13.4681 13.6831 14.0404L12.0272 24.8402C11.975 25.1842 11.9982 25.5354 12.0952 25.8695C12.1922 26.2036 12.3606 26.5126 12.5889 26.7751C12.8172 27.0377 13.0999 27.2474 13.4173 27.3899C13.7347 27.5323 14.0793 27.6041 14.4271 27.6002H21.219Z" class="stroke" stroke-width="2" stroke-linecap="round" stroke-linejoin="round"/>
</svg>
