<svg width="48" height="48" viewBox="0 0 48 48" fill="none" xmlns="http://www.w3.org/2000/svg">
<circle cx="24" cy="24" r="23" class="thumbs-stroke" stroke-width="2"/>
<path d="M18 35.9998H14.4C13.7635 35.9998 13.153 35.747 12.7029 35.2969C12.2529 34.8468 12 34.2364 12 33.5999V25.1999C12 24.5634 12.2529 23.953 12.7029 23.5029C13.153 23.0528 13.7635 22.7999 14.4 22.7999H18M26.3999 20.3999V15.6C26.3999 14.6452 26.0206 13.7295 25.3455 13.0544C24.6704 12.3793 23.7547 12 22.7999 12L18 22.7999V35.9998H31.5359C32.1147 36.0064 32.6763 35.8035 33.1174 35.4287C33.5584 35.0538 33.8491 34.5321 33.9359 33.9599L35.5918 23.1599C35.6441 22.816 35.6209 22.4648 35.5239 22.1306C35.4269 21.7965 35.2584 21.4875 35.0301 21.225C34.8018 20.9624 34.5192 20.7527 34.2017 20.6102C33.8843 20.4678 33.5398 20.396 33.1919 20.3999H26.3999Z" class="thumbs-stroke-2" stroke-width="2" stroke-linecap="round" stroke-linejoin="round"/>
</svg>
